<?xml version="1.0" encoding="UTF-8" standalone="no"?>
<!DOCTYPE svg PUBLIC "-//W3C//DTD SVG 1.1//EN"
 "http://www.w3.org/Graphics/SVG/1.1/DTD/svg11.dtd">
<!-- Generated by graphviz version 2.43.0 (0)
 -->
<!-- Title: ConfigParser::parseConfig Pages: 1 -->
<svg width="522pt" height="38pt"
 viewBox="0.00 0.00 522.00 38.00" xmlns="http://www.w3.org/2000/svg" xmlns:xlink="http://www.w3.org/1999/xlink">
<g id="graph0" class="graph" transform="scale(1 1) rotate(0) translate(4 34)">
<title>ConfigParser::parseConfig</title>
<!-- Node1 -->
<g id="Node000001" class="node">
<title>Node1</title>
<g id="a_Node000001"><a xlink:title=" ">
<polygon fill="#999999" stroke="#666666" points="514,-24.5 373,-24.5 373,-5.5 514,-5.5 514,-24.5"/>
<text text-anchor="middle" x="443.5" y="-12.5" font-family="Helvetica,sans-Serif" font-size="10.00">ConfigParser::parseConfig</text>
</a>
</g>
</g>
<!-- Node2 -->
<g id="Node000002" class="node">
<title>Node2</title>
<g id="a_Node000002"><a xlink:href="namespaceanonymous__namespace_02webserv_8cpp_03.html#aae8f81a4da2ba25012d48ca194e14b64" target="_top" xlink:title=" ">
<polygon fill="white" stroke="#666666" points="337,-30 187,-30 187,0 337,0 337,-30"/>
<text text-anchor="start" x="195" y="-18" font-family="Helvetica,sans-Serif" font-size="10.00">anonymous_namespace</text>
<text text-anchor="middle" x="262" y="-7" font-family="Helvetica,sans-Serif" font-size="10.00">{webserv::cpp}::loadConfig</text>
</a>
</g>
</g>
<!-- Node1&#45;&gt;Node2 -->
<g id="edge1_Node000001_Node000002" class="edge">
<title>Node1&#45;&gt;Node2</title>
<g id="a_edge1_Node000001_Node000002"><a xlink:title=" ">
<path fill="none" stroke="#63b8ff" d="M362.57,-15C354.09,-15 345.49,-15 337.07,-15"/>
<polygon fill="#63b8ff" stroke="#63b8ff" points="362.84,-18.5 372.84,-15 362.84,-11.5 362.84,-18.5"/>
</a>
</g>
</g>
<!-- Node3 -->
<g id="Node000003" class="node">
<title>Node3</title>
<g id="a_Node000003"><a xlink:href="webserv_8cpp.html#a6e58dbe6eab2d4b12d65b7b0e7297be8" target="_top" xlink:title=" ">
<polygon fill="white" stroke="#666666" points="151,-24.5 77,-24.5 77,-5.5 151,-5.5 151,-24.5"/>
<text text-anchor="middle" x="114" y="-12.5" font-family="Helvetica,sans-Serif" font-size="10.00">runWebserv</text>
</a>
</g>
</g>
<!-- Node2&#45;&gt;Node3 -->
<g id="edge2_Node000002_Node000003" class="edge">
<title>Node2&#45;&gt;Node3</title>
<g id="a_edge2_Node000002_Node000003"><a xlink:title=" ">
<path fill="none" stroke="#63b8ff" d="M176.59,-15C167.68,-15 159,-15 151.1,-15"/>
<polygon fill="#63b8ff" stroke="#63b8ff" points="176.72,-18.5 186.72,-15 176.72,-11.5 176.72,-18.5"/>
</a>
</g>
</g>
<!-- Node4 -->
<g id="Node000004" class="node">
<title>Node4</title>
<g id="a_Node000004"><a xlink:href="main_8cpp.html#a3c04138a5bfe5d72780bb7e82a18e627" target="_top" xlink:title=" ">
<polygon fill="white" stroke="#666666" points="41,-24.5 0,-24.5 0,-5.5 41,-5.5 41,-24.5"/>
<text text-anchor="middle" x="20.5" y="-12.5" font-family="Helvetica,sans-Serif" font-size="10.00">main</text>
</a>
</g>
</g>
<!-- Node3&#45;&gt;Node4 -->
<g id="edge3_Node000003_Node000004" class="edge">
<title>Node3&#45;&gt;Node4</title>
<g id="a_edge3_Node000003_Node000004"><a xlink:title=" ">
<path fill="none" stroke="#63b8ff" d="M66.7,-15C57.67,-15 48.66,-15 41.09,-15"/>
<polygon fill="#63b8ff" stroke="#63b8ff" points="66.84,-18.5 76.84,-15 66.84,-11.5 66.84,-18.5"/>
</a>
</g>
</g>
</g>
</svg>
