<?xml version="1.0" encoding="UTF-8" standalone="no"?>
<!DOCTYPE svg PUBLIC "-//W3C//DTD SVG 1.1//EN"
 "http://www.w3.org/Graphics/SVG/1.1/DTD/svg11.dtd">
<!-- Generated by graphviz version 2.43.0 (0)
 -->
<!-- Title: Server::addServerName Pages: 1 -->
<svg width="1223pt" height="38pt"
 viewBox="0.00 0.00 1223.00 38.00" xmlns="http://www.w3.org/2000/svg" xmlns:xlink="http://www.w3.org/1999/xlink">
<g id="graph0" class="graph" transform="scale(1 1) rotate(0) translate(4 34)">
<title>Server::addServerName</title>
<!-- Node1 -->
<g id="Node000001" class="node">
<title>Node1</title>
<g id="a_Node000001"><a xlink:title="Adds a server name alias for this virtual host.">
<polygon fill="#999999" stroke="#666666" points="1215,-24.5 1082,-24.5 1082,-5.5 1215,-5.5 1215,-24.5"/>
<text text-anchor="middle" x="1148.5" y="-12.5" font-family="Helvetica,sans-Serif" font-size="10.00">Server::addServerName</text>
</a>
</g>
</g>
<!-- Node2 -->
<g id="Node000002" class="node">
<title>Node2</title>
<g id="a_Node000002"><a xlink:href="namespacedirective.html#a3338d7904396548486d9d2dce2367c06" target="_top" xlink:title=" ">
<polygon fill="white" stroke="#666666" points="1046,-24.5 906,-24.5 906,-5.5 1046,-5.5 1046,-24.5"/>
<text text-anchor="middle" x="976" y="-12.5" font-family="Helvetica,sans-Serif" font-size="10.00">directive::serverHandlers</text>
</a>
</g>
</g>
<!-- Node1&#45;&gt;Node2 -->
<g id="edge1_Node000001_Node000002" class="edge">
<title>Node1&#45;&gt;Node2</title>
<g id="a_edge1_Node000001_Node000002"><a xlink:title=" ">
<path fill="none" stroke="#63b8ff" d="M1071.4,-15C1062.99,-15 1054.45,-15 1046.13,-15"/>
<polygon fill="#63b8ff" stroke="#63b8ff" points="1071.58,-18.5 1081.58,-15 1071.58,-11.5 1071.58,-18.5"/>
</a>
</g>
</g>
<!-- Node3 -->
<g id="Node000003" class="node">
<title>Node3</title>
<g id="a_Node000003"><a xlink:href="classConfigParser.html#a65dee8490851a65fb3d80ab1677c4a5d" target="_top" xlink:title=" ">
<polygon fill="white" stroke="#666666" points="870,-30 728,-30 728,0 870,0 870,-30"/>
<text text-anchor="start" x="736" y="-18" font-family="Helvetica,sans-Serif" font-size="10.00">ConfigParser::parseServer</text>
<text text-anchor="middle" x="799" y="-7" font-family="Helvetica,sans-Serif" font-size="10.00">Directive</text>
</a>
</g>
</g>
<!-- Node2&#45;&gt;Node3 -->
<g id="edge2_Node000002_Node000003" class="edge">
<title>Node2&#45;&gt;Node3</title>
<g id="a_edge2_Node000002_Node000003"><a xlink:title=" ">
<path fill="none" stroke="#63b8ff" d="M895.83,-15C887.25,-15 878.56,-15 870.1,-15"/>
<polygon fill="#63b8ff" stroke="#63b8ff" points="895.84,-18.5 905.84,-15 895.84,-11.5 895.84,-18.5"/>
</a>
</g>
</g>
<!-- Node4 -->
<g id="Node000004" class="node">
<title>Node4</title>
<g id="a_Node000004"><a xlink:href="classConfigParser.html#aec05768b15f77f3908738fba4237d2a8" target="_top" xlink:title=" ">
<polygon fill="white" stroke="#666666" points="692,-24.5 550,-24.5 550,-5.5 692,-5.5 692,-24.5"/>
<text text-anchor="middle" x="621" y="-12.5" font-family="Helvetica,sans-Serif" font-size="10.00">ConfigParser::parseServer</text>
</a>
</g>
</g>
<!-- Node3&#45;&gt;Node4 -->
<g id="edge3_Node000003_Node000004" class="edge">
<title>Node3&#45;&gt;Node4</title>
<g id="a_edge3_Node000003_Node000004"><a xlink:title=" ">
<path fill="none" stroke="#63b8ff" d="M717.9,-15C709.29,-15 700.59,-15 692.11,-15"/>
<polygon fill="#63b8ff" stroke="#63b8ff" points="717.93,-18.5 727.93,-15 717.93,-11.5 717.93,-18.5"/>
</a>
</g>
</g>
<!-- Node5 -->
<g id="Node000005" class="node">
<title>Node5</title>
<g id="a_Node000005"><a xlink:href="classConfigParser.html#a3b983e072038482de7698c091f5c8a99" target="_top" xlink:title=" ">
<polygon fill="white" stroke="#666666" points="514,-24.5 373,-24.5 373,-5.5 514,-5.5 514,-24.5"/>
<text text-anchor="middle" x="443.5" y="-12.5" font-family="Helvetica,sans-Serif" font-size="10.00">ConfigParser::parseConfig</text>
</a>
</g>
</g>
<!-- Node4&#45;&gt;Node5 -->
<g id="edge4_Node000004_Node000005" class="edge">
<title>Node4&#45;&gt;Node5</title>
<g id="a_edge4_Node000004_Node000005"><a xlink:title=" ">
<path fill="none" stroke="#63b8ff" d="M539.61,-15C531.13,-15 522.56,-15 514.22,-15"/>
<polygon fill="#63b8ff" stroke="#63b8ff" points="539.88,-18.5 549.88,-15 539.88,-11.5 539.88,-18.5"/>
</a>
</g>
</g>
<!-- Node6 -->
<g id="Node000006" class="node">
<title>Node6</title>
<g id="a_Node000006"><a xlink:href="namespaceanonymous__namespace_02webserv_8cpp_03.html#aae8f81a4da2ba25012d48ca194e14b64" target="_top" xlink:title=" ">
<polygon fill="white" stroke="#666666" points="337,-30 187,-30 187,0 337,0 337,-30"/>
<text text-anchor="start" x="195" y="-18" font-family="Helvetica,sans-Serif" font-size="10.00">anonymous_namespace</text>
<text text-anchor="middle" x="262" y="-7" font-family="Helvetica,sans-Serif" font-size="10.00">{webserv::cpp}::loadConfig</text>
</a>
</g>
</g>
<!-- Node5&#45;&gt;Node6 -->
<g id="edge5_Node000005_Node000006" class="edge">
<title>Node5&#45;&gt;Node6</title>
<g id="a_edge5_Node000005_Node000006"><a xlink:title=" ">
<path fill="none" stroke="#63b8ff" d="M362.57,-15C354.09,-15 345.49,-15 337.07,-15"/>
<polygon fill="#63b8ff" stroke="#63b8ff" points="362.84,-18.5 372.84,-15 362.84,-11.5 362.84,-18.5"/>
</a>
</g>
</g>
<!-- Node7 -->
<g id="Node000007" class="node">
<title>Node7</title>
<g id="a_Node000007"><a xlink:href="webserv_8cpp.html#a6e58dbe6eab2d4b12d65b7b0e7297be8" target="_top" xlink:title=" ">
<polygon fill="white" stroke="#666666" points="151,-24.5 77,-24.5 77,-5.5 151,-5.5 151,-24.5"/>
<text text-anchor="middle" x="114" y="-12.5" font-family="Helvetica,sans-Serif" font-size="10.00">runWebserv</text>
</a>
</g>
</g>
<!-- Node6&#45;&gt;Node7 -->
<g id="edge6_Node000006_Node000007" class="edge">
<title>Node6&#45;&gt;Node7</title>
<g id="a_edge6_Node000006_Node000007"><a xlink:title=" ">
<path fill="none" stroke="#63b8ff" d="M176.59,-15C167.68,-15 159,-15 151.1,-15"/>
<polygon fill="#63b8ff" stroke="#63b8ff" points="176.72,-18.5 186.72,-15 176.72,-11.5 176.72,-18.5"/>
</a>
</g>
</g>
<!-- Node8 -->
<g id="Node000008" class="node">
<title>Node8</title>
<g id="a_Node000008"><a xlink:href="main_8cpp.html#a3c04138a5bfe5d72780bb7e82a18e627" target="_top" xlink:title=" ">
<polygon fill="white" stroke="#666666" points="41,-24.5 0,-24.5 0,-5.5 41,-5.5 41,-24.5"/>
<text text-anchor="middle" x="20.5" y="-12.5" font-family="Helvetica,sans-Serif" font-size="10.00">main</text>
</a>
</g>
</g>
<!-- Node7&#45;&gt;Node8 -->
<g id="edge7_Node000007_Node000008" class="edge">
<title>Node7&#45;&gt;Node8</title>
<g id="a_edge7_Node000007_Node000008"><a xlink:title=" ">
<path fill="none" stroke="#63b8ff" d="M66.7,-15C57.67,-15 48.66,-15 41.09,-15"/>
<polygon fill="#63b8ff" stroke="#63b8ff" points="66.84,-18.5 76.84,-15 66.84,-11.5 66.84,-18.5"/>
</a>
</g>
</g>
</g>
</svg>
