<?xml version="1.0" encoding="UTF-8" standalone="no"?>
<!DOCTYPE svg PUBLIC "-//W3C//DTD SVG 1.1//EN"
 "http://www.w3.org/Graphics/SVG/1.1/DTD/svg11.dtd">
<!-- Generated by graphviz version 2.43.0 (0)
 -->
<!-- Title: Tokenizer::peekNext Pages: 1 -->
<svg width="623pt" height="27pt"
 viewBox="0.00 0.00 623.00 27.00" xmlns="http://www.w3.org/2000/svg" xmlns:xlink="http://www.w3.org/1999/xlink">
<g id="graph0" class="graph" transform="scale(1 1) rotate(0) translate(4 23)">
<title>Tokenizer::peekNext</title>
<!-- Node1 -->
<g id="Node000001" class="node">
<title>Node1</title>
<g id="a_Node000001"><a xlink:title=" ">
<polygon fill="#999999" stroke="#666666" points="615,-19 499,-19 499,0 615,0 615,-19"/>
<text text-anchor="middle" x="557" y="-7" font-family="Helvetica,sans-Serif" font-size="10.00">Tokenizer::peekNext</text>
</a>
</g>
</g>
<!-- Node2 -->
<g id="Node000002" class="node">
<title>Node2</title>
<g id="a_Node000002"><a xlink:href="classTokenizer.html#abb60123728550edb23bb1624f3cfe780" target="_top" xlink:title=" ">
<polygon fill="white" stroke="#666666" points="463,-19 326,-19 326,0 463,0 463,-19"/>
<text text-anchor="middle" x="394.5" y="-7" font-family="Helvetica,sans-Serif" font-size="10.00">Tokenizer::dispatchToken</text>
</a>
</g>
</g>
<!-- Node1&#45;&gt;Node2 -->
<g id="edge1_Node000001_Node000002" class="edge">
<title>Node1&#45;&gt;Node2</title>
<g id="a_edge1_Node000001_Node000002"><a xlink:title=" ">
<path fill="none" stroke="#63b8ff" d="M488.73,-9.5C480.24,-9.5 471.55,-9.5 463.06,-9.5"/>
<polygon fill="#63b8ff" stroke="#63b8ff" points="488.96,-13 498.96,-9.5 488.96,-6 488.96,-13"/>
</a>
</g>
</g>
<!-- Node3 -->
<g id="Node000003" class="node">
<title>Node3</title>
<g id="a_Node000003"><a xlink:href="classTokenizer.html#a535ed2343bd999378d3295edc150e746" target="_top" xlink:title=" ">
<polygon fill="white" stroke="#666666" points="290,-19 180,-19 180,0 290,0 290,-19"/>
<text text-anchor="middle" x="235" y="-7" font-family="Helvetica,sans-Serif" font-size="10.00">Tokenizer::tokenize</text>
</a>
</g>
</g>
<!-- Node2&#45;&gt;Node3 -->
<g id="edge2_Node000002_Node000003" class="edge">
<title>Node2&#45;&gt;Node3</title>
<g id="a_edge2_Node000002_Node000003"><a xlink:title=" ">
<path fill="none" stroke="#63b8ff" d="M315.75,-9.5C307.16,-9.5 298.56,-9.5 290.35,-9.5"/>
<polygon fill="#63b8ff" stroke="#63b8ff" points="315.79,-13 325.79,-9.5 315.79,-6 315.79,-13"/>
</a>
</g>
</g>
<!-- Node4 -->
<g id="Node000004" class="node">
<title>Node4</title>
<g id="a_Node000004"><a xlink:href="classConfigParser.html#a41f286ebab54d57477b7ff2964dba61e" target="_top" xlink:title=" ">
<polygon fill="white" stroke="#666666" points="144,-19 0,-19 0,0 144,0 144,-19"/>
<text text-anchor="middle" x="72" y="-7" font-family="Helvetica,sans-Serif" font-size="10.00">ConfigParser::ConfigParser</text>
</a>
</g>
</g>
<!-- Node3&#45;&gt;Node4 -->
<g id="edge3_Node000003_Node000004" class="edge">
<title>Node3&#45;&gt;Node4</title>
<g id="a_edge3_Node000003_Node000004"><a xlink:title=" ">
<path fill="none" stroke="#63b8ff" d="M169.78,-9.5C161.33,-9.5 152.63,-9.5 144.07,-9.5"/>
<polygon fill="#63b8ff" stroke="#63b8ff" points="169.94,-13 179.94,-9.5 169.94,-6 169.94,-13"/>
</a>
</g>
</g>
</g>
</svg>
