<?xml version="1.0" encoding="UTF-8" standalone="no"?>
<!DOCTYPE svg PUBLIC "-//W3C//DTD SVG 1.1//EN"
 "http://www.w3.org/Graphics/SVG/1.1/DTD/svg11.dtd">
<!-- Generated by graphviz version 2.43.0 (0)
 -->
<!-- Title: Server::setClientMaxBodySize Pages: 1 -->
<svg width="1254pt" height="76pt"
 viewBox="0.00 0.00 1254.00 75.50" xmlns="http://www.w3.org/2000/svg" xmlns:xlink="http://www.w3.org/1999/xlink">
<g id="graph0" class="graph" transform="scale(1 1) rotate(0) translate(4 71.5)">
<title>Server::setClientMaxBodySize</title>
<!-- Node1 -->
<g id="Node000001" class="node">
<title>Node1</title>
<g id="a_Node000001"><a xlink:title="Sets the maximum allowed size for the HTTP request body.">
<polygon fill="#999999" stroke="#666666" points="1246,-45.5 1082,-45.5 1082,-26.5 1246,-26.5 1246,-45.5"/>
<text text-anchor="middle" x="1164" y="-33.5" font-family="Helvetica,sans-Serif" font-size="10.00">Server::setClientMaxBodySize</text>
</a>
</g>
</g>
<!-- Node2 -->
<g id="Node000002" class="node">
<title>Node2</title>
<g id="a_Node000002"><a xlink:href="normalizeConfig_8cpp.html#a6d073a523d9b1121fb6e86eeb2a0f00f" target="_top" xlink:title=" ">
<polygon fill="white" stroke="#666666" points="1024.5,-65.5 927.5,-65.5 927.5,-46.5 1024.5,-46.5 1024.5,-65.5"/>
<text text-anchor="middle" x="976" y="-53.5" font-family="Helvetica,sans-Serif" font-size="10.00">normalizeServer</text>
</a>
</g>
</g>
<!-- Node1&#45;&gt;Node2 -->
<g id="edge1_Node000001_Node000002" class="edge">
<title>Node1&#45;&gt;Node2</title>
<g id="a_edge1_Node000001_Node000002"><a xlink:title=" ">
<path fill="none" stroke="#63b8ff" d="M1071.82,-45.8C1055.49,-47.56 1039.08,-49.32 1024.61,-50.88"/>
<polygon fill="#63b8ff" stroke="#63b8ff" points="1072.39,-49.26 1081.96,-44.71 1071.64,-42.3 1072.39,-49.26"/>
</a>
</g>
</g>
<!-- Node6 -->
<g id="Node000006" class="node">
<title>Node6</title>
<g id="a_Node000006"><a xlink:href="namespacedirective.html#a3338d7904396548486d9d2dce2367c06" target="_top" xlink:title=" ">
<polygon fill="white" stroke="#666666" points="1046,-27.5 906,-27.5 906,-8.5 1046,-8.5 1046,-27.5"/>
<text text-anchor="middle" x="976" y="-15.5" font-family="Helvetica,sans-Serif" font-size="10.00">directive::serverHandlers</text>
</a>
</g>
</g>
<!-- Node1&#45;&gt;Node6 -->
<g id="edge5_Node000001_Node000006" class="edge">
<title>Node1&#45;&gt;Node6</title>
<g id="a_edge5_Node000001_Node000006"><a xlink:title=" ">
<path fill="none" stroke="#63b8ff" d="M1071.84,-27.18C1063.19,-26.34 1054.52,-25.5 1046.13,-24.69"/>
<polygon fill="#63b8ff" stroke="#63b8ff" points="1071.67,-30.68 1081.96,-28.16 1072.34,-23.71 1071.67,-30.68"/>
</a>
</g>
</g>
<!-- Node3 -->
<g id="Node000003" class="node">
<title>Node3</title>
<g id="a_Node000003"><a xlink:href="normalizeConfig_8cpp.html#a424745e39c183e79968502e3070343fa" target="_top" xlink:title=" ">
<polygon fill="white" stroke="#666666" points="669,-67.5 573,-67.5 573,-48.5 669,-48.5 669,-67.5"/>
<text text-anchor="middle" x="621" y="-55.5" font-family="Helvetica,sans-Serif" font-size="10.00">normalizeConfig</text>
</a>
</g>
</g>
<!-- Node2&#45;&gt;Node3 -->
<g id="edge2_Node000002_Node000003" class="edge">
<title>Node2&#45;&gt;Node3</title>
<g id="a_edge2_Node000002_Node000003"><a xlink:title=" ">
<path fill="none" stroke="#63b8ff" d="M917.1,-56.33C847.84,-56.72 733.24,-57.37 669.13,-57.73"/>
<polygon fill="#63b8ff" stroke="#63b8ff" points="917.41,-59.83 927.39,-56.27 917.37,-52.83 917.41,-59.83"/>
</a>
</g>
</g>
<!-- Node4 -->
<g id="Node000004" class="node">
<title>Node4</title>
<g id="a_Node000004"><a xlink:href="webserv_8cpp.html#a6e58dbe6eab2d4b12d65b7b0e7297be8" target="_top" xlink:title=" ">
<polygon fill="white" stroke="#666666" points="151,-45.5 77,-45.5 77,-26.5 151,-26.5 151,-45.5"/>
<text text-anchor="middle" x="114" y="-33.5" font-family="Helvetica,sans-Serif" font-size="10.00">runWebserv</text>
</a>
</g>
</g>
<!-- Node3&#45;&gt;Node4 -->
<g id="edge3_Node000003_Node000004" class="edge">
<title>Node3&#45;&gt;Node4</title>
<g id="a_edge3_Node000003_Node000004"><a xlink:title=" ">
<path fill="none" stroke="#63b8ff" d="M562.87,-55.51C458.12,-50.95 238.1,-41.36 151.31,-37.58"/>
<polygon fill="#63b8ff" stroke="#63b8ff" points="562.8,-59.01 572.94,-55.95 563.11,-52.02 562.8,-59.01"/>
</a>
</g>
</g>
<!-- Node5 -->
<g id="Node000005" class="node">
<title>Node5</title>
<g id="a_Node000005"><a xlink:href="main_8cpp.html#a3c04138a5bfe5d72780bb7e82a18e627" target="_top" xlink:title=" ">
<polygon fill="white" stroke="#666666" points="41,-45.5 0,-45.5 0,-26.5 41,-26.5 41,-45.5"/>
<text text-anchor="middle" x="20.5" y="-33.5" font-family="Helvetica,sans-Serif" font-size="10.00">main</text>
</a>
</g>
</g>
<!-- Node4&#45;&gt;Node5 -->
<g id="edge4_Node000004_Node000005" class="edge">
<title>Node4&#45;&gt;Node5</title>
<g id="a_edge4_Node000004_Node000005"><a xlink:title=" ">
<path fill="none" stroke="#63b8ff" d="M66.7,-36C57.67,-36 48.66,-36 41.09,-36"/>
<polygon fill="#63b8ff" stroke="#63b8ff" points="66.84,-39.5 76.84,-36 66.84,-32.5 66.84,-39.5"/>
</a>
</g>
</g>
<!-- Node7 -->
<g id="Node000007" class="node">
<title>Node7</title>
<g id="a_Node000007"><a xlink:href="classConfigParser.html#a65dee8490851a65fb3d80ab1677c4a5d" target="_top" xlink:title=" ">
<polygon fill="white" stroke="#666666" points="870,-30 728,-30 728,0 870,0 870,-30"/>
<text text-anchor="start" x="736" y="-18" font-family="Helvetica,sans-Serif" font-size="10.00">ConfigParser::parseServer</text>
<text text-anchor="middle" x="799" y="-7" font-family="Helvetica,sans-Serif" font-size="10.00">Directive</text>
</a>
</g>
</g>
<!-- Node6&#45;&gt;Node7 -->
<g id="edge6_Node000006_Node000007" class="edge">
<title>Node6&#45;&gt;Node7</title>
<g id="a_edge6_Node000006_Node000007"><a xlink:title=" ">
<path fill="none" stroke="#63b8ff" d="M895.83,-16.64C887.25,-16.5 878.56,-16.35 870.1,-16.2"/>
<polygon fill="#63b8ff" stroke="#63b8ff" points="895.78,-20.14 905.84,-16.81 895.9,-13.14 895.78,-20.14"/>
</a>
</g>
</g>
<!-- Node8 -->
<g id="Node000008" class="node">
<title>Node8</title>
<g id="a_Node000008"><a xlink:href="classConfigParser.html#aec05768b15f77f3908738fba4237d2a8" target="_top" xlink:title=" ">
<polygon fill="white" stroke="#666666" points="692,-24.5 550,-24.5 550,-5.5 692,-5.5 692,-24.5"/>
<text text-anchor="middle" x="621" y="-12.5" font-family="Helvetica,sans-Serif" font-size="10.00">ConfigParser::parseServer</text>
</a>
</g>
</g>
<!-- Node7&#45;&gt;Node8 -->
<g id="edge7_Node000007_Node000008" class="edge">
<title>Node7&#45;&gt;Node8</title>
<g id="a_edge7_Node000007_Node000008"><a xlink:title=" ">
<path fill="none" stroke="#63b8ff" d="M717.9,-15C709.29,-15 700.59,-15 692.11,-15"/>
<polygon fill="#63b8ff" stroke="#63b8ff" points="717.93,-18.5 727.93,-15 717.93,-11.5 717.93,-18.5"/>
</a>
</g>
</g>
<!-- Node9 -->
<g id="Node000009" class="node">
<title>Node9</title>
<g id="a_Node000009"><a xlink:href="classConfigParser.html#a3b983e072038482de7698c091f5c8a99" target="_top" xlink:title=" ">
<polygon fill="white" stroke="#666666" points="514,-24.5 373,-24.5 373,-5.5 514,-5.5 514,-24.5"/>
<text text-anchor="middle" x="443.5" y="-12.5" font-family="Helvetica,sans-Serif" font-size="10.00">ConfigParser::parseConfig</text>
</a>
</g>
</g>
<!-- Node8&#45;&gt;Node9 -->
<g id="edge8_Node000008_Node000009" class="edge">
<title>Node8&#45;&gt;Node9</title>
<g id="a_edge8_Node000008_Node000009"><a xlink:title=" ">
<path fill="none" stroke="#63b8ff" d="M539.61,-15C531.13,-15 522.56,-15 514.22,-15"/>
<polygon fill="#63b8ff" stroke="#63b8ff" points="539.88,-18.5 549.88,-15 539.88,-11.5 539.88,-18.5"/>
</a>
</g>
</g>
<!-- Node10 -->
<g id="Node000010" class="node">
<title>Node10</title>
<g id="a_Node000010"><a xlink:href="namespaceanonymous__namespace_02webserv_8cpp_03.html#aae8f81a4da2ba25012d48ca194e14b64" target="_top" xlink:title=" ">
<polygon fill="white" stroke="#666666" points="337,-30 187,-30 187,0 337,0 337,-30"/>
<text text-anchor="start" x="195" y="-18" font-family="Helvetica,sans-Serif" font-size="10.00">anonymous_namespace</text>
<text text-anchor="middle" x="262" y="-7" font-family="Helvetica,sans-Serif" font-size="10.00">{webserv::cpp}::loadConfig</text>
</a>
</g>
</g>
<!-- Node9&#45;&gt;Node10 -->
<g id="edge9_Node000009_Node000010" class="edge">
<title>Node9&#45;&gt;Node10</title>
<g id="a_edge9_Node000009_Node000010"><a xlink:title=" ">
<path fill="none" stroke="#63b8ff" d="M362.57,-15C354.09,-15 345.49,-15 337.07,-15"/>
<polygon fill="#63b8ff" stroke="#63b8ff" points="362.84,-18.5 372.84,-15 362.84,-11.5 362.84,-18.5"/>
</a>
</g>
</g>
<!-- Node10&#45;&gt;Node4 -->
<g id="edge10_Node000010_Node000004" class="edge">
<title>Node10&#45;&gt;Node4</title>
<g id="a_edge10_Node000010_Node000004"><a xlink:title=" ">
<path fill="none" stroke="#63b8ff" d="M176.59,-27.14C167.68,-28.42 159,-29.67 151.1,-30.81"/>
<polygon fill="#63b8ff" stroke="#63b8ff" points="177.32,-30.57 186.72,-25.68 176.32,-23.64 177.32,-30.57"/>
</a>
</g>
</g>
</g>
</svg>
