<?xml version="1.0" encoding="UTF-8" standalone="no"?>
<!DOCTYPE svg PUBLIC "-//W3C//DTD SVG 1.1//EN"
 "http://www.w3.org/Graphics/SVG/1.1/DTD/svg11.dtd">
<!-- Generated by graphviz version 2.43.0 (0)
 -->
<!-- Title: include/config/parser/ConfigParseError.hpp Pages: 1 -->
<svg width="900pt" height="104pt"
 viewBox="0.00 0.00 899.50 104.00" xmlns="http://www.w3.org/2000/svg" xmlns:xlink="http://www.w3.org/1999/xlink">
<g id="graph0" class="graph" transform="scale(1 1) rotate(0) translate(4 100)">
<title>include/config/parser/ConfigParseError.hpp</title>
<!-- Node1 -->
<g id="Node000001" class="node">
<title>Node1</title>
<g id="a_Node000001"><a xlink:title=" ">
<polygon fill="#999999" stroke="#666666" points="501.5,-96 381.5,-96 381.5,-66 501.5,-66 501.5,-96"/>
<text text-anchor="start" x="389.5" y="-84" font-family="Helvetica,sans-Serif" font-size="10.00">include/config/parser</text>
<text text-anchor="middle" x="441.5" y="-73" font-family="Helvetica,sans-Serif" font-size="10.00">/ConfigParseError.hpp</text>
</a>
</g>
</g>
<!-- Node2 -->
<g id="Node000002" class="node">
<title>Node2</title>
<g id="a_Node000002"><a xlink:href="ConfigParseError_8cpp.html" target="_top" xlink:title=" ">
<polygon fill="white" stroke="#666666" points="131,-30 0,-30 0,0 131,0 131,-30"/>
<text text-anchor="start" x="8" y="-18" font-family="Helvetica,sans-Serif" font-size="10.00">src/config/parser/Config</text>
<text text-anchor="middle" x="65.5" y="-7" font-family="Helvetica,sans-Serif" font-size="10.00">ParseError.cpp</text>
</a>
</g>
</g>
<!-- Node1&#45;&gt;Node2 -->
<g id="edge1_Node000001_Node000002" class="edge">
<title>Node1&#45;&gt;Node2</title>
<g id="a_edge1_Node000001_Node000002"><a xlink:title=" ">
<path fill="none" stroke="#63b8ff" d="M371.32,-68.85C310.06,-59 218.81,-44.07 139.5,-30 136.8,-29.52 134.04,-29.03 131.25,-28.52"/>
<polygon fill="#63b8ff" stroke="#63b8ff" points="370.84,-72.32 381.27,-70.44 371.95,-65.4 370.84,-72.32"/>
</a>
</g>
</g>
<!-- Node3 -->
<g id="Node000003" class="node">
<title>Node3</title>
<g id="a_Node000003"><a xlink:href="ConfigParser_8cpp.html" target="_top" xlink:title=" ">
<polygon fill="white" stroke="#666666" points="280,-30 149,-30 149,0 280,0 280,-30"/>
<text text-anchor="start" x="157" y="-18" font-family="Helvetica,sans-Serif" font-size="10.00">src/config/parser/Config</text>
<text text-anchor="middle" x="214.5" y="-7" font-family="Helvetica,sans-Serif" font-size="10.00">Parser.cpp</text>
</a>
</g>
</g>
<!-- Node1&#45;&gt;Node3 -->
<g id="edge2_Node000001_Node000003" class="edge">
<title>Node1&#45;&gt;Node3</title>
<g id="a_edge2_Node000001_Node000003"><a xlink:title=" ">
<path fill="none" stroke="#63b8ff" d="M381.63,-63.12C345.03,-52.8 298.77,-39.76 264.2,-30.01"/>
<polygon fill="#63b8ff" stroke="#63b8ff" points="381.11,-66.61 391.68,-65.95 383.01,-59.87 381.11,-66.61"/>
</a>
</g>
</g>
<!-- Node4 -->
<g id="Node000004" class="node">
<title>Node4</title>
<g id="a_Node000004"><a xlink:href="directive__handler__table_8cpp.html" target="_top" xlink:title=" ">
<polygon fill="white" stroke="#666666" points="441,-30 298,-30 298,0 441,0 441,-30"/>
<text text-anchor="start" x="306" y="-18" font-family="Helvetica,sans-Serif" font-size="10.00">src/config/parser/directive</text>
<text text-anchor="middle" x="369.5" y="-7" font-family="Helvetica,sans-Serif" font-size="10.00">_handler_table.cpp</text>
</a>
</g>
</g>
<!-- Node1&#45;&gt;Node4 -->
<g id="edge3_Node000001_Node000004" class="edge">
<title>Node1&#45;&gt;Node4</title>
<g id="a_edge3_Node000001_Node000004"><a xlink:title=" ">
<path fill="none" stroke="#63b8ff" d="M417.79,-58.92C407.17,-49.49 394.93,-38.61 385.43,-30.16"/>
<polygon fill="#63b8ff" stroke="#63b8ff" points="415.72,-61.77 425.52,-65.8 420.37,-56.54 415.72,-61.77"/>
</a>
</g>
</g>
<!-- Node5 -->
<g id="Node000005" class="node">
<title>Node5</title>
<g id="a_Node000005"><a xlink:href="Tokenizer_8cpp.html" target="_top" xlink:title=" ">
<polygon fill="white" stroke="#666666" points="570,-30 459,-30 459,0 570,0 570,-30"/>
<text text-anchor="start" x="467" y="-18" font-family="Helvetica,sans-Serif" font-size="10.00">src/config/tokenizer</text>
<text text-anchor="middle" x="514.5" y="-7" font-family="Helvetica,sans-Serif" font-size="10.00">/Tokenizer.cpp</text>
</a>
</g>
</g>
<!-- Node1&#45;&gt;Node5 -->
<g id="edge4_Node000001_Node000005" class="edge">
<title>Node1&#45;&gt;Node5</title>
<g id="a_edge4_Node000001_Node000005"><a xlink:title=" ">
<path fill="none" stroke="#63b8ff" d="M465.22,-59.2C476.06,-49.7 488.62,-38.69 498.34,-30.16"/>
<polygon fill="#63b8ff" stroke="#63b8ff" points="462.91,-56.57 457.7,-65.8 467.53,-61.84 462.91,-56.57"/>
</a>
</g>
</g>
<!-- Node6 -->
<g id="Node000006" class="node">
<title>Node6</title>
<g id="a_Node000006"><a xlink:href="validateConfig_8cpp.html" target="_top" xlink:title=" ">
<polygon fill="white" stroke="#666666" points="745,-24.5 588,-24.5 588,-5.5 745,-5.5 745,-24.5"/>
<text text-anchor="middle" x="666.5" y="-12.5" font-family="Helvetica,sans-Serif" font-size="10.00">src/config/validateConfig.cpp</text>
</a>
</g>
</g>
<!-- Node1&#45;&gt;Node6 -->
<g id="edge5_Node000001_Node000006" class="edge">
<title>Node1&#45;&gt;Node6</title>
<g id="a_edge5_Node000001_Node000006"><a xlink:title=" ">
<path fill="none" stroke="#63b8ff" d="M500.54,-63.21C544.24,-50.78 601.97,-34.35 636.56,-24.52"/>
<polygon fill="#63b8ff" stroke="#63b8ff" points="499.54,-59.85 490.88,-65.95 501.45,-66.59 499.54,-59.85"/>
</a>
</g>
</g>
<!-- Node7 -->
<g id="Node000007" class="node">
<title>Node7</title>
<g id="a_Node000007"><a xlink:href="stringUtils_8cpp.html" target="_top" xlink:title=" ">
<polygon fill="white" stroke="#666666" points="891.5,-24.5 763.5,-24.5 763.5,-5.5 891.5,-5.5 891.5,-24.5"/>
<text text-anchor="middle" x="827.5" y="-12.5" font-family="Helvetica,sans-Serif" font-size="10.00">src/utils/stringUtils.cpp</text>
</a>
</g>
</g>
<!-- Node1&#45;&gt;Node7 -->
<g id="edge6_Node000001_Node000007" class="edge">
<title>Node1&#45;&gt;Node7</title>
<g id="a_edge6_Node000001_Node000007"><a xlink:title=" ">
<path fill="none" stroke="#63b8ff" d="M511.5,-69.45C575,-59.74 671.16,-44.65 754.5,-30 764.16,-28.3 774.52,-26.38 784.31,-24.51"/>
<polygon fill="#63b8ff" stroke="#63b8ff" points="510.95,-66 501.6,-70.97 512.01,-72.92 510.95,-66"/>
</a>
</g>
</g>
</g>
</svg>
