<?xml version="1.0" encoding="UTF-8" standalone="no"?>
<!DOCTYPE svg PUBLIC "-//W3C//DTD SVG 1.1//EN"
 "http://www.w3.org/Graphics/SVG/1.1/DTD/svg11.dtd">
<!-- Generated by graphviz version 2.43.0 (0)
 -->
<!-- Title: ConfigParser::isAtEnd Pages: 1 -->
<!--zoomable 323 -->

<svg id="main" version="1.1" xmlns="http://www.w3.org/2000/svg" xmlns:xlink="http://www.w3.org/1999/xlink" xml:space="preserve" onload="init(evt)">
<style type="text/css"><![CDATA[
.node, .edge {opacity: 0.7;}
.node.selected, .edge.selected {opacity: 1;}
.edge:hover path { stroke: red; }
.edge:hover polygon { stroke: red; fill: red; }
]]></style>

<defs>
  <circle id="rim" cx="0" cy="0" r="7"/>
  <circle id="rim2" cx="0" cy="0" r="3.5"/>
  <g id="zoomPlus">
    <use xlink:href="#rim" fill="#404040"><set attributeName="fill" to="#808080" begin="zoomplus.mouseover" end="zoomplus.mouseout"/></use>
    <path d="M-4,0h8M0,-4v8" fill="none" stroke="white" stroke-width="1.5" pointer-events="none"/>
  </g>
  <g id="zoomMin">
    <use xlink:href="#rim" fill="#404040"><set attributeName="fill" to="#808080" begin="zoomminus.mouseover" end="zoomminus.mouseout"/></use>
    <path d="M-4,0h8" fill="none" stroke="white" stroke-width="1.5" pointer-events="none"/>
  </g>
  <g id="arrowUp" transform="translate(30 24)">
    <use xlink:href="#rim"/>
    <path pointer-events="none" fill="none" stroke="white" stroke-width="1.5" d="M0,-3.0v7 M-2.5,-0.5L0,-3.0L2.5,-0.5"/>
  </g>
  <g id="arrowRight" transform="rotate(90) translate(36 -43)">
    <use xlink:href="#rim"/>
    <path pointer-events="none" fill="none" stroke="white" stroke-width="1.5" d="M0,-3.0v7 M-2.5,-0.5L0,-3.0L2.5,-0.5"/>
  </g>
  <g id="arrowDown" transform="rotate(180) translate(-30 -48)">
    <use xlink:href="#rim"/>
    <path pointer-events="none" fill="none" stroke="white" stroke-width="1.5" d="M0,-3.0v7 M-2.5,-0.5L0,-3.0L2.5,-0.5"/>
  </g>
  <g id="arrowLeft" transform="rotate(270) translate(-36 17)">
    <use xlink:href="#rim"/>
    <path pointer-events="none" fill="none" stroke="white" stroke-width="1.5" d="M0,-3.0v7 M-2.5,-0.5L0,-3.0L2.5,-0.5"/>
  </g>
  <g id="resetDef">
    <use xlink:href="#rim2" fill="#404040"><set attributeName="fill" to="#808080" begin="reset.mouseover" end="reset.mouseout"/></use>
  </g>
</defs>
<script type="application/ecmascript">
var viewWidth = 1547;
var viewHeight = 323;
var sectionId = 'dynsection-0';
</script>
<script type="application/ecmascript" xlink:href="svg.min.js"/>
<svg id="graph" class="graph">
<g id="viewport">
<title>ConfigParser::isAtEnd</title>
<!-- Node1 -->
<g id="Node000001" class="node">
<title>Node1</title>
<g id="a_Node000001"><a xlink:title="Checks if the parser has consumed all tokens or reached EOF.">
<polygon fill="#999999" stroke="#666666" points="1539,-135.67 1419,-135.67 1419,-116.67 1539,-116.67 1539,-135.67"/>
<text text-anchor="middle" x="1479" y="-123.67" font-family="Helvetica,sans-Serif" font-size="10.00">ConfigParser::isAtEnd</text>
</a>
</g>
</g>
<!-- Node2 -->
<g id="Node000002" class="node">
<title>Node2</title>
<g id="a_Node000002"><a xlink:href="group__config__parsing_ga8f4a7e75d8198a7a8ef85b8be1b1a568.html#ga8f4a7e75d8198a7a8ef85b8be1b1a568" target="_top" xlink:title="Advances to the next token and returns it.">
<polygon fill="white" stroke="#666666" points="1383,-135.67 1258,-135.67 1258,-116.67 1383,-116.67 1383,-135.67"/>
<text text-anchor="middle" x="1320.5" y="-123.67" font-family="Helvetica,sans-Serif" font-size="10.00">ConfigParser::advance</text>
</a>
</g>
</g>
<!-- Node1&#45;&gt;Node2 -->
<g id="edge1_Node000001_Node000002" class="edge">
<title>Node1&#45;&gt;Node2</title>
<g id="a_edge1_Node000001_Node000002"><a xlink:title=" ">
<path fill="none" stroke="#63b8ff" d="M1408.58,-126.17C1400.09,-126.17 1391.46,-126.17 1383.09,-126.17"/>
<polygon fill="#63b8ff" stroke="#63b8ff" points="1408.83,-129.67 1418.83,-126.17 1408.83,-122.67 1408.83,-129.67"/>
</a>
</g>
</g>
<!-- Node3 -->
<g id="Node000003" class="node">
<title>Node3</title>
<g id="a_Node000003"><a xlink:href="group__config__parsing_ga582320b084ecf84703cb959d07696095.html#ga582320b084ecf84703cb959d07696095" target="_top" xlink:title="Collects a list of argument values following a directive.">
<polygon fill="white" stroke="#666666" points="1217,-58.67 1080,-58.67 1080,-39.67 1217,-39.67 1217,-58.67"/>
<text text-anchor="middle" x="1148.5" y="-46.67" font-family="Helvetica,sans-Serif" font-size="10.00">ConfigParser::collectArgs</text>
</a>
</g>
</g>
<!-- Node1&#45;&gt;Node3 -->
<g id="edge16_Node000001_Node000003" class="edge">
<title>Node1&#45;&gt;Node3</title>
<g id="a_edge16_Node000001_Node000003"><a xlink:title=" ">
<path fill="none" stroke="#63b8ff" d="M1427.35,-114.29C1362.18,-99.02 1250.25,-72.78 1190.27,-58.72"/>
<polygon fill="#63b8ff" stroke="#63b8ff" points="1426.86,-117.77 1437.39,-116.65 1428.45,-110.96 1426.86,-117.77"/>
</a>
</g>
</g>
<!-- Node5 -->
<g id="Node000005" class="node">
<title>Node5</title>
<g id="a_Node000005"><a xlink:href="classConfigParser_ab14af2f633e98e6182e1fce25c74f9e9.html#ab14af2f633e98e6182e1fce25c74f9e9" target="_top" xlink:title="Parses a single location block inside a server block.">
<polygon fill="white" stroke="#666666" points="851,-150.67 699,-150.67 699,-131.67 851,-131.67 851,-150.67"/>
<text text-anchor="middle" x="775" y="-138.67" font-family="Helvetica,sans-Serif" font-size="10.00">ConfigParser::parseLocation</text>
</a>
</g>
</g>
<!-- Node1&#45;&gt;Node5 -->
<g id="edge25_Node000001_Node000005" class="edge">
<title>Node1&#45;&gt;Node5</title>
<g id="a_edge25_Node000001_Node000005"><a xlink:title=" ">
<path fill="none" stroke="#63b8ff" d="M1449.99,-140.19C1403.85,-162.43 1308.39,-204.81 1222,-220.17 1059.41,-249.07 863.45,-177.39 798.28,-150.7"/>
<polygon fill="#63b8ff" stroke="#63b8ff" points="1451.6,-143.3 1459.06,-135.77 1448.54,-137.01 1451.6,-143.3"/>
</a>
</g>
</g>
<!-- Node6 -->
<g id="Node000006" class="node">
<title>Node6</title>
<g id="a_Node000006"><a xlink:href="classConfigParser_aec05768b15f77f3908738fba4237d2a8.html#aec05768b15f77f3908738fba4237d2a8" target="_top" xlink:title="Parses a single server block into a Server object.">
<polygon fill="white" stroke="#666666" points="663,-150.67 521,-150.67 521,-131.67 663,-131.67 663,-150.67"/>
<text text-anchor="middle" x="592" y="-138.67" font-family="Helvetica,sans-Serif" font-size="10.00">ConfigParser::parseServer</text>
</a>
</g>
</g>
<!-- Node1&#45;&gt;Node6 -->
<g id="edge26_Node000001_Node000006" class="edge">
<title>Node1&#45;&gt;Node6</title>
<g id="a_edge26_Node000001_Node000006"><a xlink:title=" ">
<path fill="none" stroke="#63b8ff" d="M1461.68,-143.26C1443.86,-161.03 1413.75,-188.51 1383,-205.17 1287.51,-256.89 1258.1,-277.17 1149.5,-277.17 1149.5,-277.17 1149.5,-277.17 962,-277.17 815.55,-277.17 655.46,-181.68 607.4,-150.73"/>
<polygon fill="#63b8ff" stroke="#63b8ff" points="1464.44,-145.45 1468.96,-135.86 1459.45,-140.54 1464.44,-145.45"/>
</a>
</g>
</g>
<!-- Node7 -->
<g id="Node000007" class="node">
<title>Node7</title>
<g id="a_Node000007"><a xlink:href="classConfigParser_a3b983e072038482de7698c091f5c8a99.html#a3b983e072038482de7698c091f5c8a99" target="_top" xlink:title="Parses the full configuration input into a Config object.">
<polygon fill="white" stroke="#666666" points="485,-247.67 344,-247.67 344,-228.67 485,-228.67 485,-247.67"/>
<text text-anchor="middle" x="414.5" y="-235.67" font-family="Helvetica,sans-Serif" font-size="10.00">ConfigParser::parseConfig</text>
</a>
</g>
</g>
<!-- Node1&#45;&gt;Node7 -->
<g id="edge24_Node000001_Node000007" class="edge">
<title>Node1&#45;&gt;Node7</title>
<g id="a_edge24_Node000001_Node000007"><a xlink:title=" ">
<path fill="none" stroke="#63b8ff" d="M1468.44,-144.88C1453.74,-171.78 1423.04,-221.11 1383,-248.17 1293.55,-308.62 1257.47,-315.17 1149.5,-315.17 1149.5,-315.17 1149.5,-315.17 774,-315.17 647,-315.17 500.22,-268.4 441.62,-247.76"/>
<polygon fill="#63b8ff" stroke="#63b8ff" points="1471.68,-146.24 1473.28,-135.76 1465.5,-142.96 1471.68,-146.24"/>
</a>
</g>
</g>
<!-- Node13 -->
<g id="Node000013" class="node">
<title>Node13</title>
<g id="a_Node000013"><a xlink:href="group__config__parsing_ga0cf6ea001cf16a993d10cbd8b5701248.html#ga0cf6ea001cf16a993d10cbd8b5701248" target="_top" xlink:title="Ensures that the current token matches a specific expected type.">
<polygon fill="white" stroke="#666666" points="1206.5,-21.67 1090.5,-21.67 1090.5,-2.67 1206.5,-2.67 1206.5,-21.67"/>
<text text-anchor="middle" x="1148.5" y="-9.67" font-family="Helvetica,sans-Serif" font-size="10.00">ConfigParser::expect</text>
</a>
</g>
</g>
<!-- Node1&#45;&gt;Node13 -->
<g id="edge17_Node000001_Node000013" class="edge">
<title>Node1&#45;&gt;Node13</title>
<g id="a_edge17_Node000001_Node000013"><a xlink:title=" ">
<path fill="none" stroke="#63b8ff" d="M1466.11,-108.08C1450.18,-85.6 1419.65,-48.12 1383,-31.17 1327.08,-5.29 1255.57,-3.39 1206.5,-6.15"/>
<polygon fill="#63b8ff" stroke="#63b8ff" points="1463.29,-110.16 1471.83,-116.43 1469.06,-106.2 1463.29,-110.16"/>
</a>
</g>
</g>
<!-- Node14 -->
<g id="Node000014" class="node">
<title>Node14</title>
<g id="a_Node000014"><a xlink:href="group__config__parsing_gaabb998b9be6418778d65863c296ff9d2.html#gaabb998b9be6418778d65863c296ff9d2" target="_top" xlink:title="Consumes the current token if its type matches.">
<polygon fill="white" stroke="#666666" points="1377.5,-59.67 1263.5,-59.67 1263.5,-40.67 1377.5,-40.67 1377.5,-59.67"/>
<text text-anchor="middle" x="1320.5" y="-47.67" font-family="Helvetica,sans-Serif" font-size="10.00">ConfigParser::match</text>
</a>
</g>
</g>
<!-- Node1&#45;&gt;Node14 -->
<g id="edge22_Node000001_Node000014" class="edge">
<title>Node1&#45;&gt;Node14</title>
<g id="a_edge22_Node000001_Node000014"><a xlink:title=" ">
<path fill="none" stroke="#63b8ff" d="M1453,-111.33C1434.1,-100.4 1407.34,-85.52 1383,-74.17 1371.78,-68.93 1359.08,-63.84 1348.15,-59.71"/>
<polygon fill="#63b8ff" stroke="#63b8ff" points="1451.45,-114.48 1461.86,-116.49 1454.98,-108.43 1451.45,-114.48"/>
</a>
</g>
</g>
<!-- Node2&#45;&gt;Node3 -->
<g id="edge2_Node000002_Node000003" class="edge">
<title>Node2&#45;&gt;Node3</title>
<g id="a_edge2_Node000002_Node000003"><a xlink:title=" ">
<path fill="none" stroke="#63b8ff" d="M1280.15,-112.88C1272.6,-109.76 1264.9,-106.16 1258,-102.17 1240.22,-91.87 1240.04,-83 1222,-73.17 1211.06,-67.2 1198.37,-62.38 1186.71,-58.67"/>
<polygon fill="#63b8ff" stroke="#63b8ff" points="1278.97,-116.18 1289.56,-116.57 1281.53,-109.66 1278.97,-116.18"/>
</a>
</g>
</g>
<!-- Node4 -->
<g id="Node000004" class="node">
<title>Node4</title>
<g id="a_Node000004"><a xlink:href="classConfigParser_ad27019103306be3877608677c5615a61.html#ad27019103306be3877608677c5615a61" target="_top" xlink:title="Parses a single directive inside a location block.">
<polygon fill="white" stroke="#666666" points="1039,-135.17 887,-135.17 887,-105.17 1039,-105.17 1039,-135.17"/>
<text text-anchor="start" x="895" y="-123.17" font-family="Helvetica,sans-Serif" font-size="10.00">ConfigParser::parseLocation</text>
<text text-anchor="middle" x="963" y="-112.17" font-family="Helvetica,sans-Serif" font-size="10.00">Directive</text>
</a>
</g>
</g>
<!-- Node2&#45;&gt;Node4 -->
<g id="edge14_Node000002_Node000004" class="edge">
<title>Node2&#45;&gt;Node4</title>
<g id="a_edge14_Node000002_Node000004"><a xlink:title=" ">
<path fill="none" stroke="#63b8ff" d="M1247.74,-124.95C1187.19,-123.93 1100.79,-122.47 1039.26,-121.44"/>
<polygon fill="#63b8ff" stroke="#63b8ff" points="1247.92,-128.46 1257.98,-125.13 1248.04,-121.46 1247.92,-128.46"/>
</a>
</g>
</g>
<!-- Node2&#45;&gt;Node5 -->
<g id="edge13_Node000002_Node000005" class="edge">
<title>Node2&#45;&gt;Node5</title>
<g id="a_edge13_Node000002_Node000005"><a xlink:title=" ">
<path fill="none" stroke="#63b8ff" d="M1247.8,-134.87C1239.12,-135.74 1230.36,-136.53 1222,-137.17 1073.5,-148.37 1035.91,-146.18 887,-144.17 875.43,-144.01 863.19,-143.76 851.23,-143.47"/>
<polygon fill="#63b8ff" stroke="#63b8ff" points="1248.35,-138.33 1257.93,-133.81 1247.62,-131.37 1248.35,-138.33"/>
</a>
</g>
</g>
<!-- Node11 -->
<g id="Node000011" class="node">
<title>Node11</title>
<g id="a_Node000011"><a xlink:href="classConfigParser_a65dee8490851a65fb3d80ab1677c4a5d.html#a65dee8490851a65fb3d80ab1677c4a5d" target="_top" xlink:title="Parses and applies a single directive inside a server block.">
<polygon fill="white" stroke="#666666" points="1034,-87.17 892,-87.17 892,-57.17 1034,-57.17 1034,-87.17"/>
<text text-anchor="start" x="900" y="-75.17" font-family="Helvetica,sans-Serif" font-size="10.00">ConfigParser::parseServer</text>
<text text-anchor="middle" x="963" y="-64.17" font-family="Helvetica,sans-Serif" font-size="10.00">Directive</text>
</a>
</g>
</g>
<!-- Node2&#45;&gt;Node11 -->
<g id="edge15_Node000002_Node000011" class="edge">
<title>Node2&#45;&gt;Node11</title>
<g id="a_edge15_Node000002_Node000011"><a xlink:title=" ">
<path fill="none" stroke="#63b8ff" d="M1247.85,-115.28C1185.62,-105.83 1096.01,-92.22 1034.21,-82.83"/>
<polygon fill="#63b8ff" stroke="#63b8ff" points="1247.57,-118.78 1257.98,-116.82 1248.62,-111.86 1247.57,-118.78"/>
</a>
</g>
</g>
<!-- Node12 -->
<g id="Node000012" class="node">
<title>Node12</title>
<g id="a_Node000012"><a xlink:href="group__config__parsing_ga48ee49c90c0dfe42b85c008e31aa81d2.html#ga48ee49c90c0dfe42b85c008e31aa81d2" target="_top" xlink:title="Ensures the current token matches one of several expected types.">
<polygon fill="white" stroke="#666666" points="1222,-210.67 1075,-210.67 1075,-191.67 1222,-191.67 1222,-210.67"/>
<text text-anchor="middle" x="1148.5" y="-198.67" font-family="Helvetica,sans-Serif" font-size="10.00">ConfigParser::expectOneOf</text>
</a>
</g>
</g>
<!-- Node2&#45;&gt;Node12 -->
<g id="edge12_Node000002_Node000012" class="edge">
<title>Node2&#45;&gt;Node12</title>
<g id="a_edge12_Node000002_Node000012"><a xlink:title=" ">
<path fill="none" stroke="#63b8ff" d="M1294.19,-140.86C1274.83,-151.74 1247.24,-166.47 1222,-177.17 1209.18,-182.6 1194.68,-187.61 1182.04,-191.63"/>
<polygon fill="#63b8ff" stroke="#63b8ff" points="1296.02,-143.84 1302.99,-135.86 1292.57,-137.75 1296.02,-143.84"/>
</a>
</g>
</g>
<!-- Node3&#45;&gt;Node4 -->
<g id="edge3_Node000003_Node000004" class="edge">
<title>Node3&#45;&gt;Node4</title>
<g id="a_edge3_Node000003_Node000004"><a xlink:title=" ">
<path fill="none" stroke="#63b8ff" d="M1117.65,-63.05C1096.04,-72.86 1066,-86.03 1039,-96.17 1030.81,-99.24 1022.03,-102.28 1013.46,-105.11"/>
<polygon fill="#63b8ff" stroke="#63b8ff" points="1119.31,-66.14 1126.95,-58.79 1116.4,-59.77 1119.31,-66.14"/>
</a>
</g>
</g>
<!-- Node3&#45;&gt;Node11 -->
<g id="edge10_Node000003_Node000011" class="edge">
<title>Node3&#45;&gt;Node11</title>
<g id="a_edge10_Node000003_Node000011"><a xlink:title=" ">
<path fill="none" stroke="#63b8ff" d="M1069.69,-58.92C1057.9,-60.4 1045.79,-61.91 1034.17,-63.37"/>
<polygon fill="#63b8ff" stroke="#63b8ff" points="1070.47,-62.35 1079.95,-57.63 1069.6,-55.4 1070.47,-62.35"/>
</a>
</g>
</g>
<!-- Node4&#45;&gt;Node5 -->
<g id="edge4_Node000004_Node000005" class="edge">
<title>Node4&#45;&gt;Node5</title>
<g id="a_edge4_Node000004_Node000005"><a xlink:title=" ">
<path fill="none" stroke="#63b8ff" d="M876.85,-129.78C868.26,-130.75 859.57,-131.73 851.1,-132.69"/>
<polygon fill="#63b8ff" stroke="#63b8ff" points="877.34,-133.25 886.88,-128.65 876.55,-126.29 877.34,-133.25"/>
</a>
</g>
</g>
<!-- Node5&#45;&gt;Node6 -->
<g id="edge5_Node000005_Node000006" class="edge">
<title>Node5&#45;&gt;Node6</title>
<g id="a_edge5_Node000005_Node000006"><a xlink:title=" ">
<path fill="none" stroke="#63b8ff" d="M688.75,-141.17C680.13,-141.17 671.45,-141.17 663.03,-141.17"/>
<polygon fill="#63b8ff" stroke="#63b8ff" points="688.81,-144.67 698.81,-141.17 688.81,-137.67 688.81,-144.67"/>
</a>
</g>
</g>
<!-- Node6&#45;&gt;Node7 -->
<g id="edge6_Node000006_Node000007" class="edge">
<title>Node6&#45;&gt;Node7</title>
<g id="a_edge6_Node000006_Node000007"><a xlink:title=" ">
<path fill="none" stroke="#63b8ff" d="M564.49,-155.82C528.12,-175.92 463.73,-211.51 432.9,-228.55"/>
<polygon fill="#63b8ff" stroke="#63b8ff" points="566.47,-158.72 573.53,-150.82 563.09,-152.59 566.47,-158.72"/>
</a>
</g>
</g>
<!-- Node8 -->
<g id="Node000008" class="node">
<title>Node8</title>
<g id="a_Node000008"><a xlink:href="namespacebootstrap_a6788c3d01506cbf268f74a60be16385c.html#a6788c3d01506cbf268f74a60be16385c" target="_top" xlink:title="Parses a configuration string into a Config object.">
<polygon fill="white" stroke="#666666" points="308,-247.67 187,-247.67 187,-228.67 308,-228.67 308,-247.67"/>
<text text-anchor="middle" x="247.5" y="-235.67" font-family="Helvetica,sans-Serif" font-size="10.00">bootstrap::loadConfig</text>
</a>
</g>
</g>
<!-- Node7&#45;&gt;Node8 -->
<g id="edge7_Node000007_Node000008" class="edge">
<title>Node7&#45;&gt;Node8</title>
<g id="a_edge7_Node000007_Node000008"><a xlink:title=" ">
<path fill="none" stroke="#63b8ff" d="M333.26,-238.17C324.8,-238.17 316.32,-238.17 308.16,-238.17"/>
<polygon fill="#63b8ff" stroke="#63b8ff" points="333.53,-241.67 343.53,-238.17 333.53,-234.67 333.53,-241.67"/>
</a>
</g>
</g>
<!-- Node9 -->
<g id="Node000009" class="node">
<title>Node9</title>
<g id="a_Node000009"><a xlink:href="group__entrypoint_ga6e58dbe6eab2d4b12d65b7b0e7297be8.html#ga6e58dbe6eab2d4b12d65b7b0e7297be8" target="_top" xlink:title="Runs the Webserv server.">
<polygon fill="white" stroke="#666666" points="151,-247.67 77,-247.67 77,-228.67 151,-228.67 151,-247.67"/>
<text text-anchor="middle" x="114" y="-235.67" font-family="Helvetica,sans-Serif" font-size="10.00">runWebserv</text>
</a>
</g>
</g>
<!-- Node8&#45;&gt;Node9 -->
<g id="edge8_Node000008_Node000009" class="edge">
<title>Node8&#45;&gt;Node9</title>
<g id="a_edge8_Node000008_Node000009"><a xlink:title=" ">
<path fill="none" stroke="#63b8ff" d="M176.84,-238.17C167.93,-238.17 159.12,-238.17 151.06,-238.17"/>
<polygon fill="#63b8ff" stroke="#63b8ff" points="176.91,-241.67 186.91,-238.17 176.91,-234.67 176.91,-241.67"/>
</a>
</g>
</g>
<!-- Node10 -->
<g id="Node000010" class="node">
<title>Node10</title>
<g id="a_Node000010"><a xlink:href="group__entrypoint_ga3c04138a5bfe5d72780bb7e82a18e627.html#ga3c04138a5bfe5d72780bb7e82a18e627" target="_top" xlink:title="Program entry point.">
<polygon fill="white" stroke="#666666" points="41,-247.67 0,-247.67 0,-228.67 41,-228.67 41,-247.67"/>
<text text-anchor="middle" x="20.5" y="-235.67" font-family="Helvetica,sans-Serif" font-size="10.00">main</text>
</a>
</g>
</g>
<!-- Node9&#45;&gt;Node10 -->
<g id="edge9_Node000009_Node000010" class="edge">
<title>Node9&#45;&gt;Node10</title>
<g id="a_edge9_Node000009_Node000010"><a xlink:title=" ">
<path fill="none" stroke="#63b8ff" d="M66.7,-238.17C57.67,-238.17 48.66,-238.17 41.09,-238.17"/>
<polygon fill="#63b8ff" stroke="#63b8ff" points="66.84,-241.67 76.84,-238.17 66.84,-234.67 66.84,-241.67"/>
</a>
</g>
</g>
<!-- Node11&#45;&gt;Node6 -->
<g id="edge11_Node000011_Node000006" class="edge">
<title>Node11&#45;&gt;Node6</title>
<g id="a_edge11_Node000011_Node000006"><a xlink:title=" ">
<path fill="none" stroke="#63b8ff" d="M881.75,-87.17C809.5,-100.68 705.5,-120.13 644.03,-131.62"/>
<polygon fill="#63b8ff" stroke="#63b8ff" points="882.54,-90.58 891.73,-85.31 881.25,-83.7 882.54,-90.58"/>
</a>
</g>
</g>
<!-- Node13&#45;&gt;Node4 -->
<g id="edge19_Node000013_Node000004" class="edge">
<title>Node13&#45;&gt;Node4</title>
<g id="a_edge19_Node000013_Node000004"><a xlink:title=" ">
<path fill="none" stroke="#63b8ff" d="M1081.39,-25.87C1079.16,-27.18 1077.02,-28.61 1075,-30.17 1048.55,-50.58 1064.76,-74.88 1039,-96.17 1034.89,-99.56 1030.29,-102.48 1025.45,-104.99"/>
<polygon fill="#63b8ff" stroke="#63b8ff" points="1082.95,-29.01 1090.35,-21.42 1079.83,-22.74 1082.95,-29.01"/>
</a>
</g>
</g>
<!-- Node13&#45;&gt;Node5 -->
<g id="edge18_Node000013_Node000005" class="edge">
<title>Node13&#45;&gt;Node5</title>
<g id="a_edge18_Node000013_Node000005"><a xlink:title=" ">
<path fill="none" stroke="#63b8ff" d="M1080.21,-11.37C1025.9,-13.05 948.66,-20.83 887,-48.17 841.95,-68.14 800.82,-112.04 784.01,-131.53"/>
<polygon fill="#63b8ff" stroke="#63b8ff" points="1080.51,-14.86 1090.42,-11.11 1080.33,-7.86 1080.51,-14.86"/>
</a>
</g>
</g>
<!-- Node13&#45;&gt;Node6 -->
<g id="edge20_Node000013_Node000006" class="edge">
<title>Node13&#45;&gt;Node6</title>
<g id="a_edge20_Node000013_Node000006"><a xlink:title=" ">
<path fill="none" stroke="#63b8ff" d="M1080.47,-4.07C1027.42,0.52 951.74,3.04 887,-10.17 773.11,-33.39 650.21,-105.35 608.12,-131.53"/>
<polygon fill="#63b8ff" stroke="#63b8ff" points="1080.16,-7.56 1090.44,-4.99 1080.8,-0.59 1080.16,-7.56"/>
</a>
</g>
</g>
<!-- Node13&#45;&gt;Node11 -->
<g id="edge21_Node000013_Node000011" class="edge">
<title>Node13&#45;&gt;Node11</title>
<g id="a_edge21_Node000013_Node000011"><a xlink:title=" ">
<path fill="none" stroke="#63b8ff" d="M1095.44,-24.3C1088.53,-26.14 1081.57,-28.11 1075,-30.17 1067.75,-32.43 1032,-46.03 1003.01,-57.15"/>
<polygon fill="#63b8ff" stroke="#63b8ff" points="1096.67,-27.6 1105.48,-21.7 1094.92,-20.82 1096.67,-27.6"/>
</a>
</g>
</g>
<!-- Node14&#45;&gt;Node3 -->
<g id="edge23_Node000014_Node000003" class="edge">
<title>Node14&#45;&gt;Node3</title>
<g id="a_edge23_Node000014_Node000003"><a xlink:title=" ">
<path fill="none" stroke="#63b8ff" d="M1253.13,-49.77C1241.3,-49.71 1228.97,-49.63 1217.11,-49.56"/>
<polygon fill="#63b8ff" stroke="#63b8ff" points="1253.34,-53.28 1263.36,-49.84 1253.39,-46.28 1253.34,-53.28"/>
</a>
</g>
</g>
</g>
</svg>

<g id="navigator" transform="translate(0 0)" fill="#404254">
  <rect fill="#f2f5e9" fill-opacity="0.5" stroke="#606060" stroke-width=".5" x="0" y="0" width="60" height="60"/>
  <use id="zoomplus" xlink:href="#zoomPlus" x="17" y="9" onmousedown="handleZoom(evt,'in')"/>
  <use id="zoomminus" xlink:href="#zoomMin" x="42" y="9" onmousedown="handleZoom(evt,'out')"/>
  <use id="reset" xlink:href="#resetDef" x="30" y="36" onmousedown="handleReset()"/>
   <use id="arrowup" xlink:href="#arrowUp" x="0" y="0" onmousedown="handlePan(0,-1)"/>
  <use id="arrowright" xlink:href="#arrowRight" x="0" y="0" onmousedown="handlePan(1,0)"/>
  <use id="arrowdown" xlink:href="#arrowDown" x="0" y="0" onmousedown="handlePan(0,1)"/>
  <use id="arrowleft" xlink:href="#arrowLeft" x="0" y="0" onmousedown="handlePan(-1,0)"/>
</g>
<svg viewBox="0 0 15 15" width="100%" height="30px" preserveAspectRatio="xMaxYMin meet">
 <g id="arrow_out" transform="scale(0.3 0.3)">
  <a xlink:href="group__config__parsing_ga0b3bdb05f58538d594227abbc64200fc_ga0b3bdb05f58538d594227abbc64200fc_icgraph_org.svg" target="_base">
   <rect id="button" ry="5" rx="5" y="6" x="6" height="38" width="38"
        fill="#f2f5e9" fill-opacity="0.5" stroke="#606060" stroke-width="1.0"/>
   <path id="arrow"
     d="M 11.500037,31.436501 C 11.940474,20.09759 22.043105,11.32322 32.158766,21.979434 L 37.068811,17.246167 C 37.068811,17.246167 37.088388,32 37.088388,32 L 22.160133,31.978069 C 22.160133,31.978069 26.997745,27.140456 26.997745,27.140456 C 18.528582,18.264221 13.291696,25.230495 11.500037,31.436501 z"
     style="fill:#404040;"/>
  </a>
 </g>
</svg>

<style type='text/css'>
<![CDATA[
[data-mouse-over-selected='false'] { opacity: 0.7; }
[data-mouse-over-selected='true']  { opacity: 1.0; }
]]>
</style>
<script type="application/ecmascript"><![CDATA[
document.addEventListener('DOMContentLoaded', (event) => {
  highlightEdges();
  highlightAdjacentNodes();
});
]]></script>
</svg>
