<?xml version="1.0" encoding="UTF-8" standalone="no"?>
<!DOCTYPE svg PUBLIC "-//W3C//DTD SVG 1.1//EN"
 "http://www.w3.org/Graphics/SVG/1.1/DTD/svg11.dtd">
<!-- Generated by graphviz version 2.43.0 (0)
 -->
<!-- Title: HttpRequest::getVersion Pages: 1 -->
<!--zoomable 165 -->

<svg id="main" version="1.1" xmlns="http://www.w3.org/2000/svg" xmlns:xlink="http://www.w3.org/1999/xlink" xml:space="preserve" onload="init(evt)">
<style type="text/css"><![CDATA[
.node, .edge {opacity: 0.7;}
.node.selected, .edge.selected {opacity: 1;}
.edge:hover path { stroke: red; }
.edge:hover polygon { stroke: red; fill: red; }
]]></style>

<defs>
  <circle id="rim" cx="0" cy="0" r="7"/>
  <circle id="rim2" cx="0" cy="0" r="3.5"/>
  <g id="zoomPlus">
    <use xlink:href="#rim" fill="#404040"><set attributeName="fill" to="#808080" begin="zoomplus.mouseover" end="zoomplus.mouseout"/></use>
    <path d="M-4,0h8M0,-4v8" fill="none" stroke="white" stroke-width="1.5" pointer-events="none"/>
  </g>
  <g id="zoomMin">
    <use xlink:href="#rim" fill="#404040"><set attributeName="fill" to="#808080" begin="zoomminus.mouseover" end="zoomminus.mouseout"/></use>
    <path d="M-4,0h8" fill="none" stroke="white" stroke-width="1.5" pointer-events="none"/>
  </g>
  <g id="arrowUp" transform="translate(30 24)">
    <use xlink:href="#rim"/>
    <path pointer-events="none" fill="none" stroke="white" stroke-width="1.5" d="M0,-3.0v7 M-2.5,-0.5L0,-3.0L2.5,-0.5"/>
  </g>
  <g id="arrowRight" transform="rotate(90) translate(36 -43)">
    <use xlink:href="#rim"/>
    <path pointer-events="none" fill="none" stroke="white" stroke-width="1.5" d="M0,-3.0v7 M-2.5,-0.5L0,-3.0L2.5,-0.5"/>
  </g>
  <g id="arrowDown" transform="rotate(180) translate(-30 -48)">
    <use xlink:href="#rim"/>
    <path pointer-events="none" fill="none" stroke="white" stroke-width="1.5" d="M0,-3.0v7 M-2.5,-0.5L0,-3.0L2.5,-0.5"/>
  </g>
  <g id="arrowLeft" transform="rotate(270) translate(-36 17)">
    <use xlink:href="#rim"/>
    <path pointer-events="none" fill="none" stroke="white" stroke-width="1.5" d="M0,-3.0v7 M-2.5,-0.5L0,-3.0L2.5,-0.5"/>
  </g>
  <g id="resetDef">
    <use xlink:href="#rim2" fill="#404040"><set attributeName="fill" to="#808080" begin="reset.mouseover" end="reset.mouseout"/></use>
  </g>
</defs>
<script type="application/ecmascript">
var viewWidth = 1388;
var viewHeight = 165;
var sectionId = 'dynsection-0';
</script>
<script type="application/ecmascript" xlink:href="svg.min.js"/>
<svg id="graph" class="graph">
<g id="viewport">
<title>HttpRequest::getVersion</title>
<!-- Node1 -->
<g id="Node000001" class="node">
<title>Node1</title>
<g id="a_Node000001"><a xlink:title="Returns the HTTP version string (e.g. &quot;HTTP/1.1&quot;).">
<polygon fill="#999999" stroke="#666666" points="1380,-97 1245,-97 1245,-78 1380,-78 1380,-97"/>
<text text-anchor="middle" x="1312.5" y="-85" font-family="Helvetica,sans-Serif" font-size="10.00">HttpRequest::getVersion</text>
</a>
</g>
</g>
<!-- Node2 -->
<g id="Node000002" class="node">
<title>Node2</title>
<g id="a_Node000002"><a xlink:href="group__http_ga5ccd9d142df9f83e5a80945c55d6bb1f.html#ga5ccd9d142df9f83e5a80945c55d6bb1f" target="_top" xlink:title="Initializes a new HTTP response with status and connection metadata.">
<polygon fill="white" stroke="#666666" points="1196,-157 1061,-157 1061,-116 1196,-116 1196,-157"/>
<text text-anchor="start" x="1069" y="-145" font-family="Helvetica,sans-Serif" font-size="10.00">anonymous_namespace</text>
<text text-anchor="start" x="1069" y="-134" font-family="Helvetica,sans-Serif" font-size="10.00">{responseBuilder::cpp}</text>
<text text-anchor="middle" x="1128.5" y="-123" font-family="Helvetica,sans-Serif" font-size="10.00">::initializeResponse</text>
</a>
</g>
</g>
<!-- Node1&#45;&gt;Node2 -->
<g id="edge1_Node000001_Node000002" class="edge">
<title>Node1&#45;&gt;Node2</title>
<g id="a_edge1_Node000001_Node000002"><a xlink:title=" ">
<path fill="none" stroke="#63b8ff" d="M1266.3,-99.67C1245.16,-105.36 1219.56,-112.25 1196.25,-118.53"/>
<polygon fill="#63b8ff" stroke="#63b8ff" points="1267.23,-103.04 1275.98,-97.06 1265.41,-96.28 1267.23,-103.04"/>
</a>
</g>
</g>
<!-- Node3 -->
<g id="Node000003" class="node">
<title>Node3</title>
<g id="a_Node000003"><a xlink:href="group__http_ga6d14784d1293d04a8e000c27ad72426e.html#ga6d14784d1293d04a8e000c27ad72426e" target="_top" xlink:title="Parses and validates the request line and headers of an HTTP request.">
<polygon fill="white" stroke="#666666" points="1012,-63 914,-63 914,-44 1012,-44 1012,-63"/>
<text text-anchor="middle" x="963" y="-51" font-family="Helvetica,sans-Serif" font-size="10.00">parseReqHeader</text>
</a>
</g>
</g>
<!-- Node1&#45;&gt;Node3 -->
<g id="edge2_Node000001_Node000003" class="edge">
<title>Node1&#45;&gt;Node3</title>
<g id="a_edge2_Node000001_Node000003"><a xlink:title=" ">
<path fill="none" stroke="#63b8ff" d="M1234.71,-84.09C1182.03,-81.23 1110.61,-76.33 1048,-68.5 1036.39,-67.05 1023.94,-65.06 1012.28,-63.01"/>
<polygon fill="#63b8ff" stroke="#63b8ff" points="1234.81,-87.6 1244.98,-84.63 1235.18,-80.61 1234.81,-87.6"/>
</a>
</g>
</g>
<!-- Node10 -->
<g id="Node000010" class="node">
<title>Node10</title>
<g id="a_Node000010"><a xlink:href="namespaceanonymous__namespace_02HttpRequestParser_8cpp_03_ad602d37f8ea421c311eca6356fa2b643.html#ad602d37f8ea421c311eca6356fa2b643" target="_top" xlink:title="Parses a full URL string into its components (HTTP/1.1 version).">
<polygon fill="white" stroke="#666666" points="1209,-41 1048,-41 1048,0 1209,0 1209,-41"/>
<text text-anchor="start" x="1056" y="-29" font-family="Helvetica,sans-Serif" font-size="10.00">anonymous_namespace</text>
<text text-anchor="start" x="1056" y="-18" font-family="Helvetica,sans-Serif" font-size="10.00">{HttpRequestParser::</text>
<text text-anchor="middle" x="1128.5" y="-7" font-family="Helvetica,sans-Serif" font-size="10.00">cpp}::parseUrlHttpVersion1_1</text>
</a>
</g>
</g>
<!-- Node1&#45;&gt;Node10 -->
<g id="edge9_Node000001_Node000010" class="edge">
<title>Node1&#45;&gt;Node10</title>
<g id="a_edge9_Node000001_Node000010"><a xlink:title=" ">
<path fill="none" stroke="#63b8ff" d="M1275.73,-74.33C1250.05,-64.88 1214.93,-51.95 1185.54,-41.13"/>
<polygon fill="#63b8ff" stroke="#63b8ff" points="1274.83,-77.73 1285.42,-77.9 1277.25,-71.16 1274.83,-77.73"/>
</a>
</g>
</g>
<!-- Node4 -->
<g id="Node000004" class="node">
<title>Node4</title>
<g id="a_Node000004"><a xlink:href="group__http_ga7f2ad87f24b3a0059cc3aa217be1f2af.html#ga7f2ad87f24b3a0059cc3aa217be1f2af" target="_top" xlink:title="Parses a raw HTTP request buffer into an HttpRequest object.">
<polygon fill="white" stroke="#666666" points="878,-68.5 765,-68.5 765,-38.5 878,-38.5 878,-68.5"/>
<text text-anchor="start" x="773" y="-56.5" font-family="Helvetica,sans-Serif" font-size="10.00">HttpRequestParser::</text>
<text text-anchor="middle" x="821.5" y="-45.5" font-family="Helvetica,sans-Serif" font-size="10.00">parse</text>
</a>
</g>
</g>
<!-- Node3&#45;&gt;Node4 -->
<g id="edge3_Node000003_Node000004" class="edge">
<title>Node3&#45;&gt;Node4</title>
<g id="a_edge3_Node000003_Node000004"><a xlink:title=" ">
<path fill="none" stroke="#63b8ff" d="M903.83,-53.5C895.37,-53.5 886.68,-53.5 878.28,-53.5"/>
<polygon fill="#63b8ff" stroke="#63b8ff" points="903.99,-57 913.99,-53.5 903.99,-50 903.99,-57"/>
</a>
</g>
</g>
<!-- Node5 -->
<g id="Node000005" class="node">
<title>Node5</title>
<g id="a_Node000005"><a xlink:href="classSocketManager_a7a715e7548319f0e572a5fc3b050d5ed.html#a7a715e7548319f0e572a5fc3b050d5ed" target="_top" xlink:title="Parses buffered client data into HTTP requests and queues them.">
<polygon fill="white" stroke="#666666" points="729,-68.5 554,-68.5 554,-38.5 729,-38.5 729,-68.5"/>
<text text-anchor="start" x="562" y="-56.5" font-family="Helvetica,sans-Serif" font-size="10.00">SocketManager::parseAndQueue</text>
<text text-anchor="middle" x="641.5" y="-45.5" font-family="Helvetica,sans-Serif" font-size="10.00">Requests</text>
</a>
</g>
</g>
<!-- Node4&#45;&gt;Node5 -->
<g id="edge4_Node000004_Node000005" class="edge">
<title>Node4&#45;&gt;Node5</title>
<g id="a_edge4_Node000004_Node000005"><a xlink:title=" ">
<path fill="none" stroke="#63b8ff" d="M754.67,-53.5C746.33,-53.5 737.7,-53.5 729.11,-53.5"/>
<polygon fill="#63b8ff" stroke="#63b8ff" points="754.67,-57 764.67,-53.5 754.67,-50 754.67,-57"/>
</a>
</g>
</g>
<!-- Node6 -->
<g id="Node000006" class="node">
<title>Node6</title>
<g id="a_Node000006"><a xlink:href="classSocketManager_aabb964db3a12fa5d3668646c4ed80b25.html#aabb964db3a12fa5d3668646c4ed80b25" target="_top" xlink:title="Processes incoming data for a client connection.">
<polygon fill="white" stroke="#666666" points="518,-63 336,-63 336,-44 518,-44 518,-63"/>
<text text-anchor="middle" x="427" y="-51" font-family="Helvetica,sans-Serif" font-size="10.00">SocketManager::handleClientData</text>
</a>
</g>
</g>
<!-- Node5&#45;&gt;Node6 -->
<g id="edge5_Node000005_Node000006" class="edge">
<title>Node5&#45;&gt;Node6</title>
<g id="a_edge5_Node000005_Node000006"><a xlink:title=" ">
<path fill="none" stroke="#63b8ff" d="M543.54,-53.5C535.12,-53.5 526.62,-53.5 518.26,-53.5"/>
<polygon fill="#63b8ff" stroke="#63b8ff" points="543.76,-57 553.76,-53.5 543.76,-50 543.76,-57"/>
</a>
</g>
</g>
<!-- Node7 -->
<g id="Node000007" class="node">
<title>Node7</title>
<g id="a_Node000007"><a xlink:href="classSocketManager_a6dd1b927ab5d7d761cae7044c6fcea37.html#a6dd1b927ab5d7d761cae7044c6fcea37" target="_top" xlink:title="Runs the main event loop of the server.">
<polygon fill="white" stroke="#666666" points="300,-63 187,-63 187,-44 300,-44 300,-63"/>
<text text-anchor="middle" x="243.5" y="-51" font-family="Helvetica,sans-Serif" font-size="10.00">SocketManager::run</text>
</a>
</g>
</g>
<!-- Node6&#45;&gt;Node7 -->
<g id="edge6_Node000006_Node000007" class="edge">
<title>Node6&#45;&gt;Node7</title>
<g id="a_edge6_Node000006_Node000007"><a xlink:title=" ">
<path fill="none" stroke="#63b8ff" d="M325.59,-53.5C316.94,-53.5 308.4,-53.5 300.31,-53.5"/>
<polygon fill="#63b8ff" stroke="#63b8ff" points="325.78,-57 335.78,-53.5 325.78,-50 325.78,-57"/>
</a>
</g>
</g>
<!-- Node8 -->
<g id="Node000008" class="node">
<title>Node8</title>
<g id="a_Node000008"><a xlink:href="group__entrypoint_ga6e58dbe6eab2d4b12d65b7b0e7297be8.html#ga6e58dbe6eab2d4b12d65b7b0e7297be8" target="_top" xlink:title="Runs the Webserv server.">
<polygon fill="white" stroke="#666666" points="151,-63 77,-63 77,-44 151,-44 151,-63"/>
<text text-anchor="middle" x="114" y="-51" font-family="Helvetica,sans-Serif" font-size="10.00">runWebserv</text>
</a>
</g>
</g>
<!-- Node7&#45;&gt;Node8 -->
<g id="edge7_Node000007_Node000008" class="edge">
<title>Node7&#45;&gt;Node8</title>
<g id="a_edge7_Node000007_Node000008"><a xlink:title=" ">
<path fill="none" stroke="#63b8ff" d="M176.7,-53.5C167.96,-53.5 159.27,-53.5 151.29,-53.5"/>
<polygon fill="#63b8ff" stroke="#63b8ff" points="176.95,-57 186.95,-53.5 176.95,-50 176.95,-57"/>
</a>
</g>
</g>
<!-- Node9 -->
<g id="Node000009" class="node">
<title>Node9</title>
<g id="a_Node000009"><a xlink:href="group__entrypoint_ga3c04138a5bfe5d72780bb7e82a18e627.html#ga3c04138a5bfe5d72780bb7e82a18e627" target="_top" xlink:title="Program entry point.">
<polygon fill="white" stroke="#666666" points="41,-63 0,-63 0,-44 41,-44 41,-63"/>
<text text-anchor="middle" x="20.5" y="-51" font-family="Helvetica,sans-Serif" font-size="10.00">main</text>
</a>
</g>
</g>
<!-- Node8&#45;&gt;Node9 -->
<g id="edge8_Node000008_Node000009" class="edge">
<title>Node8&#45;&gt;Node9</title>
<g id="a_edge8_Node000008_Node000009"><a xlink:title=" ">
<path fill="none" stroke="#63b8ff" d="M66.7,-53.5C57.67,-53.5 48.66,-53.5 41.09,-53.5"/>
<polygon fill="#63b8ff" stroke="#63b8ff" points="66.84,-57 76.84,-53.5 66.84,-50 66.84,-57"/>
</a>
</g>
</g>
<!-- Node10&#45;&gt;Node3 -->
<g id="edge10_Node000010_Node000003" class="edge">
<title>Node10&#45;&gt;Node3</title>
<g id="a_edge10_Node000010_Node000003"><a xlink:title=" ">
<path fill="none" stroke="#63b8ff" d="M1037.73,-38.62C1028.6,-40.46 1019.6,-42.28 1011.2,-43.97"/>
<polygon fill="#63b8ff" stroke="#63b8ff" points="1038.56,-42.02 1047.67,-36.61 1037.17,-35.16 1038.56,-42.02"/>
</a>
</g>
</g>
<!-- Node10&#45;&gt;Node10 -->
<g id="edge11_Node000010_Node000010" class="edge">
<title>Node10&#45;&gt;Node10</title>
<g id="a_edge11_Node000010_Node000010"><a xlink:title=" ">
<path fill="none" stroke="#63b8ff" d="M1156.72,-50.96C1152.52,-55.74 1143.11,-59 1128.5,-59 1105.12,-59 1095.07,-50.65 1098.36,-41.1"/>
<polygon fill="#63b8ff" stroke="#63b8ff" points="1160.16,-51.58 1158.64,-41.1 1153.29,-50.24 1160.16,-51.58"/>
</a>
</g>
</g>
</g>
</svg>

<g id="navigator" transform="translate(0 0)" fill="#404254">
  <rect fill="#f2f5e9" fill-opacity="0.5" stroke="#606060" stroke-width=".5" x="0" y="0" width="60" height="60"/>
  <use id="zoomplus" xlink:href="#zoomPlus" x="17" y="9" onmousedown="handleZoom(evt,'in')"/>
  <use id="zoomminus" xlink:href="#zoomMin" x="42" y="9" onmousedown="handleZoom(evt,'out')"/>
  <use id="reset" xlink:href="#resetDef" x="30" y="36" onmousedown="handleReset()"/>
   <use id="arrowup" xlink:href="#arrowUp" x="0" y="0" onmousedown="handlePan(0,-1)"/>
  <use id="arrowright" xlink:href="#arrowRight" x="0" y="0" onmousedown="handlePan(1,0)"/>
  <use id="arrowdown" xlink:href="#arrowDown" x="0" y="0" onmousedown="handlePan(0,1)"/>
  <use id="arrowleft" xlink:href="#arrowLeft" x="0" y="0" onmousedown="handlePan(-1,0)"/>
</g>
<svg viewBox="0 0 15 15" width="100%" height="30px" preserveAspectRatio="xMaxYMin meet">
 <g id="arrow_out" transform="scale(0.3 0.3)">
  <a xlink:href="group__http_ga5bd35289a97c367827dbd823d41276f0_ga5bd35289a97c367827dbd823d41276f0_icgraph_org.svg" target="_base">
   <rect id="button" ry="5" rx="5" y="6" x="6" height="38" width="38"
        fill="#f2f5e9" fill-opacity="0.5" stroke="#606060" stroke-width="1.0"/>
   <path id="arrow"
     d="M 11.500037,31.436501 C 11.940474,20.09759 22.043105,11.32322 32.158766,21.979434 L 37.068811,17.246167 C 37.068811,17.246167 37.088388,32 37.088388,32 L 22.160133,31.978069 C 22.160133,31.978069 26.997745,27.140456 26.997745,27.140456 C 18.528582,18.264221 13.291696,25.230495 11.500037,31.436501 z"
     style="fill:#404040;"/>
  </a>
 </g>
</svg>

<style type='text/css'>
<![CDATA[
[data-mouse-over-selected='false'] { opacity: 0.7; }
[data-mouse-over-selected='true']  { opacity: 1.0; }
]]>
</style>
<script type="application/ecmascript"><![CDATA[
document.addEventListener('DOMContentLoaded', (event) => {
  highlightEdges();
  highlightAdjacentNodes();
});
]]></script>
</svg>
