<?xml version="1.0" encoding="UTF-8" standalone="no"?>
<!DOCTYPE svg PUBLIC "-//W3C//DTD SVG 1.1//EN"
 "http://www.w3.org/Graphics/SVG/1.1/DTD/svg11.dtd">
<!-- Generated by graphviz version 2.43.0 (0)
 -->
<!-- Title: formatError Pages: 1 -->
<svg width="1594pt" height="805pt"
 viewBox="0.00 0.00 1594.00 804.54" xmlns="http://www.w3.org/2000/svg" xmlns:xlink="http://www.w3.org/1999/xlink">
<g id="graph0" class="graph" transform="scale(1 1) rotate(0) translate(4 800.54)">
<title>formatError</title>
<!-- Node1 -->
<g id="Node000001" class="node">
<title>Node1</title>
<g id="a_Node000001"><a xlink:title="Formats an error message with line and column information.">
<polygon fill="#999999" stroke="#666666" points="1586,-420 1513,-420 1513,-401 1586,-401 1586,-420"/>
<text text-anchor="middle" x="1549.5" y="-408" font-family="Helvetica,sans-Serif" font-size="10.00">formatError</text>
</a>
</g>
</g>
<!-- Node2 -->
<g id="Node000002" class="node">
<title>Node2</title>
<g id="a_Node000002"><a xlink:href="classConfigParser.html#a582320b084ecf84703cb959d07696095" target="_top" xlink:title=" ">
<polygon fill="white" stroke="#666666" points="1257.5,-487 1120.5,-487 1120.5,-468 1257.5,-468 1257.5,-487"/>
<text text-anchor="middle" x="1189" y="-475" font-family="Helvetica,sans-Serif" font-size="10.00">ConfigParser::collectArgs</text>
</a>
</g>
</g>
<!-- Node1&#45;&gt;Node2 -->
<g id="edge1_Node000001_Node000002" class="edge">
<title>Node1&#45;&gt;Node2</title>
<g id="a_edge1_Node000001_Node000002"><a xlink:title=" ">
<path fill="none" stroke="#63b8ff" d="M1502.85,-418.33C1454.43,-426.71 1375.73,-440.56 1308,-453.5 1284.08,-458.07 1257.49,-463.45 1235.62,-467.96"/>
<polygon fill="#63b8ff" stroke="#63b8ff" points="1503.74,-421.73 1513,-416.58 1502.55,-414.83 1503.74,-421.73"/>
</a>
</g>
</g>
<!-- Node4 -->
<g id="Node000004" class="node">
<title>Node4</title>
<g id="a_Node000004"><a xlink:href="classConfigParser.html#ab14af2f633e98e6182e1fce25c74f9e9" target="_top" xlink:title=" ">
<polygon fill="white" stroke="#666666" points="882,-439 730,-439 730,-420 882,-420 882,-439"/>
<text text-anchor="middle" x="806" y="-427" font-family="Helvetica,sans-Serif" font-size="10.00">ConfigParser::parseLocation</text>
</a>
</g>
</g>
<!-- Node1&#45;&gt;Node4 -->
<g id="edge32_Node000001_Node000004" class="edge">
<title>Node1&#45;&gt;Node4</title>
<g id="a_edge32_Node000001_Node000004"><a xlink:title=" ">
<path fill="none" stroke="#63b8ff" d="M1502.69,-406.82C1494.15,-406.27 1485.31,-405.79 1477,-405.5 1401.93,-402.88 1383.1,-404.38 1308,-405.5 1218.19,-406.83 1195.73,-407.47 1106,-411.5 1029.76,-414.93 942.68,-420.34 882.23,-424.34"/>
<polygon fill="#63b8ff" stroke="#63b8ff" points="1502.67,-410.33 1512.88,-407.52 1503.15,-403.34 1502.67,-410.33"/>
</a>
</g>
</g>
<!-- Node5 -->
<g id="Node000005" class="node">
<title>Node5</title>
<g id="a_Node000005"><a xlink:href="classConfigParser.html#aec05768b15f77f3908738fba4237d2a8" target="_top" xlink:title=" ">
<polygon fill="white" stroke="#666666" points="693,-439 551,-439 551,-420 693,-420 693,-439"/>
<text text-anchor="middle" x="622" y="-427" font-family="Helvetica,sans-Serif" font-size="10.00">ConfigParser::parseServer</text>
</a>
</g>
</g>
<!-- Node1&#45;&gt;Node5 -->
<g id="edge33_Node000001_Node000005" class="edge">
<title>Node1&#45;&gt;Node5</title>
<g id="a_edge33_Node000001_Node000005"><a xlink:title=" ">
<path fill="none" stroke="#63b8ff" d="M1547.24,-430.19C1542.62,-495.5 1524.38,-703.28 1477,-746.5 1382.1,-833.07 1318.45,-780.5 1190,-780.5 1190,-780.5 1190,-780.5 993,-780.5 788.91,-780.5 652.38,-495.94 627.21,-439.25"/>
<polygon fill="#63b8ff" stroke="#63b8ff" points="1550.74,-430.25 1547.92,-420.03 1543.76,-429.78 1550.74,-430.25"/>
</a>
</g>
</g>
<!-- Node6 -->
<g id="Node000006" class="node">
<title>Node6</title>
<g id="a_Node000006"><a xlink:href="classConfigParser.html#a3b983e072038482de7698c091f5c8a99" target="_top" xlink:title=" ">
<polygon fill="white" stroke="#666666" points="514,-382 373,-382 373,-363 514,-363 514,-382"/>
<text text-anchor="middle" x="443.5" y="-370" font-family="Helvetica,sans-Serif" font-size="10.00">ConfigParser::parseConfig</text>
</a>
</g>
</g>
<!-- Node1&#45;&gt;Node6 -->
<g id="edge25_Node000001_Node000006" class="edge">
<title>Node1&#45;&gt;Node6</title>
<g id="a_edge25_Node000001_Node000006"><a xlink:title=" ">
<path fill="none" stroke="#63b8ff" d="M1518.21,-396.75C1457.35,-370.43 1315.34,-315.5 1190,-315.5 1190,-315.5 1190,-315.5 805,-315.5 684.92,-315.5 545.08,-346.73 480.53,-362.96"/>
<polygon fill="#63b8ff" stroke="#63b8ff" points="1517.04,-400.06 1527.6,-400.87 1519.84,-393.65 1517.04,-400.06"/>
</a>
</g>
</g>
<!-- Node11 -->
<g id="Node000011" class="node">
<title>Node11</title>
<g id="a_Node000011"><a xlink:href="classTokenizer.html#abb60123728550edb23bb1624f3cfe780" target="_top" xlink:title=" ">
<polygon fill="white" stroke="#666666" points="1062.5,-186 925.5,-186 925.5,-167 1062.5,-167 1062.5,-186"/>
<text text-anchor="middle" x="994" y="-174" font-family="Helvetica,sans-Serif" font-size="10.00">Tokenizer::dispatchToken</text>
</a>
</g>
</g>
<!-- Node1&#45;&gt;Node11 -->
<g id="edge11_Node000001_Node000011" class="edge">
<title>Node1&#45;&gt;Node11</title>
<g id="a_edge11_Node000001_Node000011"><a xlink:title=" ">
<path fill="none" stroke="#63b8ff" d="M1541.31,-391.47C1530.97,-366.77 1509.48,-324.16 1477,-301.5 1442.29,-277.29 1146.63,-227.31 1106,-215.5 1075.99,-206.78 1042.2,-194.55 1019.87,-186.12"/>
<polygon fill="#63b8ff" stroke="#63b8ff" points="1538.1,-392.87 1545.06,-400.85 1544.6,-390.27 1538.1,-392.87"/>
</a>
</g>
</g>
<!-- Node14 -->
<g id="Node000014" class="node">
<title>Node14</title>
<g id="a_Node000014"><a xlink:href="classConfigParser.html#a0cf6ea001cf16a993d10cbd8b5701248" target="_top" xlink:title=" ">
<polygon fill="white" stroke="#666666" points="1247,-439 1131,-439 1131,-420 1247,-420 1247,-439"/>
<text text-anchor="middle" x="1189" y="-427" font-family="Helvetica,sans-Serif" font-size="10.00">ConfigParser::expect</text>
</a>
</g>
</g>
<!-- Node1&#45;&gt;Node14 -->
<g id="edge14_Node000001_Node000014" class="edge">
<title>Node1&#45;&gt;Node14</title>
<g id="a_edge14_Node000001_Node000014"><a xlink:title=" ">
<path fill="none" stroke="#63b8ff" d="M1502.85,-410.13C1454.43,-410.05 1375.73,-410.79 1308,-415.5 1288.14,-416.88 1266.49,-419.21 1247.21,-421.58"/>
<polygon fill="#63b8ff" stroke="#63b8ff" points="1502.99,-413.63 1513,-410.16 1503.01,-406.63 1502.99,-413.63"/>
</a>
</g>
</g>
<!-- Node15 -->
<g id="Node000015" class="node">
<title>Node15</title>
<g id="a_Node000015"><a xlink:href="classConfigParser.html#a48ee49c90c0dfe42b85c008e31aa81d2" target="_top" xlink:title=" ">
<polygon fill="white" stroke="#666666" points="1466,-78 1319,-78 1319,-59 1466,-59 1466,-78"/>
<text text-anchor="middle" x="1392.5" y="-66" font-family="Helvetica,sans-Serif" font-size="10.00">ConfigParser::expectOneOf</text>
</a>
</g>
</g>
<!-- Node1&#45;&gt;Node15 -->
<g id="edge19_Node000001_Node000015" class="edge">
<title>Node1&#45;&gt;Node15</title>
<g id="a_edge19_Node000001_Node000015"><a xlink:title=" ">
<path fill="none" stroke="#63b8ff" d="M1546.86,-390.44C1541.24,-326.62 1520.63,-129.92 1477,-86.5 1473.64,-83.15 1469.81,-80.36 1465.69,-78.04"/>
<polygon fill="#63b8ff" stroke="#63b8ff" points="1543.4,-391.08 1547.74,-400.74 1550.38,-390.48 1543.4,-391.08"/>
</a>
</g>
</g>
<!-- Node16 -->
<g id="Node000016" class="node">
<title>Node16</title>
<g id="a_Node000016"><a xlink:href="namespacedirective.html#a4167e9343de67ad75b94d04a0ee62577" target="_top" xlink:title=" ">
<polygon fill="white" stroke="#666666" points="1263,-524 1115,-524 1115,-505 1263,-505 1263,-524"/>
<text text-anchor="middle" x="1189" y="-512" font-family="Helvetica,sans-Serif" font-size="10.00">directive::locationHandlers</text>
</a>
</g>
</g>
<!-- Node1&#45;&gt;Node16 -->
<g id="edge20_Node000001_Node000016" class="edge">
<title>Node1&#45;&gt;Node16</title>
<g id="a_edge20_Node000001_Node000016"><a xlink:title=" ">
<path fill="none" stroke="#63b8ff" d="M1526.21,-425.69C1512.54,-434.39 1494.37,-444.86 1477,-451.5 1405.27,-478.93 1382.82,-470.18 1308,-487.5 1291.93,-491.22 1288.06,-492.73 1272,-496.5 1259.94,-499.33 1246.85,-502.27 1234.74,-504.92"/>
<polygon fill="#63b8ff" stroke="#63b8ff" points="1528.44,-428.42 1534.9,-420.02 1524.61,-422.56 1528.44,-428.42"/>
</a>
</g>
</g>
<!-- Node17 -->
<g id="Node000017" class="node">
<title>Node17</title>
<g id="a_Node000017"><a xlink:href="group__StringUtils.html#ga7950ec426b55a9170dccbd5b463cba43" target="_top" xlink:title="Parses a byte size with detailed error context.">
<polygon fill="white" stroke="#666666" points="1232,-714 1146,-714 1146,-695 1232,-695 1232,-714"/>
<text text-anchor="middle" x="1189" y="-702" font-family="Helvetica,sans-Serif" font-size="10.00">parseByteSize</text>
</a>
</g>
</g>
<!-- Node1&#45;&gt;Node17 -->
<g id="edge22_Node000001_Node000017" class="edge">
<title>Node1&#45;&gt;Node17</title>
<g id="a_edge22_Node000001_Node000017"><a xlink:title=" ">
<path fill="none" stroke="#63b8ff" d="M1546.2,-430.41C1539.21,-487.32 1516.2,-648.72 1477,-681.5 1406.44,-740.5 1289.05,-726.57 1228.59,-714.07"/>
<polygon fill="#63b8ff" stroke="#63b8ff" points="1549.71,-430.55 1547.42,-420.21 1542.76,-429.72 1549.71,-430.55"/>
</a>
</g>
</g>
<!-- Node18 -->
<g id="Node000018" class="node">
<title>Node18</title>
<g id="a_Node000018"><a xlink:href="namespacedirective.html#a3338d7904396548486d9d2dce2367c06" target="_top" xlink:title=" ">
<polygon fill="white" stroke="#666666" points="1064,-638 924,-638 924,-619 1064,-619 1064,-638"/>
<text text-anchor="middle" x="994" y="-626" font-family="Helvetica,sans-Serif" font-size="10.00">directive::serverHandlers</text>
</a>
</g>
</g>
<!-- Node1&#45;&gt;Node18 -->
<g id="edge45_Node000001_Node000018" class="edge">
<title>Node1&#45;&gt;Node18</title>
<g id="a_edge45_Node000001_Node000018"><a xlink:title=" ">
<path fill="none" stroke="#63b8ff" d="M1546.94,-430.18C1541.62,-491.87 1521.94,-679.58 1477,-716.5 1413.28,-768.84 1183.35,-752.08 1106,-723.5 1058.89,-706.09 1018.25,-658.78 1002.26,-638.24"/>
<polygon fill="#63b8ff" stroke="#63b8ff" points="1550.43,-430.45 1547.77,-420.19 1543.46,-429.87 1550.43,-430.45"/>
</a>
</g>
</g>
<!-- Node19 -->
<g id="Node000019" class="node">
<title>Node19</title>
<g id="a_Node000019"><a xlink:href="namespaceanonymous__namespace_02ConfigParser_8cpp_03.html#a78387fc5ca311812bfbf94a0dd76d0e3" target="_top" xlink:title=" ">
<polygon fill="white" stroke="#666666" points="1460,-41 1325,-41 1325,0 1460,0 1460,-41"/>
<text text-anchor="start" x="1333" y="-29" font-family="Helvetica,sans-Serif" font-size="10.00">anonymous_namespace</text>
<text text-anchor="start" x="1333" y="-18" font-family="Helvetica,sans-Serif" font-size="10.00">{ConfigParser::cpp}</text>
<text text-anchor="middle" x="1392.5" y="-7" font-family="Helvetica,sans-Serif" font-size="10.00">::parseDirective</text>
</a>
</g>
</g>
<!-- Node1&#45;&gt;Node19 -->
<g id="edge26_Node000001_Node000019" class="edge">
<title>Node1&#45;&gt;Node19</title>
<g id="a_edge26_Node000001_Node000019"><a xlink:title=" ">
<path fill="none" stroke="#63b8ff" d="M1547.13,-390.63C1542.06,-322.78 1522.29,-101.56 1477,-49.5 1472.27,-44.06 1466.46,-39.64 1460.12,-36.05"/>
<polygon fill="#63b8ff" stroke="#63b8ff" points="1543.65,-391.08 1547.86,-400.8 1550.63,-390.58 1543.65,-391.08"/>
</a>
</g>
</g>
<!-- Node20 -->
<g id="Node000020" class="node">
<title>Node20</title>
<g id="a_Node000020"><a xlink:href="group__StringUtils.html#gaab21b0d358ae4429fc4ca818719be9df" target="_top" xlink:title="Parses an integer with detailed error context.">
<polygon fill="white" stroke="#666666" points="1420.5,-638 1364.5,-638 1364.5,-619 1420.5,-619 1420.5,-638"/>
<text text-anchor="middle" x="1392.5" y="-626" font-family="Helvetica,sans-Serif" font-size="10.00">parseInt</text>
</a>
</g>
</g>
<!-- Node1&#45;&gt;Node20 -->
<g id="edge27_Node000001_Node000020" class="edge">
<title>Node1&#45;&gt;Node20</title>
<g id="a_edge27_Node000001_Node000020"><a xlink:title=" ">
<path fill="none" stroke="#63b8ff" d="M1547.52,-430.39C1544.4,-470.83 1531.37,-562.82 1477,-610.5 1461.61,-623.99 1438.55,-628.17 1420.56,-629.15"/>
<polygon fill="#63b8ff" stroke="#63b8ff" points="1551.02,-430.43 1548.17,-420.22 1544.04,-429.98 1551.02,-430.43"/>
</a>
</g>
</g>
<!-- Node21 -->
<g id="Node000021" class="node">
<title>Node21</title>
<g id="a_Node000021"><a xlink:href="namespacedirective.html#a88f8d5330b2461bd038b66acd16f1f01" target="_top" xlink:title=" ">
<polygon fill="white" stroke="#666666" points="1271.5,-676 1106.5,-676 1106.5,-657 1271.5,-657 1271.5,-676"/>
<text text-anchor="middle" x="1189" y="-664" font-family="Helvetica,sans-Serif" font-size="10.00">directive::validateIPv4Address</text>
</a>
</g>
</g>
<!-- Node1&#45;&gt;Node21 -->
<g id="edge53_Node000001_Node000021" class="edge">
<title>Node1&#45;&gt;Node21</title>
<g id="a_edge53_Node000001_Node000021"><a xlink:title=" ">
<path fill="none" stroke="#63b8ff" d="M1549.36,-430.25C1550.2,-476.77 1545.05,-593.37 1477,-647.5 1404.51,-705.16 1286.38,-689.24 1226.82,-676.09"/>
<polygon fill="#63b8ff" stroke="#63b8ff" points="1552.86,-430.14 1549.07,-420.25 1545.86,-430.35 1552.86,-430.14"/>
</a>
</g>
</g>
<!-- Node22 -->
<g id="Node000022" class="node">
<title>Node22</title>
<g id="a_Node000022"><a xlink:href="classTokenizer.html#a5fd74c00aa7b3104c20cc7c4a814fd32" target="_top" xlink:title=" ">
<polygon fill="white" stroke="#666666" points="1266.5,-206 1111.5,-206 1111.5,-187 1266.5,-187 1266.5,-206"/>
<text text-anchor="middle" x="1189" y="-194" font-family="Helvetica,sans-Serif" font-size="10.00">Tokenizer::parseStringLiteral</text>
</a>
</g>
</g>
<!-- Node1&#45;&gt;Node22 -->
<g id="edge34_Node000001_Node000022" class="edge">
<title>Node1&#45;&gt;Node22</title>
<g id="a_edge34_Node000001_Node000022"><a xlink:title=" ">
<path fill="none" stroke="#63b8ff" d="M1544.65,-390.96C1537.32,-359.15 1518.27,-296.44 1477,-263.5 1467.5,-255.92 1314.01,-222.68 1235.5,-206.05"/>
<polygon fill="#63b8ff" stroke="#63b8ff" points="1541.24,-391.78 1546.77,-400.82 1548.09,-390.31 1541.24,-391.78"/>
</a>
</g>
</g>
<!-- Node23 -->
<g id="Node000023" class="node">
<title>Node23</title>
<g id="a_Node000023"><a xlink:href="namespacedirective.html#ab413e7282a09df0d3339f88ce6d423ff" target="_top" xlink:title=" ">
<polygon fill="white" stroke="#666666" points="1465,-601 1320,-601 1320,-582 1465,-582 1465,-601"/>
<text text-anchor="middle" x="1392.5" y="-589" font-family="Helvetica,sans-Serif" font-size="10.00">directive::requireArgCount</text>
</a>
</g>
</g>
<!-- Node1&#45;&gt;Node23 -->
<g id="edge36_Node000001_Node000023" class="edge">
<title>Node1&#45;&gt;Node23</title>
<g id="a_edge36_Node000001_Node000023"><a xlink:title=" ">
<path fill="none" stroke="#63b8ff" d="M1545.55,-430.57C1539.38,-465.1 1521.75,-535.6 1477,-572.5 1472.41,-576.28 1467.22,-579.35 1461.72,-581.83"/>
<polygon fill="#63b8ff" stroke="#63b8ff" points="1549.06,-430.77 1547.23,-420.33 1542.16,-429.64 1549.06,-430.77"/>
</a>
</g>
</g>
<!-- Node24 -->
<g id="Node000024" class="node">
<title>Node24</title>
<g id="a_Node000024"><a xlink:href="namespacedirective.html#a168b6924c56f46b36e98b6020a19945b" target="_top" xlink:title=" ">
<polygon fill="white" stroke="#666666" points="1459.5,-563.5 1325.5,-563.5 1325.5,-533.5 1459.5,-533.5 1459.5,-563.5"/>
<text text-anchor="start" x="1333.5" y="-551.5" font-family="Helvetica,sans-Serif" font-size="10.00">directive::requireMinArg</text>
<text text-anchor="middle" x="1392.5" y="-540.5" font-family="Helvetica,sans-Serif" font-size="10.00">Count</text>
</a>
</g>
</g>
<!-- Node1&#45;&gt;Node24 -->
<g id="edge39_Node000001_Node000024" class="edge">
<title>Node1&#45;&gt;Node24</title>
<g id="a_edge39_Node000001_Node000024"><a xlink:title=" ">
<path fill="none" stroke="#63b8ff" d="M1541.52,-429.75C1531.3,-455.23 1509.83,-499.79 1477,-524.5 1471.7,-528.49 1465.75,-531.82 1459.54,-534.59"/>
<polygon fill="#63b8ff" stroke="#63b8ff" points="1544.9,-430.7 1545.21,-420.11 1538.37,-428.2 1544.9,-430.7"/>
</a>
</g>
</g>
<!-- Node25 -->
<g id="Node000025" class="node">
<title>Node25</title>
<g id="a_Node000025"><a xlink:href="classTokenizer.html#aee3735b01289546812d2180ee9355ff1" target="_top" xlink:title=" ">
<polygon fill="white" stroke="#666666" points="1468.5,-163.5 1316.5,-163.5 1316.5,-133.5 1468.5,-133.5 1468.5,-163.5"/>
<text text-anchor="start" x="1324.5" y="-151.5" font-family="Helvetica,sans-Serif" font-size="10.00">Tokenizer::scanOptionalUnit</text>
<text text-anchor="middle" x="1392.5" y="-140.5" font-family="Helvetica,sans-Serif" font-size="10.00">Suffix</text>
</a>
</g>
</g>
<!-- Node1&#45;&gt;Node25 -->
<g id="edge42_Node000001_Node000025" class="edge">
<title>Node1&#45;&gt;Node25</title>
<g id="a_edge42_Node000001_Node000025"><a xlink:title=" ">
<path fill="none" stroke="#63b8ff" d="M1548.56,-390.68C1547.58,-345.38 1538.68,-233.44 1477,-172.5 1473.57,-169.11 1469.69,-166.19 1465.53,-163.68"/>
<polygon fill="#63b8ff" stroke="#63b8ff" points="1545.06,-390.73 1548.66,-400.69 1552.06,-390.66 1545.06,-390.73"/>
</a>
</g>
</g>
<!-- Node27 -->
<g id="Node000027" class="node">
<title>Node27</title>
<g id="a_Node000027"><a xlink:href="classTokenizer.html#a85e938ec2eba987c83bed60c6340cc40" target="_top" xlink:title=" ">
<polygon fill="white" stroke="#666666" points="1474.5,-211.5 1310.5,-211.5 1310.5,-181.5 1474.5,-181.5 1474.5,-211.5"/>
<text text-anchor="start" x="1318.5" y="-199.5" font-family="Helvetica,sans-Serif" font-size="10.00">Tokenizer::throwUnterminated</text>
<text text-anchor="middle" x="1392.5" y="-188.5" font-family="Helvetica,sans-Serif" font-size="10.00">String</text>
</a>
</g>
</g>
<!-- Node1&#45;&gt;Node27 -->
<g id="edge46_Node000001_Node000027" class="edge">
<title>Node1&#45;&gt;Node27</title>
<g id="a_edge46_Node000001_Node000027"><a xlink:title=" ">
<path fill="none" stroke="#63b8ff" d="M1546.33,-390.81C1541.17,-353.4 1524.8,-271.68 1477,-225.5 1471.15,-219.85 1464.14,-215.29 1456.71,-211.63"/>
<polygon fill="#63b8ff" stroke="#63b8ff" points="1542.88,-391.42 1547.59,-400.91 1549.82,-390.55 1542.88,-391.42"/>
</a>
</g>
</g>
<!-- Node28 -->
<g id="Node000028" class="node">
<title>Node28</title>
<g id="a_Node000028"><a xlink:href="namespacedirective.html#ab0d35b6ad2c2f8d0eea5231b431187b6" target="_top" xlink:title=" ">
<polygon fill="white" stroke="#666666" points="1477,-515 1308,-515 1308,-496 1477,-496 1477,-515"/>
<text text-anchor="middle" x="1392.5" y="-503" font-family="Helvetica,sans-Serif" font-size="10.00">directive::validateCgiExtension</text>
</a>
</g>
</g>
<!-- Node1&#45;&gt;Node28 -->
<g id="edge48_Node000001_Node000028" class="edge">
<title>Node1&#45;&gt;Node28</title>
<g id="a_edge48_Node000001_Node000028"><a xlink:title=" ">
<path fill="none" stroke="#63b8ff" d="M1534.88,-428.45C1521.73,-444.56 1500.42,-467.75 1477,-481.5 1466.33,-487.76 1453.93,-492.47 1442,-495.99"/>
<polygon fill="#63b8ff" stroke="#63b8ff" points="1537.84,-430.34 1541.3,-420.32 1532.35,-425.99 1537.84,-430.34"/>
</a>
</g>
</g>
<!-- Node29 -->
<g id="Node000029" class="node">
<title>Node29</title>
<g id="a_Node000029"><a xlink:href="classTokenizer.html#a7dd8e4b178f5d819ec70b840eeba6ea0" target="_top" xlink:title=" ">
<polygon fill="white" stroke="#666666" points="1468.5,-115 1316.5,-115 1316.5,-96 1468.5,-96 1468.5,-115"/>
<text text-anchor="middle" x="1392.5" y="-103" font-family="Helvetica,sans-Serif" font-size="10.00">Tokenizer::validateIdentifier</text>
</a>
</g>
</g>
<!-- Node1&#45;&gt;Node29 -->
<g id="edge50_Node000001_Node000029" class="edge">
<title>Node1&#45;&gt;Node29</title>
<g id="a_edge50_Node000001_Node000029"><a xlink:title=" ">
<path fill="none" stroke="#63b8ff" d="M1546.22,-390.54C1539.12,-331.97 1515.57,-162.26 1477,-124.5 1473.18,-120.76 1468.78,-117.69 1464.04,-115.18"/>
<polygon fill="#63b8ff" stroke="#63b8ff" points="1542.77,-391.19 1547.42,-400.71 1549.72,-390.36 1542.77,-391.19"/>
</a>
</g>
</g>
<!-- Node3 -->
<g id="Node000003" class="node">
<title>Node3</title>
<g id="a_Node000003"><a xlink:href="classConfigParser.html#ad27019103306be3877608677c5615a61" target="_top" xlink:title=" ">
<polygon fill="white" stroke="#666666" points="1070,-525.5 918,-525.5 918,-495.5 1070,-495.5 1070,-525.5"/>
<text text-anchor="start" x="926" y="-513.5" font-family="Helvetica,sans-Serif" font-size="10.00">ConfigParser::parseLocation</text>
<text text-anchor="middle" x="994" y="-502.5" font-family="Helvetica,sans-Serif" font-size="10.00">Directive</text>
</a>
</g>
</g>
<!-- Node2&#45;&gt;Node3 -->
<g id="edge2_Node000002_Node000003" class="edge">
<title>Node2&#45;&gt;Node3</title>
<g id="a_edge2_Node000002_Node000003"><a xlink:title=" ">
<path fill="none" stroke="#63b8ff" d="M1122.23,-488.75C1105.51,-491.6 1087.42,-494.7 1070.27,-497.63"/>
<polygon fill="#63b8ff" stroke="#63b8ff" points="1123.17,-492.14 1132.44,-487 1121.99,-485.24 1123.17,-492.14"/>
</a>
</g>
</g>
<!-- Node10 -->
<g id="Node000010" class="node">
<title>Node10</title>
<g id="a_Node000010"><a xlink:href="classConfigParser.html#a65dee8490851a65fb3d80ab1677c4a5d" target="_top" xlink:title=" ">
<polygon fill="white" stroke="#666666" points="877,-528.5 735,-528.5 735,-498.5 877,-498.5 877,-528.5"/>
<text text-anchor="start" x="743" y="-516.5" font-family="Helvetica,sans-Serif" font-size="10.00">ConfigParser::parseServer</text>
<text text-anchor="middle" x="806" y="-505.5" font-family="Helvetica,sans-Serif" font-size="10.00">Directive</text>
</a>
</g>
</g>
<!-- Node2&#45;&gt;Node10 -->
<g id="edge9_Node000002_Node000010" class="edge">
<title>Node2&#45;&gt;Node10</title>
<g id="a_edge9_Node000002_Node000010"><a xlink:title=" ">
<path fill="none" stroke="#63b8ff" d="M1118.28,-490.58C1114.02,-492.31 1109.89,-494.27 1106,-496.5 1085.81,-508.06 1091.37,-525.31 1070,-534.5 997.21,-565.81 902.69,-545.21 849.06,-528.57"/>
<polygon fill="#63b8ff" stroke="#63b8ff" points="1119.56,-493.83 1127.77,-487.13 1117.17,-487.25 1119.56,-493.83"/>
</a>
</g>
</g>
<!-- Node3&#45;&gt;Node4 -->
<g id="edge3_Node000003_Node000004" class="edge">
<title>Node3&#45;&gt;Node4</title>
<g id="a_edge3_Node000003_Node000004"><a xlink:title=" ">
<path fill="none" stroke="#63b8ff" d="M949.19,-491.42C911.36,-474.95 858.29,-451.84 828.85,-439.02"/>
<polygon fill="#63b8ff" stroke="#63b8ff" points="947.88,-494.67 958.45,-495.45 950.68,-488.25 947.88,-494.67"/>
</a>
</g>
</g>
<!-- Node4&#45;&gt;Node5 -->
<g id="edge4_Node000004_Node000005" class="edge">
<title>Node4&#45;&gt;Node5</title>
<g id="a_edge4_Node000004_Node000005"><a xlink:title=" ">
<path fill="none" stroke="#63b8ff" d="M719.89,-429.5C710.97,-429.5 701.96,-429.5 693.23,-429.5"/>
<polygon fill="#63b8ff" stroke="#63b8ff" points="719.92,-433 729.92,-429.5 719.92,-426 719.92,-433"/>
</a>
</g>
</g>
<!-- Node5&#45;&gt;Node6 -->
<g id="edge5_Node000005_Node000006" class="edge">
<title>Node5&#45;&gt;Node6</title>
<g id="a_edge5_Node000005_Node000006"><a xlink:title=" ">
<path fill="none" stroke="#63b8ff" d="M581.81,-416.84C549.28,-406.34 503.7,-391.62 474.14,-382.07"/>
<polygon fill="#63b8ff" stroke="#63b8ff" points="580.87,-420.22 591.46,-419.96 583.02,-413.56 580.87,-420.22"/>
</a>
</g>
</g>
<!-- Node7 -->
<g id="Node000007" class="node">
<title>Node7</title>
<g id="a_Node000007"><a xlink:href="namespaceanonymous__namespace_02webserv_8cpp_03.html#aae8f81a4da2ba25012d48ca194e14b64" target="_top" xlink:title=" ">
<polygon fill="white" stroke="#666666" points="337,-387.5 187,-387.5 187,-357.5 337,-357.5 337,-387.5"/>
<text text-anchor="start" x="195" y="-375.5" font-family="Helvetica,sans-Serif" font-size="10.00">anonymous_namespace</text>
<text text-anchor="middle" x="262" y="-364.5" font-family="Helvetica,sans-Serif" font-size="10.00">{webserv::cpp}::loadConfig</text>
</a>
</g>
</g>
<!-- Node6&#45;&gt;Node7 -->
<g id="edge6_Node000006_Node000007" class="edge">
<title>Node6&#45;&gt;Node7</title>
<g id="a_edge6_Node000006_Node000007"><a xlink:title=" ">
<path fill="none" stroke="#63b8ff" d="M362.57,-372.5C354.09,-372.5 345.49,-372.5 337.07,-372.5"/>
<polygon fill="#63b8ff" stroke="#63b8ff" points="362.84,-376 372.84,-372.5 362.84,-369 362.84,-376"/>
</a>
</g>
</g>
<!-- Node8 -->
<g id="Node000008" class="node">
<title>Node8</title>
<g id="a_Node000008"><a xlink:href="webserv_8cpp.html#a6e58dbe6eab2d4b12d65b7b0e7297be8" target="_top" xlink:title=" ">
<polygon fill="white" stroke="#666666" points="151,-382 77,-382 77,-363 151,-363 151,-382"/>
<text text-anchor="middle" x="114" y="-370" font-family="Helvetica,sans-Serif" font-size="10.00">runWebserv</text>
</a>
</g>
</g>
<!-- Node7&#45;&gt;Node8 -->
<g id="edge7_Node000007_Node000008" class="edge">
<title>Node7&#45;&gt;Node8</title>
<g id="a_edge7_Node000007_Node000008"><a xlink:title=" ">
<path fill="none" stroke="#63b8ff" d="M176.59,-372.5C167.68,-372.5 159,-372.5 151.1,-372.5"/>
<polygon fill="#63b8ff" stroke="#63b8ff" points="176.72,-376 186.72,-372.5 176.72,-369 176.72,-376"/>
</a>
</g>
</g>
<!-- Node9 -->
<g id="Node000009" class="node">
<title>Node9</title>
<g id="a_Node000009"><a xlink:href="main_8cpp.html#a3c04138a5bfe5d72780bb7e82a18e627" target="_top" xlink:title=" ">
<polygon fill="white" stroke="#666666" points="41,-382 0,-382 0,-363 41,-363 41,-382"/>
<text text-anchor="middle" x="20.5" y="-370" font-family="Helvetica,sans-Serif" font-size="10.00">main</text>
</a>
</g>
</g>
<!-- Node8&#45;&gt;Node9 -->
<g id="edge8_Node000008_Node000009" class="edge">
<title>Node8&#45;&gt;Node9</title>
<g id="a_edge8_Node000008_Node000009"><a xlink:title=" ">
<path fill="none" stroke="#63b8ff" d="M66.7,-372.5C57.67,-372.5 48.66,-372.5 41.09,-372.5"/>
<polygon fill="#63b8ff" stroke="#63b8ff" points="66.84,-376 76.84,-372.5 66.84,-369 66.84,-376"/>
</a>
</g>
</g>
<!-- Node10&#45;&gt;Node5 -->
<g id="edge10_Node000010_Node000005" class="edge">
<title>Node10&#45;&gt;Node5</title>
<g id="a_edge10_Node000010_Node000005"><a xlink:title=" ">
<path fill="none" stroke="#63b8ff" d="M763.32,-494.26C725.93,-477.01 672.62,-452.4 643.66,-439.03"/>
<polygon fill="#63b8ff" stroke="#63b8ff" points="761.92,-497.47 772.46,-498.48 764.85,-491.11 761.92,-497.47"/>
</a>
</g>
</g>
<!-- Node12 -->
<g id="Node000012" class="node">
<title>Node12</title>
<g id="a_Node000012"><a xlink:href="classTokenizer.html#a535ed2343bd999378d3295edc150e746" target="_top" xlink:title=" ">
<polygon fill="white" stroke="#666666" points="861,-186 751,-186 751,-167 861,-167 861,-186"/>
<text text-anchor="middle" x="806" y="-174" font-family="Helvetica,sans-Serif" font-size="10.00">Tokenizer::tokenize</text>
</a>
</g>
</g>
<!-- Node11&#45;&gt;Node12 -->
<g id="edge12_Node000011_Node000012" class="edge">
<title>Node11&#45;&gt;Node12</title>
<g id="a_edge12_Node000011_Node000012"><a xlink:title=" ">
<path fill="none" stroke="#63b8ff" d="M915.32,-176.5C897.13,-176.5 878.14,-176.5 861.23,-176.5"/>
<polygon fill="#63b8ff" stroke="#63b8ff" points="915.32,-180 925.32,-176.5 915.32,-173 915.32,-180"/>
</a>
</g>
</g>
<!-- Node13 -->
<g id="Node000013" class="node">
<title>Node13</title>
<g id="a_Node000013"><a xlink:href="classConfigParser.html#a41f286ebab54d57477b7ff2964dba61e" target="_top" xlink:title=" ">
<polygon fill="white" stroke="#666666" points="694,-186 550,-186 550,-167 694,-167 694,-186"/>
<text text-anchor="middle" x="622" y="-174" font-family="Helvetica,sans-Serif" font-size="10.00">ConfigParser::ConfigParser</text>
</a>
</g>
</g>
<!-- Node12&#45;&gt;Node13 -->
<g id="edge13_Node000012_Node000013" class="edge">
<title>Node12&#45;&gt;Node13</title>
<g id="a_edge13_Node000012_Node000013"><a xlink:title=" ">
<path fill="none" stroke="#63b8ff" d="M740.65,-176.5C725.58,-176.5 709.45,-176.5 694.11,-176.5"/>
<polygon fill="#63b8ff" stroke="#63b8ff" points="740.89,-180 750.89,-176.5 740.89,-173 740.89,-180"/>
</a>
</g>
</g>
<!-- Node14&#45;&gt;Node3 -->
<g id="edge16_Node000014_Node000003" class="edge">
<title>Node14&#45;&gt;Node3</title>
<g id="a_edge16_Node000014_Node000003"><a xlink:title=" ">
<path fill="none" stroke="#63b8ff" d="M1147.88,-442.39C1134.34,-447.21 1119.29,-453.08 1106,-459.5 1089.11,-467.65 1086.81,-473.2 1070,-481.5 1059.86,-486.51 1048.63,-491.25 1038.01,-495.39"/>
<polygon fill="#63b8ff" stroke="#63b8ff" points="1149.12,-445.66 1157.42,-439.08 1146.83,-439.05 1149.12,-445.66"/>
</a>
</g>
</g>
<!-- Node14&#45;&gt;Node4 -->
<g id="edge15_Node000014_Node000004" class="edge">
<title>Node14&#45;&gt;Node4</title>
<g id="a_edge15_Node000014_Node000004"><a xlink:title=" ">
<path fill="none" stroke="#63b8ff" d="M1120.96,-429.5C1054.14,-429.5 951.71,-429.5 882.16,-429.5"/>
<polygon fill="#63b8ff" stroke="#63b8ff" points="1120.96,-433 1130.96,-429.5 1120.96,-426 1120.96,-433"/>
</a>
</g>
</g>
<!-- Node14&#45;&gt;Node5 -->
<g id="edge17_Node000014_Node000005" class="edge">
<title>Node14&#45;&gt;Node5</title>
<g id="a_edge17_Node000014_Node000005"><a xlink:title=" ">
<path fill="none" stroke="#63b8ff" d="M1120.78,-421.72C1031.4,-412.54 868.59,-399.92 730,-411.5 710.01,-413.17 688.13,-416.57 669.4,-419.96"/>
<polygon fill="#63b8ff" stroke="#63b8ff" points="1120.47,-425.2 1130.78,-422.76 1121.2,-418.24 1120.47,-425.2"/>
</a>
</g>
</g>
<!-- Node14&#45;&gt;Node10 -->
<g id="edge18_Node000014_Node000010" class="edge">
<title>Node14&#45;&gt;Node10</title>
<g id="a_edge18_Node000014_Node000010"><a xlink:title=" ">
<path fill="none" stroke="#63b8ff" d="M1130.73,-441.06C1076,-452.23 991.23,-469.87 918,-486.5 901.56,-490.23 883.8,-494.46 867.41,-498.45"/>
<polygon fill="#63b8ff" stroke="#63b8ff" points="1131.49,-444.48 1140.59,-439.05 1130.1,-437.62 1131.49,-444.48"/>
</a>
</g>
</g>
<!-- Node16&#45;&gt;Node3 -->
<g id="edge21_Node000016_Node000003" class="edge">
<title>Node16&#45;&gt;Node3</title>
<g id="a_edge21_Node000016_Node000003"><a xlink:title=" ">
<path fill="none" stroke="#63b8ff" d="M1104.73,-512.77C1093.22,-512.54 1081.46,-512.29 1070.11,-512.06"/>
<polygon fill="#63b8ff" stroke="#63b8ff" points="1104.69,-516.27 1114.76,-512.98 1104.83,-509.28 1104.69,-516.27"/>
</a>
</g>
</g>
<!-- Node17&#45;&gt;Node18 -->
<g id="edge23_Node000017_Node000018" class="edge">
<title>Node17&#45;&gt;Node18</title>
<g id="a_edge23_Node000017_Node000018"><a xlink:title=" ">
<path fill="none" stroke="#63b8ff" d="M1135.82,-694.45C1125.79,-691.95 1115.47,-688.97 1106,-685.5 1070.4,-672.46 1031.6,-650.61 1010.61,-638.09"/>
<polygon fill="#63b8ff" stroke="#63b8ff" points="1135.16,-697.89 1145.7,-696.79 1136.78,-691.08 1135.16,-697.89"/>
</a>
</g>
</g>
<!-- Node18&#45;&gt;Node10 -->
<g id="edge24_Node000018_Node000010" class="edge">
<title>Node18&#45;&gt;Node10</title>
<g id="a_edge24_Node000018_Node000010"><a xlink:title=" ">
<path fill="none" stroke="#63b8ff" d="M968.67,-613.46C933.02,-591.41 866.93,-550.56 831.29,-528.52"/>
<polygon fill="#63b8ff" stroke="#63b8ff" points="967.12,-616.61 977.46,-618.89 970.8,-610.66 967.12,-616.61"/>
</a>
</g>
</g>
<!-- Node20&#45;&gt;Node16 -->
<g id="edge28_Node000020_Node000016" class="edge">
<title>Node20&#45;&gt;Node16</title>
<g id="a_edge28_Node000020_Node000016"><a xlink:title=" ">
<path fill="none" stroke="#63b8ff" d="M1354.21,-624.3C1339.32,-621.66 1322.34,-617.38 1308,-610.5 1261.34,-588.1 1216.96,-543.72 1198.72,-524.16"/>
<polygon fill="#63b8ff" stroke="#63b8ff" points="1353.7,-627.77 1364.13,-625.89 1354.8,-620.85 1353.7,-627.77"/>
</a>
</g>
</g>
<!-- Node20&#45;&gt;Node18 -->
<g id="edge29_Node000020_Node000018" class="edge">
<title>Node20&#45;&gt;Node18</title>
<g id="a_edge29_Node000020_Node000018"><a xlink:title=" ">
<path fill="none" stroke="#63b8ff" d="M1353.84,-628.5C1287.35,-628.5 1148.26,-628.5 1064.11,-628.5"/>
<polygon fill="#63b8ff" stroke="#63b8ff" points="1354.25,-632 1364.25,-628.5 1354.25,-625 1354.25,-632"/>
</a>
</g>
</g>
<!-- Node20&#45;&gt;Node21 -->
<g id="edge30_Node000020_Node000021" class="edge">
<title>Node20&#45;&gt;Node21</title>
<g id="a_edge30_Node000020_Node000021"><a xlink:title=" ">
<path fill="none" stroke="#63b8ff" d="M1354.5,-635.48C1322.56,-641.5 1276.12,-650.26 1240.72,-656.93"/>
<polygon fill="#63b8ff" stroke="#63b8ff" points="1355.15,-638.92 1364.32,-633.62 1353.85,-632.04 1355.15,-638.92"/>
</a>
</g>
</g>
<!-- Node21&#45;&gt;Node18 -->
<g id="edge31_Node000021_Node000018" class="edge">
<title>Node21&#45;&gt;Node18</title>
<g id="a_edge31_Node000021_Node000018"><a xlink:title=" ">
<path fill="none" stroke="#63b8ff" d="M1129.4,-654.96C1101.87,-649.54 1069.45,-643.16 1043.35,-638.02"/>
<polygon fill="#63b8ff" stroke="#63b8ff" points="1128.81,-658.41 1139.3,-656.91 1130.16,-651.55 1128.81,-658.41"/>
</a>
</g>
</g>
<!-- Node22&#45;&gt;Node11 -->
<g id="edge35_Node000022_Node000011" class="edge">
<title>Node22&#45;&gt;Node11</title>
<g id="a_edge35_Node000022_Node000011"><a xlink:title=" ">
<path fill="none" stroke="#63b8ff" d="M1101.17,-187.5C1088.27,-186.17 1075.14,-184.8 1062.71,-183.52"/>
<polygon fill="#63b8ff" stroke="#63b8ff" points="1101.14,-191.02 1111.44,-188.57 1101.86,-184.05 1101.14,-191.02"/>
</a>
</g>
</g>
<!-- Node23&#45;&gt;Node16 -->
<g id="edge37_Node000023_Node000016" class="edge">
<title>Node23&#45;&gt;Node16</title>
<g id="a_edge37_Node000023_Node000016"><a xlink:title=" ">
<path fill="none" stroke="#63b8ff" d="M1330.83,-579.45C1323.07,-577.4 1315.29,-575.08 1308,-572.5 1270.13,-559.09 1228.56,-536.71 1206.27,-524.02"/>
<polygon fill="#63b8ff" stroke="#63b8ff" points="1330.07,-582.87 1340.62,-581.91 1331.78,-576.08 1330.07,-582.87"/>
</a>
</g>
</g>
<!-- Node23&#45;&gt;Node18 -->
<g id="edge38_Node000023_Node000018" class="edge">
<title>Node23&#45;&gt;Node18</title>
<g id="a_edge38_Node000023_Node000018"><a xlink:title=" ">
<path fill="none" stroke="#63b8ff" d="M1309.69,-599.13C1237.25,-605.89 1132.67,-615.65 1064.28,-622.04"/>
<polygon fill="#63b8ff" stroke="#63b8ff" points="1310.07,-602.61 1319.7,-598.2 1309.41,-595.64 1310.07,-602.61"/>
</a>
</g>
</g>
<!-- Node24&#45;&gt;Node16 -->
<g id="edge40_Node000024_Node000016" class="edge">
<title>Node24&#45;&gt;Node16</title>
<g id="a_edge40_Node000024_Node000016"><a xlink:title=" ">
<path fill="none" stroke="#63b8ff" d="M1315.24,-535.63C1292.42,-531.78 1267.82,-527.63 1246.5,-524.03"/>
<polygon fill="#63b8ff" stroke="#63b8ff" points="1314.8,-539.11 1325.24,-537.32 1315.96,-532.2 1314.8,-539.11"/>
</a>
</g>
</g>
<!-- Node24&#45;&gt;Node18 -->
<g id="edge41_Node000024_Node000018" class="edge">
<title>Node24&#45;&gt;Node18</title>
<g id="a_edge41_Node000024_Node000018"><a xlink:title=" ">
<path fill="none" stroke="#63b8ff" d="M1315.26,-559.93C1257.54,-569.04 1176.44,-582.85 1106,-598.5 1079.3,-604.43 1049.39,-612.61 1027.35,-618.93"/>
<polygon fill="#63b8ff" stroke="#63b8ff" points="1316.06,-563.34 1325.4,-558.34 1314.97,-556.43 1316.06,-563.34"/>
</a>
</g>
</g>
<!-- Node26 -->
<g id="Node000026" class="node">
<title>Node26</title>
<g id="a_Node000026"><a xlink:href="classTokenizer.html#a141512a45a6c06a887161961c8e41d49" target="_top" xlink:title=" ">
<polygon fill="white" stroke="#666666" points="1272,-166 1106,-166 1106,-147 1272,-147 1272,-166"/>
<text text-anchor="middle" x="1189" y="-154" font-family="Helvetica,sans-Serif" font-size="10.00">Tokenizer::parseNumberOrUnit</text>
</a>
</g>
</g>
<!-- Node25&#45;&gt;Node26 -->
<g id="edge43_Node000025_Node000026" class="edge">
<title>Node25&#45;&gt;Node26</title>
<g id="a_edge43_Node000025_Node000026"><a xlink:title=" ">
<path fill="none" stroke="#63b8ff" d="M1306.21,-151.89C1294.94,-152.33 1283.41,-152.79 1272.2,-153.24"/>
<polygon fill="#63b8ff" stroke="#63b8ff" points="1306.62,-155.37 1316.47,-151.48 1306.34,-148.38 1306.62,-155.37"/>
</a>
</g>
</g>
<!-- Node26&#45;&gt;Node11 -->
<g id="edge44_Node000026_Node000011" class="edge">
<title>Node26&#45;&gt;Node11</title>
<g id="a_edge44_Node000026_Node000011"><a xlink:title=" ">
<path fill="none" stroke="#63b8ff" d="M1095.72,-166.06C1084.62,-167.21 1073.45,-168.37 1062.79,-169.48"/>
<polygon fill="#63b8ff" stroke="#63b8ff" points="1096.28,-169.52 1105.87,-165.01 1095.56,-162.56 1096.28,-169.52"/>
</a>
</g>
</g>
<!-- Node27&#45;&gt;Node22 -->
<g id="edge47_Node000027_Node000022" class="edge">
<title>Node27&#45;&gt;Node22</title>
<g id="a_edge47_Node000027_Node000022"><a xlink:title=" ">
<path fill="none" stroke="#63b8ff" d="M1300.19,-196.5C1288.99,-196.5 1277.63,-196.5 1266.67,-196.5"/>
<polygon fill="#63b8ff" stroke="#63b8ff" points="1300.41,-200 1310.41,-196.5 1300.41,-193 1300.41,-200"/>
</a>
</g>
</g>
<!-- Node28&#45;&gt;Node16 -->
<g id="edge49_Node000028_Node000016" class="edge">
<title>Node28&#45;&gt;Node16</title>
<g id="a_edge49_Node000028_Node000016"><a xlink:title=" ">
<path fill="none" stroke="#63b8ff" d="M1297.67,-509.69C1286.08,-510.21 1274.38,-510.73 1263.17,-511.23"/>
<polygon fill="#63b8ff" stroke="#63b8ff" points="1297.96,-513.18 1307.8,-509.24 1297.65,-506.19 1297.96,-513.18"/>
</a>
</g>
</g>
<!-- Node30 -->
<g id="Node000030" class="node">
<title>Node30</title>
<g id="a_Node000030"><a xlink:href="classTokenizer.html#aeca329bc1d78e2038fc11fa3c8b519a8" target="_top" xlink:title=" ">
<polygon fill="white" stroke="#666666" points="1258.5,-123.5 1119.5,-123.5 1119.5,-93.5 1258.5,-93.5 1258.5,-123.5"/>
<text text-anchor="start" x="1127.5" y="-111.5" font-family="Helvetica,sans-Serif" font-size="10.00">Tokenizer::parseIdentifier</text>
<text text-anchor="middle" x="1189" y="-100.5" font-family="Helvetica,sans-Serif" font-size="10.00">OrKeyword</text>
</a>
</g>
</g>
<!-- Node29&#45;&gt;Node30 -->
<g id="edge51_Node000029_Node000030" class="edge">
<title>Node29&#45;&gt;Node30</title>
<g id="a_edge51_Node000029_Node000030"><a xlink:title=" ">
<path fill="none" stroke="#63b8ff" d="M1306.17,-106.77C1290.35,-107.01 1274.01,-107.25 1258.77,-107.48"/>
<polygon fill="#63b8ff" stroke="#63b8ff" points="1306.52,-110.27 1316.47,-106.62 1306.42,-103.27 1306.52,-110.27"/>
</a>
</g>
</g>
<!-- Node30&#45;&gt;Node11 -->
<g id="edge52_Node000030_Node000011" class="edge">
<title>Node30&#45;&gt;Node11</title>
<g id="a_edge52_Node000030_Node000011"><a xlink:title=" ">
<path fill="none" stroke="#63b8ff" d="M1135.63,-126.95C1099.01,-139.85 1051.59,-156.56 1022.24,-166.9"/>
<polygon fill="#63b8ff" stroke="#63b8ff" points="1136.9,-130.22 1145.17,-123.59 1134.57,-123.61 1136.9,-130.22"/>
</a>
</g>
</g>
</g>
</svg>
