<?xml version="1.0" encoding="UTF-8" standalone="no"?>
<!DOCTYPE svg PUBLIC "-//W3C//DTD SVG 1.1//EN"
 "http://www.w3.org/Graphics/SVG/1.1/DTD/svg11.dtd">
<!-- Generated by graphviz version 2.43.0 (0)
 -->
<!-- Title: src/http/HttpRequest.cpp Pages: 1 -->
<svg width="795pt" height="247pt"
 viewBox="0.00 0.00 795.00 247.00" xmlns="http://www.w3.org/2000/svg" xmlns:xlink="http://www.w3.org/1999/xlink">
<g id="graph0" class="graph" transform="scale(1 1) rotate(0) translate(4 243)">
<title>src/http/HttpRequest.cpp</title>
<!-- Node1 -->
<g id="Node000001" class="node">
<title>Node1</title>
<g id="a_Node000001"><a xlink:title=" ">
<polygon fill="#999999" stroke="#666666" points="566.5,-239 429.5,-239 429.5,-220 566.5,-220 566.5,-239"/>
<text text-anchor="middle" x="498" y="-227" font-family="Helvetica,sans-Serif" font-size="10.00">src/http/HttpRequest.cpp</text>
</a>
</g>
</g>
<!-- Node2 -->
<g id="Node000002" class="node">
<title>Node2</title>
<g id="a_Node000002"><a xlink:href="HttpRequest_8hpp.html" target="_top" xlink:title=" ">
<polygon fill="white" stroke="#666666" points="372.5,-184 251.5,-184 251.5,-165 372.5,-165 372.5,-184"/>
<text text-anchor="middle" x="312" y="-172" font-family="Helvetica,sans-Serif" font-size="10.00">http/HttpRequest.hpp</text>
</a>
</g>
</g>
<!-- Node1&#45;&gt;Node2 -->
<g id="edge1_Node000001_Node000002" class="edge">
<title>Node1&#45;&gt;Node2</title>
<g id="a_edge1_Node000001_Node000002"><a xlink:title=" ">
<path fill="none" stroke="#63b8ff" d="M468.12,-219.98C436.62,-211.01 386.83,-196.82 351.97,-186.89"/>
<polygon fill="#63b8ff" stroke="#63b8ff" points="352.69,-183.46 342.12,-184.08 350.78,-190.19 352.69,-183.46"/>
</a>
</g>
</g>
<!-- Node6 -->
<g id="Node000006" class="node">
<title>Node6</title>
<g id="a_Node000006"><a xlink:title=" ">
<polygon fill="#e0e0e0" stroke="#999999" points="32,-19 0,-19 0,0 32,0 32,-19"/>
<text text-anchor="middle" x="16" y="-7" font-family="Helvetica,sans-Serif" font-size="10.00">set</text>
</a>
</g>
</g>
<!-- Node1&#45;&gt;Node6 -->
<g id="edge26_Node000001_Node000006" class="edge">
<title>Node1&#45;&gt;Node6</title>
<g id="a_edge26_Node000001_Node000006"><a xlink:title=" ">
<path fill="none" stroke="#63b8ff" d="M429.14,-226.36C346.2,-220.52 206.28,-199.94 112,-129 73.9,-100.33 41.89,-53.35 26.27,-28.01"/>
<polygon fill="#63b8ff" stroke="#63b8ff" points="29.09,-25.92 20.93,-19.16 23.09,-29.53 29.09,-25.92"/>
</a>
</g>
</g>
<!-- Node10 -->
<g id="Node000010" class="node">
<title>Node10</title>
<g id="a_Node000010"><a xlink:href="stringUtils_8hpp.html" target="_top" xlink:title="Utility functions for parsing numeric string values.">
<polygon fill="white" stroke="#666666" points="579,-129 467,-129 467,-110 579,-110 579,-129"/>
<text text-anchor="middle" x="523" y="-117" font-family="Helvetica,sans-Serif" font-size="10.00">utils/stringUtils.hpp</text>
</a>
</g>
</g>
<!-- Node1&#45;&gt;Node10 -->
<g id="edge21_Node000001_Node000010" class="edge">
<title>Node1&#45;&gt;Node10</title>
<g id="a_edge21_Node000001_Node000010"><a xlink:title=" ">
<path fill="none" stroke="#63b8ff" d="M471.23,-219.93C442.74,-209.32 403.84,-189.59 420,-165 430.43,-149.14 447.84,-138.9 465.41,-132.31"/>
<polygon fill="#63b8ff" stroke="#63b8ff" points="466.8,-135.54 475.15,-129.01 464.55,-128.91 466.8,-135.54"/>
</a>
</g>
</g>
<!-- Node13 -->
<g id="Node000013" class="node">
<title>Node13</title>
<g id="a_Node000013"><a xlink:title=" ">
<polygon fill="#e0e0e0" stroke="#999999" points="493,-184 429,-184 429,-165 493,-165 493,-184"/>
<text text-anchor="middle" x="461" y="-172" font-family="Helvetica,sans-Serif" font-size="10.00">algorithm</text>
</a>
</g>
</g>
<!-- Node1&#45;&gt;Node13 -->
<g id="edge22_Node000001_Node000013" class="edge">
<title>Node1&#45;&gt;Node13</title>
<g id="a_edge22_Node000001_Node000013"><a xlink:title=" ">
<path fill="none" stroke="#63b8ff" d="M491.89,-219.75C486.72,-212.34 479.15,-201.5 472.81,-192.41"/>
<polygon fill="#63b8ff" stroke="#63b8ff" points="475.59,-190.29 467,-184.09 469.85,-194.29 475.59,-190.29"/>
</a>
</g>
</g>
<!-- Node14 -->
<g id="Node000014" class="node">
<title>Node14</title>
<g id="a_Node000014"><a xlink:title=" ">
<polygon fill="#e0e0e0" stroke="#999999" points="560.5,-184 511.5,-184 511.5,-165 560.5,-165 560.5,-184"/>
<text text-anchor="middle" x="536" y="-172" font-family="Helvetica,sans-Serif" font-size="10.00">cctype</text>
</a>
</g>
</g>
<!-- Node1&#45;&gt;Node14 -->
<g id="edge23_Node000001_Node000014" class="edge">
<title>Node1&#45;&gt;Node14</title>
<g id="a_edge23_Node000001_Node000014"><a xlink:title=" ">
<path fill="none" stroke="#63b8ff" d="M504.27,-219.75C509.59,-212.34 517.36,-201.5 523.88,-192.41"/>
<polygon fill="#63b8ff" stroke="#63b8ff" points="526.86,-194.26 529.84,-184.09 521.17,-190.18 526.86,-194.26"/>
</a>
</g>
</g>
<!-- Node15 -->
<g id="Node000015" class="node">
<title>Node15</title>
<g id="a_Node000015"><a xlink:title=" ">
<polygon fill="#e0e0e0" stroke="#999999" points="635,-184 579,-184 579,-165 635,-165 635,-184"/>
<text text-anchor="middle" x="607" y="-172" font-family="Helvetica,sans-Serif" font-size="10.00">iomanip</text>
</a>
</g>
</g>
<!-- Node1&#45;&gt;Node15 -->
<g id="edge24_Node000001_Node000015" class="edge">
<title>Node1&#45;&gt;Node15</title>
<g id="a_edge24_Node000001_Node000015"><a xlink:title=" ">
<path fill="none" stroke="#63b8ff" d="M515.51,-219.98C532.97,-211.5 560.01,-198.35 580.17,-188.54"/>
<polygon fill="#63b8ff" stroke="#63b8ff" points="581.71,-191.69 589.17,-184.17 578.64,-185.4 581.71,-191.69"/>
</a>
</g>
</g>
<!-- Node16 -->
<g id="Node000016" class="node">
<title>Node16</title>
<g id="a_Node000016"><a xlink:title=" ">
<polygon fill="#e0e0e0" stroke="#999999" points="713,-184 653,-184 653,-165 713,-165 713,-184"/>
<text text-anchor="middle" x="683" y="-172" font-family="Helvetica,sans-Serif" font-size="10.00">iostream</text>
</a>
</g>
</g>
<!-- Node1&#45;&gt;Node16 -->
<g id="edge25_Node000001_Node000016" class="edge">
<title>Node1&#45;&gt;Node16</title>
<g id="a_edge25_Node000001_Node000016"><a xlink:title=" ">
<path fill="none" stroke="#63b8ff" d="M527.72,-219.98C559.05,-211.01 608.57,-196.82 643.24,-186.89"/>
<polygon fill="#63b8ff" stroke="#63b8ff" points="644.39,-190.2 653.04,-184.08 642.47,-183.47 644.39,-190.2"/>
</a>
</g>
</g>
<!-- Node17 -->
<g id="Node000017" class="node">
<title>Node17</title>
<g id="a_Node000017"><a xlink:title=" ">
<polygon fill="#e0e0e0" stroke="#999999" points="787,-184 731,-184 731,-165 787,-165 787,-184"/>
<text text-anchor="middle" x="759" y="-172" font-family="Helvetica,sans-Serif" font-size="10.00">sstream</text>
</a>
</g>
</g>
<!-- Node1&#45;&gt;Node17 -->
<g id="edge27_Node000001_Node000017" class="edge">
<title>Node1&#45;&gt;Node17</title>
<g id="a_edge27_Node000001_Node000017"><a xlink:title=" ">
<path fill="none" stroke="#63b8ff" d="M543.13,-219.94C586.3,-211.66 653.49,-198.54 720.81,-184.21"/>
<polygon fill="#63b8ff" stroke="#63b8ff" points="721.69,-187.6 730.74,-182.08 720.23,-180.75 721.69,-187.6"/>
</a>
</g>
</g>
<!-- Node3 -->
<g id="Node000003" class="node">
<title>Node3</title>
<g id="a_Node000003"><a xlink:href="Server_8hpp.html" target="_top" xlink:title="Declares the Server class for virtual host configuration.">
<polygon fill="white" stroke="#666666" points="250,-129 158,-129 158,-110 250,-110 250,-129"/>
<text text-anchor="middle" x="204" y="-117" font-family="Helvetica,sans-Serif" font-size="10.00">core/Server.hpp</text>
</a>
</g>
</g>
<!-- Node2&#45;&gt;Node3 -->
<g id="edge2_Node000002_Node000003" class="edge">
<title>Node2&#45;&gt;Node3</title>
<g id="a_edge2_Node000002_Node000003"><a xlink:title=" ">
<path fill="none" stroke="#63b8ff" d="M294.65,-164.98C277.43,-156.54 250.8,-143.47 230.85,-133.68"/>
<polygon fill="#63b8ff" stroke="#63b8ff" points="232.19,-130.43 221.67,-129.17 229.1,-136.72 232.19,-130.43"/>
</a>
</g>
</g>
<!-- Node5 -->
<g id="Node000005" class="node">
<title>Node5</title>
<g id="a_Node000005"><a xlink:title=" ">
<polygon fill="#e0e0e0" stroke="#999999" points="99,-19 61,-19 61,0 99,0 99,-19"/>
<text text-anchor="middle" x="80" y="-7" font-family="Helvetica,sans-Serif" font-size="10.00">map</text>
</a>
</g>
</g>
<!-- Node2&#45;&gt;Node5 -->
<g id="edge18_Node000002_Node000005" class="edge">
<title>Node2&#45;&gt;Node5</title>
<g id="a_edge18_Node000002_Node000005"><a xlink:title=" ">
<path fill="none" stroke="#63b8ff" d="M257.64,-164.92C224.83,-158.25 182.94,-147.02 149,-129 115.88,-111.41 101.98,-107.44 85,-74 78.03,-60.27 77.16,-42.7 77.82,-29.52"/>
<polygon fill="#63b8ff" stroke="#63b8ff" points="81.33,-29.53 78.68,-19.27 74.36,-28.95 81.33,-29.53"/>
</a>
</g>
</g>
<!-- Node7 -->
<g id="Node000007" class="node">
<title>Node7</title>
<g id="a_Node000007"><a xlink:title=" ">
<polygon fill="#e0e0e0" stroke="#999999" points="414,-19 370,-19 370,0 414,0 414,-19"/>
<text text-anchor="middle" x="392" y="-7" font-family="Helvetica,sans-Serif" font-size="10.00">string</text>
</a>
</g>
</g>
<!-- Node2&#45;&gt;Node7 -->
<g id="edge19_Node000002_Node000007" class="edge">
<title>Node2&#45;&gt;Node7</title>
<g id="a_edge19_Node000002_Node000007"><a xlink:title=" ">
<path fill="none" stroke="#63b8ff" d="M316.3,-164.74C328.94,-138.98 366.17,-63.13 383.25,-28.33"/>
<polygon fill="#63b8ff" stroke="#63b8ff" points="386.41,-29.83 387.68,-19.31 380.13,-26.74 386.41,-29.83"/>
</a>
</g>
</g>
<!-- Node8 -->
<g id="Node000008" class="node">
<title>Node8</title>
<g id="a_Node000008"><a xlink:title=" ">
<polygon fill="#e0e0e0" stroke="#999999" points="282.5,-19 235.5,-19 235.5,0 282.5,0 282.5,-19"/>
<text text-anchor="middle" x="259" y="-7" font-family="Helvetica,sans-Serif" font-size="10.00">vector</text>
</a>
</g>
</g>
<!-- Node2&#45;&gt;Node8 -->
<g id="edge20_Node000002_Node000008" class="edge">
<title>Node2&#45;&gt;Node8</title>
<g id="a_edge20_Node000002_Node000008"><a xlink:title=" ">
<path fill="none" stroke="#63b8ff" d="M309.15,-164.74C300.85,-139.2 276.54,-64.43 265.09,-29.23"/>
<polygon fill="#63b8ff" stroke="#63b8ff" points="268.28,-27.73 261.86,-19.31 261.63,-29.9 268.28,-27.73"/>
</a>
</g>
</g>
<!-- Node9 -->
<g id="Node000009" class="node">
<title>Node9</title>
<g id="a_Node000009"><a xlink:href="Url_8hpp.html" target="_top" xlink:title=" ">
<polygon fill="white" stroke="#666666" points="449,-129 375,-129 375,-110 449,-110 449,-129"/>
<text text-anchor="middle" x="412" y="-117" font-family="Helvetica,sans-Serif" font-size="10.00">http/Url.hpp</text>
</a>
</g>
</g>
<!-- Node2&#45;&gt;Node9 -->
<g id="edge11_Node000002_Node000009" class="edge">
<title>Node2&#45;&gt;Node9</title>
<g id="a_edge11_Node000002_Node000009"><a xlink:title=" ">
<path fill="none" stroke="#63b8ff" d="M328.07,-164.98C343.86,-156.61 368.22,-143.7 386.63,-133.95"/>
<polygon fill="#63b8ff" stroke="#63b8ff" points="388.44,-136.95 395.64,-129.17 385.17,-130.76 388.44,-136.95"/>
</a>
</g>
</g>
<!-- Node2&#45;&gt;Node10 -->
<g id="edge13_Node000002_Node000010" class="edge">
<title>Node2&#45;&gt;Node10</title>
<g id="a_edge13_Node000002_Node000010"><a xlink:title=" ">
<path fill="none" stroke="#63b8ff" d="M345.9,-164.98C382.02,-155.91 439.32,-141.52 478.92,-131.57"/>
<polygon fill="#63b8ff" stroke="#63b8ff" points="479.99,-134.91 488.83,-129.08 478.28,-128.12 479.99,-134.91"/>
</a>
</g>
</g>
<!-- Node4 -->
<g id="Node000004" class="node">
<title>Node4</title>
<g id="a_Node000004"><a xlink:href="Location_8hpp.html" target="_top" xlink:title=" ">
<polygon fill="white" stroke="#666666" points="211.5,-74 108.5,-74 108.5,-55 211.5,-55 211.5,-74"/>
<text text-anchor="middle" x="160" y="-62" font-family="Helvetica,sans-Serif" font-size="10.00">core/Location.hpp</text>
</a>
</g>
</g>
<!-- Node3&#45;&gt;Node4 -->
<g id="edge3_Node000003_Node000004" class="edge">
<title>Node3&#45;&gt;Node4</title>
<g id="a_edge3_Node000003_Node000004"><a xlink:title=" ">
<path fill="none" stroke="#63b8ff" d="M196.73,-109.75C190.46,-102.18 181.21,-91.05 173.57,-81.84"/>
<polygon fill="#63b8ff" stroke="#63b8ff" points="176.21,-79.55 167.13,-74.09 170.83,-84.02 176.21,-79.55"/>
</a>
</g>
</g>
<!-- Node3&#45;&gt;Node5 -->
<g id="edge8_Node000003_Node000005" class="edge">
<title>Node3&#45;&gt;Node5</title>
<g id="a_edge8_Node000003_Node000005"><a xlink:title=" ">
<path fill="none" stroke="#63b8ff" d="M162.62,-109.95C140.93,-103.48 115.51,-92.44 99,-74 87.96,-61.68 83.33,-43.17 81.39,-29.31"/>
<polygon fill="#63b8ff" stroke="#63b8ff" points="84.83,-28.58 80.31,-19 77.87,-29.31 84.83,-28.58"/>
</a>
</g>
</g>
<!-- Node3&#45;&gt;Node7 -->
<g id="edge9_Node000003_Node000007" class="edge">
<title>Node3&#45;&gt;Node7</title>
<g id="a_edge9_Node000003_Node000007"><a xlink:title=" ">
<path fill="none" stroke="#63b8ff" d="M219.07,-109.84C251.6,-91.16 328.64,-46.9 367.98,-24.3"/>
<polygon fill="#63b8ff" stroke="#63b8ff" points="370.19,-27.06 377.12,-19.05 366.71,-20.99 370.19,-27.06"/>
</a>
</g>
</g>
<!-- Node3&#45;&gt;Node8 -->
<g id="edge10_Node000003_Node000008" class="edge">
<title>Node3&#45;&gt;Node8</title>
<g id="a_edge10_Node000003_Node000008"><a xlink:title=" ">
<path fill="none" stroke="#63b8ff" d="M208.5,-109.66C217.53,-91.93 238,-51.73 249.93,-28.32"/>
<polygon fill="#63b8ff" stroke="#63b8ff" points="253.17,-29.66 254.59,-19.16 246.93,-26.48 253.17,-29.66"/>
</a>
</g>
</g>
<!-- Node4&#45;&gt;Node5 -->
<g id="edge4_Node000004_Node000005" class="edge">
<title>Node4&#45;&gt;Node5</title>
<g id="a_edge4_Node000004_Node000005"><a xlink:title=" ">
<path fill="none" stroke="#63b8ff" d="M147.15,-54.98C134.86,-46.84 116.09,-34.41 101.52,-24.76"/>
<polygon fill="#63b8ff" stroke="#63b8ff" points="103.36,-21.78 93.09,-19.17 99.49,-27.61 103.36,-21.78"/>
</a>
</g>
</g>
<!-- Node4&#45;&gt;Node6 -->
<g id="edge5_Node000004_Node000006" class="edge">
<title>Node4&#45;&gt;Node6</title>
<g id="a_edge5_Node000004_Node000006"><a xlink:title=" ">
<path fill="none" stroke="#63b8ff" d="M136.86,-54.98C110.92,-45.44 68.95,-29.99 41.92,-20.04"/>
<polygon fill="#63b8ff" stroke="#63b8ff" points="42.95,-16.69 32.36,-16.52 40.54,-23.26 42.95,-16.69"/>
</a>
</g>
</g>
<!-- Node4&#45;&gt;Node7 -->
<g id="edge6_Node000004_Node000007" class="edge">
<title>Node4&#45;&gt;Node7</title>
<g id="a_edge6_Node000004_Node000007"><a xlink:title=" ">
<path fill="none" stroke="#63b8ff" d="M197.27,-54.98C242.36,-44.69 317.48,-27.52 360.04,-17.8"/>
<polygon fill="#63b8ff" stroke="#63b8ff" points="360.9,-21.2 369.86,-15.56 359.34,-14.37 360.9,-21.2"/>
</a>
</g>
</g>
<!-- Node4&#45;&gt;Node8 -->
<g id="edge7_Node000004_Node000008" class="edge">
<title>Node4&#45;&gt;Node8</title>
<g id="a_edge7_Node000004_Node000008"><a xlink:title=" ">
<path fill="none" stroke="#63b8ff" d="M175.91,-54.98C191.55,-46.61 215.66,-33.7 233.88,-23.95"/>
<polygon fill="#63b8ff" stroke="#63b8ff" points="235.64,-26.98 242.8,-19.17 232.34,-20.8 235.64,-26.98"/>
</a>
</g>
</g>
<!-- Node9&#45;&gt;Node7 -->
<g id="edge12_Node000009_Node000007" class="edge">
<title>Node9&#45;&gt;Node7</title>
<g id="a_edge12_Node000009_Node000007"><a xlink:title=" ">
<path fill="none" stroke="#63b8ff" d="M411.76,-109.79C411.28,-97.47 409.91,-74.32 406,-55 404.23,-46.27 401.4,-36.82 398.74,-28.89"/>
<polygon fill="#63b8ff" stroke="#63b8ff" points="401.96,-27.5 395.35,-19.22 395.36,-29.82 401.96,-27.5"/>
</a>
</g>
</g>
<!-- Node10&#45;&gt;Node7 -->
<g id="edge16_Node000010_Node000007" class="edge">
<title>Node10&#45;&gt;Node7</title>
<g id="a_edge16_Node000010_Node000007"><a xlink:title=" ">
<path fill="none" stroke="#63b8ff" d="M512.28,-109.66C489.91,-91.22 438.03,-48.45 410.28,-25.57"/>
<polygon fill="#63b8ff" stroke="#63b8ff" points="412.44,-22.82 402.5,-19.16 407.99,-28.22 412.44,-22.82"/>
</a>
</g>
</g>
<!-- Node10&#45;&gt;Node8 -->
<g id="edge17_Node000010_Node000008" class="edge">
<title>Node10&#45;&gt;Node8</title>
<g id="a_edge17_Node000010_Node000008"><a xlink:title=" ">
<path fill="none" stroke="#63b8ff" d="M501.84,-109.84C455.19,-90.76 343.36,-45.01 289.29,-22.89"/>
<polygon fill="#63b8ff" stroke="#63b8ff" points="290.47,-19.59 279.89,-19.05 287.82,-26.07 290.47,-19.59"/>
</a>
</g>
</g>
<!-- Node11 -->
<g id="Node000011" class="node">
<title>Node11</title>
<g id="a_Node000011"><a xlink:title=" ">
<polygon fill="#e0e0e0" stroke="#999999" points="549.5,-74 496.5,-74 496.5,-55 549.5,-55 549.5,-74"/>
<text text-anchor="middle" x="523" y="-62" font-family="Helvetica,sans-Serif" font-size="10.00">cstddef</text>
</a>
</g>
</g>
<!-- Node10&#45;&gt;Node11 -->
<g id="edge14_Node000010_Node000011" class="edge">
<title>Node10&#45;&gt;Node11</title>
<g id="a_edge14_Node000010_Node000011"><a xlink:title=" ">
<path fill="none" stroke="#63b8ff" d="M523,-109.75C523,-102.8 523,-92.85 523,-84.13"/>
<polygon fill="#63b8ff" stroke="#63b8ff" points="526.5,-84.09 523,-74.09 519.5,-84.09 526.5,-84.09"/>
</a>
</g>
</g>
<!-- Node12 -->
<g id="Node000012" class="node">
<title>Node12</title>
<g id="a_Node000012"><a xlink:title=" ">
<polygon fill="#e0e0e0" stroke="#999999" points="632.5,-74 567.5,-74 567.5,-55 632.5,-55 632.5,-74"/>
<text text-anchor="middle" x="600" y="-62" font-family="Helvetica,sans-Serif" font-size="10.00">functional</text>
</a>
</g>
</g>
<!-- Node10&#45;&gt;Node12 -->
<g id="edge15_Node000010_Node000012" class="edge">
<title>Node10&#45;&gt;Node12</title>
<g id="a_edge15_Node000010_Node000012"><a xlink:title=" ">
<path fill="none" stroke="#63b8ff" d="M535.37,-109.98C547.09,-101.92 564.92,-89.65 578.89,-80.03"/>
<polygon fill="#63b8ff" stroke="#63b8ff" points="581.15,-82.72 587.4,-74.17 577.18,-76.96 581.15,-82.72"/>
</a>
</g>
</g>
</g>
</svg>
