<?xml version="1.0" encoding="UTF-8" standalone="no"?>
<!DOCTYPE svg PUBLIC "-//W3C//DTD SVG 1.1//EN"
 "http://www.w3.org/Graphics/SVG/1.1/DTD/svg11.dtd">
<!-- Generated by graphviz version 2.43.0 (0)
 -->
<!-- Title: include/http/responseBuilder.hpp Pages: 1 -->
<svg width="564pt" height="302pt"
 viewBox="0.00 0.00 564.00 302.00" xmlns="http://www.w3.org/2000/svg" xmlns:xlink="http://www.w3.org/1999/xlink">
<g id="graph0" class="graph" transform="scale(1 1) rotate(0) translate(4 298)">
<title>include/http/responseBuilder.hpp</title>
<!-- Node1 -->
<g id="Node000001" class="node">
<title>Node1</title>
<g id="a_Node000001"><a xlink:title=" ">
<polygon fill="#999999" stroke="#666666" points="326,-294 150,-294 150,-275 326,-275 326,-294"/>
<text text-anchor="middle" x="238" y="-282" font-family="Helvetica,sans-Serif" font-size="10.00">include/http/responseBuilder.hpp</text>
</a>
</g>
</g>
<!-- Node2 -->
<g id="Node000002" class="node">
<title>Node2</title>
<g id="a_Node000002"><a xlink:href="Server_8hpp.html" target="_top" xlink:title="Declares the Server class for virtual host configuration.">
<polygon fill="white" stroke="#666666" points="174,-129 82,-129 82,-110 174,-110 174,-129"/>
<text text-anchor="middle" x="128" y="-117" font-family="Helvetica,sans-Serif" font-size="10.00">core/Server.hpp</text>
</a>
</g>
</g>
<!-- Node1&#45;&gt;Node2 -->
<g id="edge1_Node000001_Node000002" class="edge">
<title>Node1&#45;&gt;Node2</title>
<g id="a_edge1_Node000001_Node000002"><a xlink:title=" ">
<path fill="none" stroke="#63b8ff" d="M166.84,-274.95C145.03,-268.6 123.29,-257.69 110,-239 88.49,-208.74 105.7,-163.1 118.11,-138.22"/>
<polygon fill="#63b8ff" stroke="#63b8ff" points="121.3,-139.69 122.86,-129.21 115.1,-136.43 121.3,-139.69"/>
</a>
</g>
</g>
<!-- Node6 -->
<g id="Node000006" class="node">
<title>Node6</title>
<g id="a_Node000006"><a xlink:title=" ">
<polygon fill="#e0e0e0" stroke="#999999" points="464,-19 420,-19 420,0 464,0 464,-19"/>
<text text-anchor="middle" x="442" y="-7" font-family="Helvetica,sans-Serif" font-size="10.00">string</text>
</a>
</g>
</g>
<!-- Node1&#45;&gt;Node6 -->
<g id="edge29_Node000001_Node000006" class="edge">
<title>Node1&#45;&gt;Node6</title>
<g id="a_edge29_Node000001_Node000006"><a xlink:title=" ">
<path fill="none" stroke="#63b8ff" d="M302.35,-274.94C395.27,-260.76 556,-228.56 556,-175.5 556,-175.5 556,-175.5 556,-118.5 556,-72.47 506.42,-40.18 472.65,-23.53"/>
<polygon fill="#63b8ff" stroke="#63b8ff" points="473.71,-20.16 463.18,-19.05 470.72,-26.49 473.71,-20.16"/>
</a>
</g>
</g>
<!-- Node8 -->
<g id="Node000008" class="node">
<title>Node8</title>
<g id="a_Node000008"><a xlink:href="HttpRequest_8hpp.html" target="_top" xlink:title=" ">
<polygon fill="white" stroke="#666666" points="352.5,-184 231.5,-184 231.5,-165 352.5,-165 352.5,-184"/>
<text text-anchor="middle" x="292" y="-172" font-family="Helvetica,sans-Serif" font-size="10.00">http/HttpRequest.hpp</text>
</a>
</g>
</g>
<!-- Node1&#45;&gt;Node8 -->
<g id="edge10_Node000001_Node000008" class="edge">
<title>Node1&#45;&gt;Node8</title>
<g id="a_edge10_Node000001_Node000008"><a xlink:title=" ">
<path fill="none" stroke="#63b8ff" d="M246.92,-274.73C255.06,-266.28 266.87,-252.76 274,-239 281.34,-224.84 286.02,-207.3 288.76,-194.24"/>
<polygon fill="#63b8ff" stroke="#63b8ff" points="292.26,-194.6 290.69,-184.12 285.38,-193.29 292.26,-194.6"/>
</a>
</g>
</g>
<!-- Node13 -->
<g id="Node000013" class="node">
<title>Node13</title>
<g id="a_Node000013"><a xlink:href="HttpResponse_8hpp.html" target="_top" xlink:title=" ">
<polygon fill="white" stroke="#666666" points="247,-239 119,-239 119,-220 247,-220 247,-239"/>
<text text-anchor="middle" x="183" y="-227" font-family="Helvetica,sans-Serif" font-size="10.00">http/HttpResponse.hpp</text>
</a>
</g>
</g>
<!-- Node1&#45;&gt;Node13 -->
<g id="edge22_Node000001_Node000013" class="edge">
<title>Node1&#45;&gt;Node13</title>
<g id="a_edge22_Node000001_Node000013"><a xlink:title=" ">
<path fill="none" stroke="#63b8ff" d="M228.92,-274.75C220.91,-267.03 209.04,-255.6 199.38,-246.28"/>
<polygon fill="#63b8ff" stroke="#63b8ff" points="201.54,-243.51 191.91,-239.09 196.69,-248.55 201.54,-243.51"/>
</a>
</g>
</g>
<!-- Node3 -->
<g id="Node000003" class="node">
<title>Node3</title>
<g id="a_Node000003"><a xlink:href="Location_8hpp.html" target="_top" xlink:title=" ">
<polygon fill="white" stroke="#666666" points="169.5,-74 66.5,-74 66.5,-55 169.5,-55 169.5,-74"/>
<text text-anchor="middle" x="118" y="-62" font-family="Helvetica,sans-Serif" font-size="10.00">core/Location.hpp</text>
</a>
</g>
</g>
<!-- Node2&#45;&gt;Node3 -->
<g id="edge2_Node000002_Node000003" class="edge">
<title>Node2&#45;&gt;Node3</title>
<g id="a_edge2_Node000002_Node000003"><a xlink:title=" ">
<path fill="none" stroke="#63b8ff" d="M126.35,-109.75C125.04,-102.8 123.16,-92.85 121.52,-84.13"/>
<polygon fill="#63b8ff" stroke="#63b8ff" points="124.91,-83.27 119.62,-74.09 118.04,-84.56 124.91,-83.27"/>
</a>
</g>
</g>
<!-- Node4 -->
<g id="Node000004" class="node">
<title>Node4</title>
<g id="a_Node000004"><a xlink:title=" ">
<polygon fill="#e0e0e0" stroke="#999999" points="38,-19 0,-19 0,0 38,0 38,-19"/>
<text text-anchor="middle" x="19" y="-7" font-family="Helvetica,sans-Serif" font-size="10.00">map</text>
</a>
</g>
</g>
<!-- Node2&#45;&gt;Node4 -->
<g id="edge7_Node000002_Node000004" class="edge">
<title>Node2&#45;&gt;Node4</title>
<g id="a_edge7_Node000002_Node000004"><a xlink:title=" ">
<path fill="none" stroke="#63b8ff" d="M109.42,-109.95C94.02,-102.19 72.27,-89.59 57,-74 43.96,-60.69 33.5,-42.08 26.88,-28.45"/>
<polygon fill="#63b8ff" stroke="#63b8ff" points="29.96,-26.77 22.59,-19.16 23.61,-29.71 29.96,-26.77"/>
</a>
</g>
</g>
<!-- Node2&#45;&gt;Node6 -->
<g id="edge8_Node000002_Node000006" class="edge">
<title>Node2&#45;&gt;Node6</title>
<g id="a_edge8_Node000002_Node000006"><a xlink:title=" ">
<path fill="none" stroke="#63b8ff" d="M174.15,-119.4C228.02,-118.53 318.24,-110.94 385,-74 404.78,-63.06 421.23,-42.6 431.29,-27.86"/>
<polygon fill="#63b8ff" stroke="#63b8ff" points="434.44,-29.45 436.95,-19.15 428.57,-25.63 434.44,-29.45"/>
</a>
</g>
</g>
<!-- Node7 -->
<g id="Node000007" class="node">
<title>Node7</title>
<g id="a_Node000007"><a xlink:title=" ">
<polygon fill="#e0e0e0" stroke="#999999" points="227.5,-19 180.5,-19 180.5,0 227.5,0 227.5,-19"/>
<text text-anchor="middle" x="204" y="-7" font-family="Helvetica,sans-Serif" font-size="10.00">vector</text>
</a>
</g>
</g>
<!-- Node2&#45;&gt;Node7 -->
<g id="edge9_Node000002_Node000007" class="edge">
<title>Node2&#45;&gt;Node7</title>
<g id="a_edge9_Node000002_Node000007"><a xlink:title=" ">
<path fill="none" stroke="#63b8ff" d="M140.87,-109.98C152.23,-101.89 168.57,-88.79 179,-74 188.6,-60.38 195.2,-42.57 199.19,-29.27"/>
<polygon fill="#63b8ff" stroke="#63b8ff" points="202.64,-29.93 201.95,-19.36 195.9,-28.06 202.64,-29.93"/>
</a>
</g>
</g>
<!-- Node3&#45;&gt;Node4 -->
<g id="edge3_Node000003_Node000004" class="edge">
<title>Node3&#45;&gt;Node4</title>
<g id="a_edge3_Node000003_Node000004"><a xlink:title=" ">
<path fill="none" stroke="#63b8ff" d="M102.09,-54.98C86.45,-46.61 62.34,-33.7 44.12,-23.95"/>
<polygon fill="#63b8ff" stroke="#63b8ff" points="45.66,-20.8 35.2,-19.17 42.36,-26.98 45.66,-20.8"/>
</a>
</g>
</g>
<!-- Node5 -->
<g id="Node000005" class="node">
<title>Node5</title>
<g id="a_Node000005"><a xlink:title=" ">
<polygon fill="#e0e0e0" stroke="#999999" points="134,-19 102,-19 102,0 134,0 134,-19"/>
<text text-anchor="middle" x="118" y="-7" font-family="Helvetica,sans-Serif" font-size="10.00">set</text>
</a>
</g>
</g>
<!-- Node3&#45;&gt;Node5 -->
<g id="edge4_Node000003_Node000005" class="edge">
<title>Node3&#45;&gt;Node5</title>
<g id="a_edge4_Node000003_Node000005"><a xlink:title=" ">
<path fill="none" stroke="#63b8ff" d="M118,-54.75C118,-47.8 118,-37.85 118,-29.13"/>
<polygon fill="#63b8ff" stroke="#63b8ff" points="121.5,-29.09 118,-19.09 114.5,-29.09 121.5,-29.09"/>
</a>
</g>
</g>
<!-- Node3&#45;&gt;Node6 -->
<g id="edge5_Node000003_Node000006" class="edge">
<title>Node3&#45;&gt;Node6</title>
<g id="a_edge5_Node000003_Node000006"><a xlink:title=" ">
<path fill="none" stroke="#63b8ff" d="M169.69,-55.81C225.95,-47.32 318.5,-32.99 398,-19 401.74,-18.34 405.66,-17.62 409.55,-16.89"/>
<polygon fill="#63b8ff" stroke="#63b8ff" points="410.48,-20.28 419.64,-14.97 409.16,-13.41 410.48,-20.28"/>
</a>
</g>
</g>
<!-- Node3&#45;&gt;Node7 -->
<g id="edge6_Node000003_Node000007" class="edge">
<title>Node3&#45;&gt;Node7</title>
<g id="a_edge6_Node000003_Node000007"><a xlink:title=" ">
<path fill="none" stroke="#63b8ff" d="M131.82,-54.98C145.15,-46.77 165.58,-34.18 181.31,-24.49"/>
<polygon fill="#63b8ff" stroke="#63b8ff" points="183.25,-27.4 189.93,-19.17 179.58,-21.44 183.25,-27.4"/>
</a>
</g>
</g>
<!-- Node8&#45;&gt;Node2 -->
<g id="edge11_Node000008_Node000002" class="edge">
<title>Node8&#45;&gt;Node2</title>
<g id="a_edge11_Node000008_Node000002"><a xlink:title=" ">
<path fill="none" stroke="#63b8ff" d="M265.65,-164.98C238.24,-156.13 195.11,-142.19 164.44,-132.28"/>
<polygon fill="#63b8ff" stroke="#63b8ff" points="165.15,-128.83 154.56,-129.08 163,-135.49 165.15,-128.83"/>
</a>
</g>
</g>
<!-- Node8&#45;&gt;Node4 -->
<g id="edge19_Node000008_Node000004" class="edge">
<title>Node8&#45;&gt;Node4</title>
<g id="a_edge19_Node000008_Node000004"><a xlink:title=" ">
<path fill="none" stroke="#63b8ff" d="M239.06,-164.97C178.7,-154.9 86.59,-138.34 73,-129 39.42,-105.91 26.36,-56.59 21.57,-29.42"/>
<polygon fill="#63b8ff" stroke="#63b8ff" points="24.98,-28.62 19.98,-19.28 18.07,-29.7 24.98,-28.62"/>
</a>
</g>
</g>
<!-- Node8&#45;&gt;Node6 -->
<g id="edge20_Node000008_Node000006" class="edge">
<title>Node8&#45;&gt;Node6</title>
<g id="a_edge20_Node000008_Node000006"><a xlink:title=" ">
<path fill="none" stroke="#63b8ff" d="M305.57,-164.79C329.25,-149.04 378.61,-113.74 410,-74 420.87,-60.24 429.53,-42.2 435.08,-28.87"/>
<polygon fill="#63b8ff" stroke="#63b8ff" points="438.42,-29.94 438.86,-19.36 431.91,-27.36 438.42,-29.94"/>
</a>
</g>
</g>
<!-- Node8&#45;&gt;Node7 -->
<g id="edge21_Node000008_Node000007" class="edge">
<title>Node8&#45;&gt;Node7</title>
<g id="a_edge21_Node000008_Node000007"><a xlink:title=" ">
<path fill="none" stroke="#63b8ff" d="M287.27,-164.74C273.36,-138.98 232.42,-63.13 213.62,-28.33"/>
<polygon fill="#63b8ff" stroke="#63b8ff" points="216.59,-26.44 208.75,-19.31 210.43,-29.77 216.59,-26.44"/>
</a>
</g>
</g>
<!-- Node9 -->
<g id="Node000009" class="node">
<title>Node9</title>
<g id="a_Node000009"><a xlink:href="Url_8hpp.html" target="_top" xlink:title=" ">
<polygon fill="white" stroke="#666666" points="490,-129 416,-129 416,-110 490,-110 490,-129"/>
<text text-anchor="middle" x="453" y="-117" font-family="Helvetica,sans-Serif" font-size="10.00">http/Url.hpp</text>
</a>
</g>
</g>
<!-- Node8&#45;&gt;Node9 -->
<g id="edge12_Node000008_Node000009" class="edge">
<title>Node8&#45;&gt;Node9</title>
<g id="a_edge12_Node000008_Node000009"><a xlink:title=" ">
<path fill="none" stroke="#63b8ff" d="M317.87,-164.98C344.78,-156.13 387.12,-142.19 417.23,-132.28"/>
<polygon fill="#63b8ff" stroke="#63b8ff" points="418.53,-135.53 426.93,-129.08 416.34,-128.88 418.53,-135.53"/>
</a>
</g>
</g>
<!-- Node10 -->
<g id="Node000010" class="node">
<title>Node10</title>
<g id="a_Node000010"><a xlink:href="stringUtils_8hpp.html" target="_top" xlink:title="Utility functions for parsing numeric string values.">
<polygon fill="white" stroke="#666666" points="376,-74 264,-74 264,-55 376,-55 376,-74"/>
<text text-anchor="middle" x="320" y="-62" font-family="Helvetica,sans-Serif" font-size="10.00">utils/stringUtils.hpp</text>
</a>
</g>
</g>
<!-- Node8&#45;&gt;Node10 -->
<g id="edge14_Node000008_Node000010" class="edge">
<title>Node8&#45;&gt;Node10</title>
<g id="a_edge14_Node000008_Node000010"><a xlink:title=" ">
<path fill="none" stroke="#63b8ff" d="M294.29,-164.66C298.85,-147.09 309.12,-107.45 315.22,-83.95"/>
<polygon fill="#63b8ff" stroke="#63b8ff" points="318.63,-84.72 317.76,-74.16 311.86,-82.96 318.63,-84.72"/>
</a>
</g>
</g>
<!-- Node9&#45;&gt;Node6 -->
<g id="edge13_Node000009_Node000006" class="edge">
<title>Node9&#45;&gt;Node6</title>
<g id="a_edge13_Node000009_Node000006"><a xlink:title=" ">
<path fill="none" stroke="#63b8ff" d="M454.5,-109.82C456.37,-97.53 458.98,-74.42 456,-55 454.65,-46.19 451.87,-36.74 449.15,-28.82"/>
<polygon fill="#63b8ff" stroke="#63b8ff" points="452.34,-27.35 445.6,-19.18 445.77,-29.77 452.34,-27.35"/>
</a>
</g>
</g>
<!-- Node10&#45;&gt;Node6 -->
<g id="edge17_Node000010_Node000006" class="edge">
<title>Node10&#45;&gt;Node6</title>
<g id="a_edge17_Node000010_Node000006"><a xlink:title=" ">
<path fill="none" stroke="#63b8ff" d="M339.6,-54.98C359.32,-46.42 389.95,-33.11 412.58,-23.28"/>
<polygon fill="#63b8ff" stroke="#63b8ff" points="414.26,-26.37 422.04,-19.17 411.48,-19.94 414.26,-26.37"/>
</a>
</g>
</g>
<!-- Node10&#45;&gt;Node7 -->
<g id="edge18_Node000010_Node000007" class="edge">
<title>Node10&#45;&gt;Node7</title>
<g id="a_edge18_Node000010_Node000007"><a xlink:title=" ">
<path fill="none" stroke="#63b8ff" d="M301.36,-54.98C282.7,-46.46 253.75,-33.23 232.26,-23.41"/>
<polygon fill="#63b8ff" stroke="#63b8ff" points="233.53,-20.14 222.98,-19.17 230.62,-26.51 233.53,-20.14"/>
</a>
</g>
</g>
<!-- Node11 -->
<g id="Node000011" class="node">
<title>Node11</title>
<g id="a_Node000011"><a xlink:title=" ">
<polygon fill="#e0e0e0" stroke="#999999" points="305.5,-19 252.5,-19 252.5,0 305.5,0 305.5,-19"/>
<text text-anchor="middle" x="279" y="-7" font-family="Helvetica,sans-Serif" font-size="10.00">cstddef</text>
</a>
</g>
</g>
<!-- Node10&#45;&gt;Node11 -->
<g id="edge15_Node000010_Node000011" class="edge">
<title>Node10&#45;&gt;Node11</title>
<g id="a_edge15_Node000010_Node000011"><a xlink:title=" ">
<path fill="none" stroke="#63b8ff" d="M313.23,-54.75C307.44,-47.26 298.94,-36.28 291.86,-27.13"/>
<polygon fill="#63b8ff" stroke="#63b8ff" points="294.53,-24.86 285.64,-19.09 288.99,-29.14 294.53,-24.86"/>
</a>
</g>
</g>
<!-- Node12 -->
<g id="Node000012" class="node">
<title>Node12</title>
<g id="a_Node000012"><a xlink:title=" ">
<polygon fill="#e0e0e0" stroke="#999999" points="388.5,-19 323.5,-19 323.5,0 388.5,0 388.5,-19"/>
<text text-anchor="middle" x="356" y="-7" font-family="Helvetica,sans-Serif" font-size="10.00">functional</text>
</a>
</g>
</g>
<!-- Node10&#45;&gt;Node12 -->
<g id="edge16_Node000010_Node000012" class="edge">
<title>Node10&#45;&gt;Node12</title>
<g id="a_edge16_Node000010_Node000012"><a xlink:title=" ">
<path fill="none" stroke="#63b8ff" d="M325.94,-54.75C330.98,-47.34 338.34,-36.5 344.51,-27.41"/>
<polygon fill="#63b8ff" stroke="#63b8ff" points="347.44,-29.33 350.17,-19.09 341.65,-25.39 347.44,-29.33"/>
</a>
</g>
</g>
<!-- Node13&#45;&gt;Node2 -->
<g id="edge23_Node000013_Node000002" class="edge">
<title>Node13&#45;&gt;Node2</title>
<g id="a_edge23_Node000013_Node000002"><a xlink:title=" ">
<path fill="none" stroke="#63b8ff" d="M174.12,-219.71C166.02,-211.24 154.23,-197.71 147,-184 139.52,-169.83 134.56,-152.29 131.59,-139.24"/>
<polygon fill="#63b8ff" stroke="#63b8ff" points="134.94,-138.2 129.47,-129.12 128.09,-139.63 134.94,-138.2"/>
</a>
</g>
</g>
<!-- Node13&#45;&gt;Node4 -->
<g id="edge26_Node000013_Node000004" class="edge">
<title>Node13&#45;&gt;Node4</title>
<g id="a_edge26_Node000013_Node000004"><a xlink:title=" ">
<path fill="none" stroke="#63b8ff" d="M166.66,-219.81C139.36,-204.6 84.12,-170.76 50,-129 32.89,-108.06 30.95,-100.13 24,-74 20.12,-59.44 18.96,-42.38 18.71,-29.62"/>
<polygon fill="#63b8ff" stroke="#63b8ff" points="22.21,-29.29 18.7,-19.3 15.21,-29.3 22.21,-29.29"/>
</a>
</g>
</g>
<!-- Node13&#45;&gt;Node6 -->
<g id="edge27_Node000013_Node000006" class="edge">
<title>Node13&#45;&gt;Node6</title>
<g id="a_edge27_Node000013_Node000006"><a xlink:title=" ">
<path fill="none" stroke="#63b8ff" d="M235.56,-219.96C317.45,-205.41 469.2,-173.07 499,-129 522.09,-94.85 484.24,-49.91 459.94,-26.4"/>
<polygon fill="#63b8ff" stroke="#63b8ff" points="462.02,-23.56 452.32,-19.29 457.25,-28.68 462.02,-23.56"/>
</a>
</g>
</g>
<!-- Node13&#45;&gt;Node8 -->
<g id="edge24_Node000013_Node000008" class="edge">
<title>Node13&#45;&gt;Node8</title>
<g id="a_edge24_Node000013_Node000008"><a xlink:title=" ">
<path fill="none" stroke="#63b8ff" d="M200.51,-219.98C217.97,-211.5 245.01,-198.35 265.17,-188.54"/>
<polygon fill="#63b8ff" stroke="#63b8ff" points="266.71,-191.69 274.17,-184.17 263.64,-185.4 266.71,-191.69"/>
</a>
</g>
</g>
<!-- Node13&#45;&gt;Node13 -->
<g id="edge25_Node000013_Node000013" class="edge">
<title>Node13&#45;&gt;Node13</title>
<g id="a_edge25_Node000013_Node000013"><a xlink:title=" ">
<path fill="none" stroke="#63b8ff" d="M221.38,-239.03C243.91,-241.06 265,-237.88 265,-229.5 265,-222.39 249.85,-219.03 231.51,-219.4"/>
<polygon fill="#63b8ff" stroke="#63b8ff" points="231.17,-215.92 221.38,-219.97 231.56,-222.91 231.17,-215.92"/>
</a>
</g>
</g>
<!-- Node14 -->
<g id="Node000014" class="node">
<title>Node14</title>
<g id="a_Node000014"><a xlink:title=" ">
<polygon fill="#e0e0e0" stroke="#999999" points="212,-184 156,-184 156,-165 212,-165 212,-184"/>
<text text-anchor="middle" x="184" y="-172" font-family="Helvetica,sans-Serif" font-size="10.00">unistd.h</text>
</a>
</g>
</g>
<!-- Node13&#45;&gt;Node14 -->
<g id="edge28_Node000013_Node000014" class="edge">
<title>Node13&#45;&gt;Node14</title>
<g id="a_edge28_Node000013_Node000014"><a xlink:title=" ">
<path fill="none" stroke="#63b8ff" d="M183.17,-219.75C183.3,-212.8 183.48,-202.85 183.65,-194.13"/>
<polygon fill="#63b8ff" stroke="#63b8ff" points="187.15,-194.15 183.84,-184.09 180.15,-194.02 187.15,-194.15"/>
</a>
</g>
</g>
</g>
</svg>
