<?xml version="1.0" encoding="UTF-8" standalone="no"?>
<!DOCTYPE svg PUBLIC "-//W3C//DTD SVG 1.1//EN"
 "http://www.w3.org/Graphics/SVG/1.1/DTD/svg11.dtd">
<!-- Generated by graphviz version 2.43.0 (0)
 -->
<!-- Title: src/core/Server.cpp Pages: 1 -->
<svg width="652pt" height="192pt"
 viewBox="0.00 0.00 652.00 192.00" xmlns="http://www.w3.org/2000/svg" xmlns:xlink="http://www.w3.org/1999/xlink">
<g id="graph0" class="graph" transform="scale(1 1) rotate(0) translate(4 188)">
<title>src/core/Server.cpp</title>
<!-- Node1 -->
<g id="Node000001" class="node">
<title>Node1</title>
<g id="a_Node000001"><a xlink:title="Implements the Server class used for virtual host configuration.">
<polygon fill="#999999" stroke="#666666" points="522.5,-184 413.5,-184 413.5,-165 522.5,-165 522.5,-184"/>
<text text-anchor="middle" x="468" y="-172" font-family="Helvetica,sans-Serif" font-size="10.00">src/core/Server.cpp</text>
</a>
</g>
</g>
<!-- Node2 -->
<g id="Node000002" class="node">
<title>Node2</title>
<g id="a_Node000002"><a xlink:href="Server_8hpp.html" target="_top" xlink:title="Declares the Server class for virtual host configuration.">
<polygon fill="white" stroke="#666666" points="285,-129 193,-129 193,-110 285,-110 285,-129"/>
<text text-anchor="middle" x="239" y="-117" font-family="Helvetica,sans-Serif" font-size="10.00">core/Server.hpp</text>
</a>
</g>
</g>
<!-- Node1&#45;&gt;Node2 -->
<g id="edge1_Node000001_Node000002" class="edge">
<title>Node1&#45;&gt;Node2</title>
<g id="a_edge1_Node000001_Node000002"><a xlink:title=" ">
<path fill="none" stroke="#63b8ff" d="M431.21,-164.98C391.76,-155.86 329.02,-141.33 286.02,-131.38"/>
<polygon fill="#63b8ff" stroke="#63b8ff" points="286.61,-127.93 276.08,-129.08 285.03,-134.75 286.61,-127.93"/>
</a>
</g>
</g>
<!-- Node9 -->
<g id="Node000009" class="node">
<title>Node9</title>
<g id="a_Node000009"><a xlink:title=" ">
<polygon fill="#e0e0e0" stroke="#999999" points="378.5,-74 305.5,-74 305.5,-55 378.5,-55 378.5,-74"/>
<text text-anchor="middle" x="342" y="-62" font-family="Helvetica,sans-Serif" font-size="10.00">string_view</text>
</a>
</g>
</g>
<!-- Node1&#45;&gt;Node9 -->
<g id="edge19_Node000001_Node000009" class="edge">
<title>Node1&#45;&gt;Node9</title>
<g id="a_edge19_Node000001_Node000009"><a xlink:title=" ">
<path fill="none" stroke="#63b8ff" d="M453.71,-164.91C440.12,-156.47 419.38,-142.88 403,-129 385.78,-114.41 368.13,-95.52 356.28,-82.15"/>
<polygon fill="#63b8ff" stroke="#63b8ff" points="358.6,-79.49 349.39,-74.26 353.33,-84.1 358.6,-79.49"/>
</a>
</g>
</g>
<!-- Node10 -->
<g id="Node000010" class="node">
<title>Node10</title>
<g id="a_Node000010"><a xlink:href="stringUtils_8hpp.html" target="_top" xlink:title=" ">
<polygon fill="white" stroke="#666666" points="524,-129 412,-129 412,-110 524,-110 524,-129"/>
<text text-anchor="middle" x="468" y="-117" font-family="Helvetica,sans-Serif" font-size="10.00">utils/stringUtils.hpp</text>
</a>
</g>
</g>
<!-- Node1&#45;&gt;Node10 -->
<g id="edge12_Node000001_Node000010" class="edge">
<title>Node1&#45;&gt;Node10</title>
<g id="a_edge12_Node000001_Node000010"><a xlink:title=" ">
<path fill="none" stroke="#63b8ff" d="M468,-164.75C468,-157.8 468,-147.85 468,-139.13"/>
<polygon fill="#63b8ff" stroke="#63b8ff" points="471.5,-139.09 468,-129.09 464.5,-139.09 471.5,-139.09"/>
</a>
</g>
</g>
<!-- Node11 -->
<g id="Node000011" class="node">
<title>Node11</title>
<g id="a_Node000011"><a xlink:title=" ">
<polygon fill="#e0e0e0" stroke="#999999" points="610.5,-74 557.5,-74 557.5,-55 610.5,-55 610.5,-74"/>
<text text-anchor="middle" x="584" y="-62" font-family="Helvetica,sans-Serif" font-size="10.00">cstddef</text>
</a>
</g>
</g>
<!-- Node1&#45;&gt;Node11 -->
<g id="edge18_Node000001_Node000011" class="edge">
<title>Node1&#45;&gt;Node11</title>
<g id="a_edge18_Node000001_Node000011"><a xlink:title=" ">
<path fill="none" stroke="#63b8ff" d="M483.11,-164.91C496.9,-156.68 517.45,-143.41 533,-129 548.17,-114.95 562.65,-96.23 572.28,-82.76"/>
<polygon fill="#63b8ff" stroke="#63b8ff" points="575.27,-84.6 578.12,-74.39 569.53,-80.59 575.27,-84.6"/>
</a>
</g>
</g>
<!-- Node13 -->
<g id="Node000013" class="node">
<title>Node13</title>
<g id="a_Node000013"><a xlink:title=" ">
<polygon fill="#e0e0e0" stroke="#999999" points="644,-129 580,-129 580,-110 644,-110 644,-129"/>
<text text-anchor="middle" x="612" y="-117" font-family="Helvetica,sans-Serif" font-size="10.00">algorithm</text>
</a>
</g>
</g>
<!-- Node1&#45;&gt;Node13 -->
<g id="edge17_Node000001_Node000013" class="edge">
<title>Node1&#45;&gt;Node13</title>
<g id="a_edge17_Node000001_Node000013"><a xlink:title=" ">
<path fill="none" stroke="#63b8ff" d="M491.14,-164.98C514.82,-156.27 551.87,-142.63 578.71,-132.75"/>
<polygon fill="#63b8ff" stroke="#63b8ff" points="580.27,-135.91 588.44,-129.17 577.85,-129.34 580.27,-135.91"/>
</a>
</g>
</g>
<!-- Node3 -->
<g id="Node000003" class="node">
<title>Node3</title>
<g id="a_Node000003"><a xlink:href="Location_8hpp.html" target="_top" xlink:title="Declares the Location class for route&#45;specific configuration.">
<polygon fill="white" stroke="#666666" points="136.5,-74 33.5,-74 33.5,-55 136.5,-55 136.5,-74"/>
<text text-anchor="middle" x="85" y="-62" font-family="Helvetica,sans-Serif" font-size="10.00">core/Location.hpp</text>
</a>
</g>
</g>
<!-- Node2&#45;&gt;Node3 -->
<g id="edge2_Node000002_Node000003" class="edge">
<title>Node2&#45;&gt;Node3</title>
<g id="a_edge2_Node000002_Node000003"><a xlink:title=" ">
<path fill="none" stroke="#63b8ff" d="M214.26,-109.98C188.63,-101.16 148.37,-87.31 119.59,-77.41"/>
<polygon fill="#63b8ff" stroke="#63b8ff" points="120.53,-74.03 109.94,-74.08 118.25,-80.65 120.53,-74.03"/>
</a>
</g>
</g>
<!-- Node4 -->
<g id="Node000004" class="node">
<title>Node4</title>
<g id="a_Node000004"><a xlink:title=" ">
<polygon fill="#e0e0e0" stroke="#999999" points="38,-19 0,-19 0,0 38,0 38,-19"/>
<text text-anchor="middle" x="19" y="-7" font-family="Helvetica,sans-Serif" font-size="10.00">map</text>
</a>
</g>
</g>
<!-- Node2&#45;&gt;Node4 -->
<g id="edge7_Node000002_Node000004" class="edge">
<title>Node2&#45;&gt;Node4</title>
<g id="a_edge7_Node000002_Node000004"><a xlink:title=" ">
<path fill="none" stroke="#63b8ff" d="M192.73,-115.3C136.33,-110.36 45.81,-98.73 24,-74 13.38,-61.96 13.2,-43.15 15.03,-29.12"/>
<polygon fill="#63b8ff" stroke="#63b8ff" points="18.51,-29.57 16.77,-19.12 11.61,-28.37 18.51,-29.57"/>
</a>
</g>
</g>
<!-- Node6 -->
<g id="Node000006" class="node">
<title>Node6</title>
<g id="a_Node000006"><a xlink:title=" ">
<polygon fill="#e0e0e0" stroke="#999999" points="248,-19 204,-19 204,0 248,0 248,-19"/>
<text text-anchor="middle" x="226" y="-7" font-family="Helvetica,sans-Serif" font-size="10.00">string</text>
</a>
</g>
</g>
<!-- Node2&#45;&gt;Node6 -->
<g id="edge9_Node000002_Node000006" class="edge">
<title>Node2&#45;&gt;Node6</title>
<g id="a_edge9_Node000002_Node000006"><a xlink:title=" ">
<path fill="none" stroke="#63b8ff" d="M237.94,-109.66C235.83,-92.17 231.09,-52.8 228.26,-29.27"/>
<polygon fill="#63b8ff" stroke="#63b8ff" points="231.71,-28.67 227.04,-19.16 224.76,-29.51 231.71,-28.67"/>
</a>
</g>
</g>
<!-- Node7 -->
<g id="Node000007" class="node">
<title>Node7</title>
<g id="a_Node000007"><a xlink:title=" ">
<polygon fill="#e0e0e0" stroke="#999999" points="313.5,-19 266.5,-19 266.5,0 313.5,0 313.5,-19"/>
<text text-anchor="middle" x="290" y="-7" font-family="Helvetica,sans-Serif" font-size="10.00">vector</text>
</a>
</g>
</g>
<!-- Node2&#45;&gt;Node7 -->
<g id="edge11_Node000002_Node000007" class="edge">
<title>Node2&#45;&gt;Node7</title>
<g id="a_edge11_Node000002_Node000007"><a xlink:title=" ">
<path fill="none" stroke="#63b8ff" d="M243.17,-109.66C251.55,-91.93 270.53,-51.73 281.59,-28.32"/>
<polygon fill="#63b8ff" stroke="#63b8ff" points="284.81,-29.7 285.91,-19.16 278.48,-26.71 284.81,-29.7"/>
</a>
</g>
</g>
<!-- Node8 -->
<g id="Node000008" class="node">
<title>Node8</title>
<g id="a_Node000008"><a xlink:title=" ">
<polygon fill="#e0e0e0" stroke="#999999" points="211,-74 155,-74 155,-55 211,-55 211,-74"/>
<text text-anchor="middle" x="183" y="-62" font-family="Helvetica,sans-Serif" font-size="10.00">stddef.h</text>
</a>
</g>
</g>
<!-- Node2&#45;&gt;Node8 -->
<g id="edge8_Node000002_Node000008" class="edge">
<title>Node2&#45;&gt;Node8</title>
<g id="a_edge8_Node000002_Node000008"><a xlink:title=" ">
<path fill="none" stroke="#63b8ff" d="M230,-109.98C221.81,-102.23 209.49,-90.58 199.53,-81.14"/>
<polygon fill="#63b8ff" stroke="#63b8ff" points="201.83,-78.5 192.16,-74.17 197.02,-83.59 201.83,-78.5"/>
</a>
</g>
</g>
<!-- Node2&#45;&gt;Node9 -->
<g id="edge10_Node000002_Node000009" class="edge">
<title>Node2&#45;&gt;Node9</title>
<g id="a_edge10_Node000002_Node000009"><a xlink:title=" ">
<path fill="none" stroke="#63b8ff" d="M255.55,-109.98C271.89,-101.57 297.13,-88.59 316.13,-78.81"/>
<polygon fill="#63b8ff" stroke="#63b8ff" points="317.86,-81.86 325.15,-74.17 314.66,-75.63 317.86,-81.86"/>
</a>
</g>
</g>
<!-- Node3&#45;&gt;Node4 -->
<g id="edge3_Node000003_Node000004" class="edge">
<title>Node3&#45;&gt;Node4</title>
<g id="a_edge3_Node000003_Node000004"><a xlink:title=" ">
<path fill="none" stroke="#63b8ff" d="M74.4,-54.98C64.54,-47.07 49.65,-35.11 37.78,-25.58"/>
<polygon fill="#63b8ff" stroke="#63b8ff" points="39.79,-22.7 29.8,-19.17 35.4,-28.16 39.79,-22.7"/>
</a>
</g>
</g>
<!-- Node5 -->
<g id="Node000005" class="node">
<title>Node5</title>
<g id="a_Node000005"><a xlink:title=" ">
<polygon fill="#e0e0e0" stroke="#999999" points="101,-19 69,-19 69,0 101,0 101,-19"/>
<text text-anchor="middle" x="85" y="-7" font-family="Helvetica,sans-Serif" font-size="10.00">set</text>
</a>
</g>
</g>
<!-- Node3&#45;&gt;Node5 -->
<g id="edge4_Node000003_Node000005" class="edge">
<title>Node3&#45;&gt;Node5</title>
<g id="a_edge4_Node000003_Node000005"><a xlink:title=" ">
<path fill="none" stroke="#63b8ff" d="M85,-54.75C85,-47.8 85,-37.85 85,-29.13"/>
<polygon fill="#63b8ff" stroke="#63b8ff" points="88.5,-29.09 85,-19.09 81.5,-29.09 88.5,-29.09"/>
</a>
</g>
</g>
<!-- Node3&#45;&gt;Node6 -->
<g id="edge5_Node000003_Node000006" class="edge">
<title>Node3&#45;&gt;Node6</title>
<g id="a_edge5_Node000003_Node000006"><a xlink:title=" ">
<path fill="none" stroke="#63b8ff" d="M107.65,-54.98C131.12,-46.16 167.99,-32.31 194.33,-22.4"/>
<polygon fill="#63b8ff" stroke="#63b8ff" points="195.74,-25.61 203.87,-18.82 193.27,-19.06 195.74,-25.61"/>
</a>
</g>
</g>
<!-- Node3&#45;&gt;Node7 -->
<g id="edge6_Node000003_Node000007" class="edge">
<title>Node3&#45;&gt;Node7</title>
<g id="a_edge6_Node000003_Node000007"><a xlink:title=" ">
<path fill="none" stroke="#63b8ff" d="M117.94,-54.98C155.9,-45.17 217.98,-29.12 256.28,-19.22"/>
<polygon fill="#63b8ff" stroke="#63b8ff" points="257.6,-22.49 266.41,-16.6 255.85,-15.71 257.6,-22.49"/>
</a>
</g>
</g>
<!-- Node10&#45;&gt;Node6 -->
<g id="edge15_Node000010_Node000006" class="edge">
<title>Node10&#45;&gt;Node6</title>
<g id="a_edge15_Node000010_Node000006"><a xlink:title=" ">
<path fill="none" stroke="#63b8ff" d="M459.35,-109.77C445.36,-96.13 416.35,-69.81 387,-55 386.26,-54.63 304.66,-32.15 257.93,-19.28"/>
<polygon fill="#63b8ff" stroke="#63b8ff" points="258.83,-15.9 248.26,-16.62 256.97,-22.65 258.83,-15.9"/>
</a>
</g>
</g>
<!-- Node10&#45;&gt;Node7 -->
<g id="edge16_Node000010_Node000007" class="edge">
<title>Node10&#45;&gt;Node7</title>
<g id="a_edge16_Node000010_Node000007"><a xlink:title=" ">
<path fill="none" stroke="#63b8ff" d="M480.89,-109.9C498.18,-97.33 525.06,-73.42 510,-55 486.88,-26.73 379.69,-16 323.93,-12.28"/>
<polygon fill="#63b8ff" stroke="#63b8ff" points="324.02,-8.78 313.82,-11.65 323.58,-15.77 324.02,-8.78"/>
</a>
</g>
</g>
<!-- Node10&#45;&gt;Node11 -->
<g id="edge13_Node000010_Node000011" class="edge">
<title>Node10&#45;&gt;Node11</title>
<g id="a_edge13_Node000010_Node000011"><a xlink:title=" ">
<path fill="none" stroke="#63b8ff" d="M486.64,-109.98C505.3,-101.46 534.25,-88.23 555.74,-78.41"/>
<polygon fill="#63b8ff" stroke="#63b8ff" points="557.38,-81.51 565.02,-74.17 554.47,-75.14 557.38,-81.51"/>
</a>
</g>
</g>
<!-- Node12 -->
<g id="Node000012" class="node">
<title>Node12</title>
<g id="a_Node000012"><a xlink:title=" ">
<polygon fill="#e0e0e0" stroke="#999999" points="500.5,-74 435.5,-74 435.5,-55 500.5,-55 500.5,-74"/>
<text text-anchor="middle" x="468" y="-62" font-family="Helvetica,sans-Serif" font-size="10.00">functional</text>
</a>
</g>
</g>
<!-- Node10&#45;&gt;Node12 -->
<g id="edge14_Node000010_Node000012" class="edge">
<title>Node10&#45;&gt;Node12</title>
<g id="a_edge14_Node000010_Node000012"><a xlink:title=" ">
<path fill="none" stroke="#63b8ff" d="M468,-109.75C468,-102.8 468,-92.85 468,-84.13"/>
<polygon fill="#63b8ff" stroke="#63b8ff" points="471.5,-84.09 468,-74.09 464.5,-84.09 471.5,-84.09"/>
</a>
</g>
</g>
</g>
</svg>
