<?xml version="1.0" encoding="UTF-8" standalone="no"?>
<!DOCTYPE svg PUBLIC "-//W3C//DTD SVG 1.1//EN"
 "http://www.w3.org/Graphics/SVG/1.1/DTD/svg11.dtd">
<!-- Generated by graphviz version 2.43.0 (0)
 -->
<!-- Title: src/network/SocketManagerUtils.cpp Pages: 1 -->
<!--zoomable 423 -->

<svg id="main" version="1.1" xmlns="http://www.w3.org/2000/svg" xmlns:xlink="http://www.w3.org/1999/xlink" xml:space="preserve" onload="init(evt)">
<style type="text/css"><![CDATA[
.node, .edge {opacity: 0.7;}
.node.selected, .edge.selected {opacity: 1;}
.edge:hover path { stroke: red; }
.edge:hover polygon { stroke: red; fill: red; }
]]></style>

<defs>
  <circle id="rim" cx="0" cy="0" r="7"/>
  <circle id="rim2" cx="0" cy="0" r="3.5"/>
  <g id="zoomPlus">
    <use xlink:href="#rim" fill="#404040"><set attributeName="fill" to="#808080" begin="zoomplus.mouseover" end="zoomplus.mouseout"/></use>
    <path d="M-4,0h8M0,-4v8" fill="none" stroke="white" stroke-width="1.5" pointer-events="none"/>
  </g>
  <g id="zoomMin">
    <use xlink:href="#rim" fill="#404040"><set attributeName="fill" to="#808080" begin="zoomminus.mouseover" end="zoomminus.mouseout"/></use>
    <path d="M-4,0h8" fill="none" stroke="white" stroke-width="1.5" pointer-events="none"/>
  </g>
  <g id="arrowUp" transform="translate(30 24)">
    <use xlink:href="#rim"/>
    <path pointer-events="none" fill="none" stroke="white" stroke-width="1.5" d="M0,-3.0v7 M-2.5,-0.5L0,-3.0L2.5,-0.5"/>
  </g>
  <g id="arrowRight" transform="rotate(90) translate(36 -43)">
    <use xlink:href="#rim"/>
    <path pointer-events="none" fill="none" stroke="white" stroke-width="1.5" d="M0,-3.0v7 M-2.5,-0.5L0,-3.0L2.5,-0.5"/>
  </g>
  <g id="arrowDown" transform="rotate(180) translate(-30 -48)">
    <use xlink:href="#rim"/>
    <path pointer-events="none" fill="none" stroke="white" stroke-width="1.5" d="M0,-3.0v7 M-2.5,-0.5L0,-3.0L2.5,-0.5"/>
  </g>
  <g id="arrowLeft" transform="rotate(270) translate(-36 17)">
    <use xlink:href="#rim"/>
    <path pointer-events="none" fill="none" stroke="white" stroke-width="1.5" d="M0,-3.0v7 M-2.5,-0.5L0,-3.0L2.5,-0.5"/>
  </g>
  <g id="resetDef">
    <use xlink:href="#rim2" fill="#404040"><set attributeName="fill" to="#808080" begin="reset.mouseover" end="reset.mouseout"/></use>
  </g>
</defs>
<script type="application/ecmascript">
var viewWidth = 1418;
var viewHeight = 423;
var sectionId = 'dynsection-0';
</script>
<script type="application/ecmascript" xlink:href="svg.min.js"/>
<svg id="graph" class="graph">
<g id="viewport">
<title>src/network/SocketManagerUtils.cpp</title>
<!-- Node1 -->
<g id="Node000001" class="node">
<title>Node1</title>
<g id="a_Node000001"><a xlink:title=" ">
<polygon fill="#999999" stroke="#666666" points="854,-415 702,-415 702,-385 854,-385 854,-415"/>
<text text-anchor="start" x="710" y="-403" font-family="Helvetica,sans-Serif" font-size="10.00">src/network/SocketManager</text>
<text text-anchor="middle" x="778" y="-392" font-family="Helvetica,sans-Serif" font-size="10.00">Utils.cpp</text>
</a>
</g>
</g>
<!-- Node2 -->
<g id="Node000002" class="node">
<title>Node2</title>
<g id="a_Node000002"><a xlink:href="Server_8hpp.html" target="_top" xlink:title="Declares the Server class for virtual host configuration.">
<polygon fill="white" stroke="#666666" points="412,-129 320,-129 320,-110 412,-110 412,-129"/>
<text text-anchor="middle" x="366" y="-117" font-family="Helvetica,sans-Serif" font-size="10.00">core/Server.hpp</text>
</a>
</g>
</g>
<!-- Node1&#45;&gt;Node2 -->
<g id="edge1_Node000001_Node000002" class="edge">
<title>Node1&#45;&gt;Node2</title>
<g id="a_edge1_Node000001_Node000002"><a xlink:title=" ">
<path fill="none" stroke="#63b8ff" d="M701.82,-399.22C549.59,-397.7 217.44,-383.94 160,-294 128.42,-244.55 140.86,-199.93 188,-165 223.21,-138.91 271.98,-128.01 309.57,-123.51"/>
<polygon fill="#63b8ff" stroke="#63b8ff" points="310.28,-126.95 319.85,-122.4 309.53,-119.99 310.28,-126.95"/>
</a>
</g>
</g>
<!-- Node4 -->
<g id="Node000004" class="node">
<title>Node4</title>
<g id="a_Node000004"><a xlink:title=" ">
<polygon fill="#e0e0e0" stroke="#999999" points="478,-19 440,-19 440,0 478,0 478,-19"/>
<text text-anchor="middle" x="459" y="-7" font-family="Helvetica,sans-Serif" font-size="10.00">map</text>
</a>
</g>
</g>
<!-- Node1&#45;&gt;Node4 -->
<g id="edge59_Node000001_Node000004" class="edge">
<title>Node1&#45;&gt;Node4</title>
<g id="a_edge59_Node000001_Node000004"><a xlink:title=" ">
<path fill="none" stroke="#63b8ff" d="M854.1,-389.9C910.34,-381.76 980.82,-368.16 1003,-349 1028.87,-326.65 1040.72,-304.82 1024,-275 1001.07,-234.11 975.8,-241.21 934,-220 839.27,-171.93 810.73,-170.62 713,-129 657.16,-105.22 643.02,-99.63 588,-74 552.09,-57.27 511.12,-36.87 485.17,-23.79"/>
<polygon fill="#63b8ff" stroke="#63b8ff" points="486.5,-20.54 476,-19.16 483.34,-26.79 486.5,-20.54"/>
</a>
</g>
</g>
<!-- Node6 -->
<g id="Node000006" class="node">
<title>Node6</title>
<g id="a_Node000006"><a xlink:title=" ">
<polygon fill="#e0e0e0" stroke="#999999" points="873,-19 829,-19 829,0 873,0 873,-19"/>
<text text-anchor="middle" x="851" y="-7" font-family="Helvetica,sans-Serif" font-size="10.00">string</text>
</a>
</g>
</g>
<!-- Node1&#45;&gt;Node6 -->
<g id="edge63_Node000001_Node000006" class="edge">
<title>Node1&#45;&gt;Node6</title>
<g id="a_edge63_Node000001_Node000006"><a xlink:title=" ">
<path fill="none" stroke="#63b8ff" d="M854.22,-396.02C957.65,-390.92 1136.18,-378.13 1194,-349 1228.68,-331.53 1254,-324.33 1254,-285.5 1254,-285.5 1254,-285.5 1254,-118.5 1254,-41.95 979.31,-18.19 883.5,-12.22"/>
<polygon fill="#63b8ff" stroke="#63b8ff" points="883.43,-8.71 873.24,-11.61 883.01,-15.7 883.43,-8.71"/>
</a>
</g>
</g>
<!-- Node7 -->
<g id="Node000007" class="node">
<title>Node7</title>
<g id="a_Node000007"><a xlink:title=" ">
<polygon fill="#e0e0e0" stroke="#999999" points="227.5,-19 180.5,-19 180.5,0 227.5,0 227.5,-19"/>
<text text-anchor="middle" x="204" y="-7" font-family="Helvetica,sans-Serif" font-size="10.00">vector</text>
</a>
</g>
</g>
<!-- Node1&#45;&gt;Node7 -->
<g id="edge66_Node000001_Node000007" class="edge">
<title>Node1&#45;&gt;Node7</title>
<g id="a_edge66_Node000001_Node000007"><a xlink:title=" ">
<path fill="none" stroke="#63b8ff" d="M701.99,-395.81C506.22,-386.6 0,-355.97 0,-285.5 0,-285.5 0,-285.5 0,-118.5 0,-42.48 112.01,-19.82 170.03,-13.18"/>
<polygon fill="#63b8ff" stroke="#63b8ff" points="170.62,-16.64 180.2,-12.12 169.89,-9.68 170.62,-16.64"/>
</a>
</g>
</g>
<!-- Node8 -->
<g id="Node000008" class="node">
<title>Node8</title>
<g id="a_Node000008"><a xlink:href="HttpRequest_8hpp.html" target="_top" xlink:title=" ">
<polygon fill="white" stroke="#666666" points="716.5,-184 595.5,-184 595.5,-165 716.5,-165 716.5,-184"/>
<text text-anchor="middle" x="656" y="-172" font-family="Helvetica,sans-Serif" font-size="10.00">http/HttpRequest.hpp</text>
</a>
</g>
</g>
<!-- Node1&#45;&gt;Node8 -->
<g id="edge10_Node000001_Node000008" class="edge">
<title>Node1&#45;&gt;Node8</title>
<g id="a_edge10_Node000001_Node000008"><a xlink:title=" ">
<path fill="none" stroke="#63b8ff" d="M854.31,-386.83C936.81,-370.31 1050.79,-335.66 1005,-275 971.57,-230.71 818.91,-200.26 726.93,-185.58"/>
<polygon fill="#63b8ff" stroke="#63b8ff" points="727.27,-182.09 716.85,-183.99 726.18,-189 727.27,-182.09"/>
</a>
</g>
</g>
<!-- Node13 -->
<g id="Node000013" class="node">
<title>Node13</title>
<g id="a_Node000013"><a xlink:href="HttpResponse_8hpp.html" target="_top" xlink:title=" ">
<polygon fill="white" stroke="#666666" points="488,-239 360,-239 360,-220 488,-220 488,-239"/>
<text text-anchor="middle" x="424" y="-227" font-family="Helvetica,sans-Serif" font-size="10.00">http/HttpResponse.hpp</text>
</a>
</g>
</g>
<!-- Node1&#45;&gt;Node13 -->
<g id="edge22_Node000001_Node000013" class="edge">
<title>Node1&#45;&gt;Node13</title>
<g id="a_edge22_Node000001_Node000013"><a xlink:title=" ">
<path fill="none" stroke="#63b8ff" d="M788.89,-384.81C806.87,-359.56 838.11,-306.53 810,-275 804.86,-269.23 609.23,-248.91 498.5,-237.84"/>
<polygon fill="#63b8ff" stroke="#63b8ff" points="498.69,-234.34 488.39,-236.83 497.99,-241.3 498.69,-234.34"/>
</a>
</g>
</g>
<!-- Node14 -->
<g id="Node000014" class="node">
<title>Node14</title>
<g id="a_Node000014"><a xlink:title=" ">
<polygon fill="#e0e0e0" stroke="#999999" points="312,-184 256,-184 256,-165 312,-165 312,-184"/>
<text text-anchor="middle" x="284" y="-172" font-family="Helvetica,sans-Serif" font-size="10.00">unistd.h</text>
</a>
</g>
</g>
<!-- Node1&#45;&gt;Node14 -->
<g id="edge64_Node000001_Node000014" class="edge">
<title>Node1&#45;&gt;Node14</title>
<g id="a_edge64_Node000001_Node000014"><a xlink:title=" ">
<path fill="none" stroke="#63b8ff" d="M701.78,-397.61C559.66,-393.13 263.63,-374.15 209,-294 184.04,-257.38 232.5,-212.92 262.58,-190.29"/>
<polygon fill="#63b8ff" stroke="#63b8ff" points="264.85,-192.97 270.87,-184.25 260.72,-187.31 264.85,-192.97"/>
</a>
</g>
</g>
<!-- Node15 -->
<g id="Node000015" class="node">
<title>Node15</title>
<g id="a_Node000015"><a xlink:href="handleCgi_8hpp.html" target="_top" xlink:title=" ">
<polygon fill="white" stroke="#666666" points="327.5,-294 218.5,-294 218.5,-275 327.5,-275 327.5,-294"/>
<text text-anchor="middle" x="273" y="-282" font-family="Helvetica,sans-Serif" font-size="10.00">http/handleCgi.hpp</text>
</a>
</g>
</g>
<!-- Node1&#45;&gt;Node15 -->
<g id="edge29_Node000001_Node000015" class="edge">
<title>Node1&#45;&gt;Node15</title>
<g id="a_edge29_Node000001_Node000015"><a xlink:title=" ">
<path fill="none" stroke="#63b8ff" d="M701.98,-396.44C624.31,-392.1 500.95,-380.43 399,-349 360.56,-337.15 319.59,-314.38 295.16,-299.57"/>
<polygon fill="#63b8ff" stroke="#63b8ff" points="296.69,-296.4 286.34,-294.14 293.02,-302.36 296.69,-296.4"/>
</a>
</g>
</g>
<!-- Node17 -->
<g id="Node000017" class="node">
<title>Node17</title>
<g id="a_Node000017"><a xlink:href="responseBuilder_8hpp.html" target="_top" xlink:title=" ">
<polygon fill="white" stroke="#666666" points="996,-294 858,-294 858,-275 996,-275 996,-294"/>
<text text-anchor="middle" x="927" y="-282" font-family="Helvetica,sans-Serif" font-size="10.00">http/responseBuilder.hpp</text>
</a>
</g>
</g>
<!-- Node1&#45;&gt;Node17 -->
<g id="edge35_Node000001_Node000017" class="edge">
<title>Node1&#45;&gt;Node17</title>
<g id="a_edge35_Node000001_Node000017"><a xlink:title=" ">
<path fill="none" stroke="#63b8ff" d="M796.79,-384.8C810.01,-374.8 828.1,-361.1 844,-349 865.88,-332.34 890.95,-313.15 907.76,-300.26"/>
<polygon fill="#63b8ff" stroke="#63b8ff" points="909.93,-303.01 915.74,-294.14 905.67,-297.45 909.93,-303.01"/>
</a>
</g>
</g>
<!-- Node18 -->
<g id="Node000018" class="node">
<title>Node18</title>
<g id="a_Node000018"><a xlink:href="SocketManager_8hpp.html" target="_top" xlink:title=" ">
<polygon fill="white" stroke="#666666" points="563.5,-349 408.5,-349 408.5,-330 563.5,-330 563.5,-349"/>
<text text-anchor="middle" x="486" y="-337" font-family="Helvetica,sans-Serif" font-size="10.00">network/SocketManager.hpp</text>
</a>
</g>
</g>
<!-- Node1&#45;&gt;Node18 -->
<g id="edge40_Node000001_Node000018" class="edge">
<title>Node1&#45;&gt;Node18</title>
<g id="a_edge40_Node000001_Node000018"><a xlink:title=" ">
<path fill="none" stroke="#63b8ff" d="M708.06,-384.99C656.03,-374.56 586.12,-360.56 538.74,-351.07"/>
<polygon fill="#63b8ff" stroke="#63b8ff" points="539.19,-347.59 528.69,-349.05 537.81,-354.45 539.19,-347.59"/>
</a>
</g>
</g>
<!-- Node20 -->
<g id="Node000020" class="node">
<title>Node20</title>
<g id="a_Node000020"><a xlink:title=" ">
<polygon fill="#e0e0e0" stroke="#999999" points="599.5,-294 544.5,-294 544.5,-275 599.5,-275 599.5,-294"/>
<text text-anchor="middle" x="572" y="-282" font-family="Helvetica,sans-Serif" font-size="10.00">fstream</text>
</a>
</g>
</g>
<!-- Node1&#45;&gt;Node20 -->
<g id="edge58_Node000001_Node000020" class="edge">
<title>Node1&#45;&gt;Node20</title>
<g id="a_edge58_Node000001_Node000020"><a xlink:title=" ">
<path fill="none" stroke="#63b8ff" d="M752.33,-384.85C712.46,-362.89 636.15,-320.85 596.81,-299.17"/>
<polygon fill="#63b8ff" stroke="#63b8ff" points="598.1,-295.88 587.65,-294.12 594.72,-302.02 598.1,-295.88"/>
</a>
</g>
</g>
<!-- Node21 -->
<g id="Node000021" class="node">
<title>Node21</title>
<g id="a_Node000021"><a xlink:title=" ">
<polygon fill="#e0e0e0" stroke="#999999" points="674,-294 618,-294 618,-275 674,-275 674,-294"/>
<text text-anchor="middle" x="646" y="-282" font-family="Helvetica,sans-Serif" font-size="10.00">optional</text>
</a>
</g>
</g>
<!-- Node1&#45;&gt;Node21 -->
<g id="edge60_Node000001_Node000021" class="edge">
<title>Node1&#45;&gt;Node21</title>
<g id="a_edge60_Node000001_Node000021"><a xlink:title=" ">
<path fill="none" stroke="#63b8ff" d="M761.55,-384.85C736.71,-363.5 689.81,-323.17 664.06,-301.03"/>
<polygon fill="#63b8ff" stroke="#63b8ff" points="666.06,-298.14 656.2,-294.27 661.5,-303.44 666.06,-298.14"/>
</a>
</g>
</g>
<!-- Node22 -->
<g id="Node000022" class="node">
<title>Node22</title>
<g id="a_Node000022"><a xlink:title=" ">
<polygon fill="#e0e0e0" stroke="#999999" points="736,-294 692,-294 692,-275 736,-275 736,-294"/>
<text text-anchor="middle" x="714" y="-282" font-family="Helvetica,sans-Serif" font-size="10.00">poll.h</text>
</a>
</g>
</g>
<!-- Node1&#45;&gt;Node22 -->
<g id="edge61_Node000001_Node000022" class="edge">
<title>Node1&#45;&gt;Node22</title>
<g id="a_edge61_Node000001_Node000022"><a xlink:title=" ">
<path fill="none" stroke="#63b8ff" d="M769.89,-384.63C758.17,-363.84 736.52,-325.44 723.88,-303.02"/>
<polygon fill="#63b8ff" stroke="#63b8ff" points="726.88,-301.22 718.92,-294.23 720.79,-304.66 726.88,-301.22"/>
</a>
</g>
</g>
<!-- Node23 -->
<g id="Node000023" class="node">
<title>Node23</title>
<g id="a_Node000023"><a xlink:title=" ">
<polygon fill="#e0e0e0" stroke="#999999" points="801.5,-294 754.5,-294 754.5,-275 801.5,-275 801.5,-294"/>
<text text-anchor="middle" x="778" y="-282" font-family="Helvetica,sans-Serif" font-size="10.00">queue</text>
</a>
</g>
</g>
<!-- Node1&#45;&gt;Node23 -->
<g id="edge62_Node000001_Node000023" class="edge">
<title>Node1&#45;&gt;Node23</title>
<g id="a_edge62_Node000001_Node000023"><a xlink:title=" ">
<path fill="none" stroke="#63b8ff" d="M778,-384.63C778,-364.21 778,-326.81 778,-304.24"/>
<polygon fill="#63b8ff" stroke="#63b8ff" points="781.5,-304.23 778,-294.23 774.5,-304.23 781.5,-304.23"/>
</a>
</g>
</g>
<!-- Node24 -->
<g id="Node000024" class="node">
<title>Node24</title>
<g id="a_Node000024"><a xlink:href="Logger_8hpp.html" target="_top" xlink:title=" ">
<polygon fill="white" stroke="#666666" points="1185,-349 1091,-349 1091,-330 1185,-330 1185,-349"/>
<text text-anchor="middle" x="1138" y="-337" font-family="Helvetica,sans-Serif" font-size="10.00">utils/Logger.hpp</text>
</a>
</g>
</g>
<!-- Node1&#45;&gt;Node24 -->
<g id="edge54_Node000001_Node000024" class="edge">
<title>Node1&#45;&gt;Node24</title>
<g id="a_edge54_Node000001_Node000024"><a xlink:title=" ">
<path fill="none" stroke="#63b8ff" d="M854.35,-386.59C922.19,-375.57 1019.83,-359.7 1081.05,-349.75"/>
<polygon fill="#63b8ff" stroke="#63b8ff" points="1081.62,-353.21 1090.92,-348.15 1080.49,-346.3 1081.62,-353.21"/>
</a>
</g>
</g>
<!-- Node26 -->
<g id="Node000026" class="node">
<title>Node26</title>
<g id="a_Node000026"><a xlink:title=" ">
<polygon fill="#e0e0e0" stroke="#999999" points="1346,-349 1282,-349 1282,-330 1346,-330 1346,-349"/>
<text text-anchor="middle" x="1314" y="-337" font-family="Helvetica,sans-Serif" font-size="10.00">algorithm</text>
</a>
</g>
</g>
<!-- Node1&#45;&gt;Node26 -->
<g id="edge57_Node000001_Node000026" class="edge">
<title>Node1&#45;&gt;Node26</title>
<g id="a_edge57_Node000001_Node000026"><a xlink:title=" ">
<path fill="none" stroke="#63b8ff" d="M854.2,-393.15C950.76,-385.3 1122.19,-369.88 1268,-349 1269.27,-348.82 1270.55,-348.63 1271.85,-348.43"/>
<polygon fill="#63b8ff" stroke="#63b8ff" points="1272.58,-351.85 1281.88,-346.78 1271.45,-344.95 1272.58,-351.85"/>
</a>
</g>
</g>
<!-- Node27 -->
<g id="Node000027" class="node">
<title>Node27</title>
<g id="a_Node000027"><a xlink:title=" ">
<polygon fill="#e0e0e0" stroke="#999999" points="1409.5,-349 1364.5,-349 1364.5,-330 1409.5,-330 1409.5,-349"/>
<text text-anchor="middle" x="1387" y="-337" font-family="Helvetica,sans-Serif" font-size="10.00">utility</text>
</a>
</g>
</g>
<!-- Node1&#45;&gt;Node27 -->
<g id="edge65_Node000001_Node000027" class="edge">
<title>Node1&#45;&gt;Node27</title>
<g id="a_edge65_Node000001_Node000027"><a xlink:title=" ">
<path fill="none" stroke="#63b8ff" d="M854.15,-396.6C963.12,-392.23 1169.78,-380.5 1354.49,-348.75"/>
<polygon fill="#63b8ff" stroke="#63b8ff" points="1355.13,-352.19 1364.38,-347.03 1353.93,-345.29 1355.13,-352.19"/>
</a>
</g>
</g>
<!-- Node3 -->
<g id="Node000003" class="node">
<title>Node3</title>
<g id="a_Node000003"><a xlink:href="Location_8hpp.html" target="_top" xlink:title=" ">
<polygon fill="white" stroke="#666666" points="373.5,-74 270.5,-74 270.5,-55 373.5,-55 373.5,-74"/>
<text text-anchor="middle" x="322" y="-62" font-family="Helvetica,sans-Serif" font-size="10.00">core/Location.hpp</text>
</a>
</g>
</g>
<!-- Node2&#45;&gt;Node3 -->
<g id="edge2_Node000002_Node000003" class="edge">
<title>Node2&#45;&gt;Node3</title>
<g id="a_edge2_Node000002_Node000003"><a xlink:title=" ">
<path fill="none" stroke="#63b8ff" d="M358.73,-109.75C352.46,-102.18 343.21,-91.05 335.57,-81.84"/>
<polygon fill="#63b8ff" stroke="#63b8ff" points="338.21,-79.55 329.13,-74.09 332.83,-84.02 338.21,-79.55"/>
</a>
</g>
</g>
<!-- Node2&#45;&gt;Node4 -->
<g id="edge7_Node000002_Node000004" class="edge">
<title>Node2&#45;&gt;Node4</title>
<g id="a_edge7_Node000002_Node000004"><a xlink:title=" ">
<path fill="none" stroke="#63b8ff" d="M373.61,-109.66C389.22,-91.54 425.06,-49.91 444.99,-26.77"/>
<polygon fill="#63b8ff" stroke="#63b8ff" points="447.67,-29.02 451.54,-19.16 442.37,-24.45 447.67,-29.02"/>
</a>
</g>
</g>
<!-- Node2&#45;&gt;Node6 -->
<g id="edge8_Node000002_Node000006" class="edge">
<title>Node2&#45;&gt;Node6</title>
<g id="a_edge8_Node000002_Node000006"><a xlink:title=" ">
<path fill="none" stroke="#63b8ff" d="M412.24,-117.33C480.45,-114.57 611.47,-105.28 718,-74 728.91,-70.8 788.81,-41.42 824.4,-23.76"/>
<polygon fill="#63b8ff" stroke="#63b8ff" points="826.33,-26.71 833.73,-19.13 823.21,-20.44 826.33,-26.71"/>
</a>
</g>
</g>
<!-- Node2&#45;&gt;Node7 -->
<g id="edge9_Node000002_Node000007" class="edge">
<title>Node2&#45;&gt;Node7</title>
<g id="a_edge9_Node000002_Node000007"><a xlink:title=" ">
<path fill="none" stroke="#63b8ff" d="M319.81,-113.89C290.2,-108.69 252.8,-97.6 228,-74 215.61,-62.2 209.55,-43.36 206.63,-29.26"/>
<polygon fill="#63b8ff" stroke="#63b8ff" points="210.04,-28.46 204.9,-19.2 203.14,-29.64 210.04,-28.46"/>
</a>
</g>
</g>
<!-- Node3&#45;&gt;Node4 -->
<g id="edge3_Node000003_Node000004" class="edge">
<title>Node3&#45;&gt;Node4</title>
<g id="a_edge3_Node000003_Node000004"><a xlink:title=" ">
<path fill="none" stroke="#63b8ff" d="M344.01,-54.98C367.38,-45.94 404.42,-31.61 430.12,-21.67"/>
<polygon fill="#63b8ff" stroke="#63b8ff" points="431.64,-24.84 439.7,-17.97 429.11,-18.31 431.64,-24.84"/>
</a>
</g>
</g>
<!-- Node5 -->
<g id="Node000005" class="node">
<title>Node5</title>
<g id="a_Node000005"><a xlink:title=" ">
<polygon fill="#e0e0e0" stroke="#999999" points="338,-19 306,-19 306,0 338,0 338,-19"/>
<text text-anchor="middle" x="322" y="-7" font-family="Helvetica,sans-Serif" font-size="10.00">set</text>
</a>
</g>
</g>
<!-- Node3&#45;&gt;Node5 -->
<g id="edge4_Node000003_Node000005" class="edge">
<title>Node3&#45;&gt;Node5</title>
<g id="a_edge4_Node000003_Node000005"><a xlink:title=" ">
<path fill="none" stroke="#63b8ff" d="M322,-54.75C322,-47.8 322,-37.85 322,-29.13"/>
<polygon fill="#63b8ff" stroke="#63b8ff" points="325.5,-29.09 322,-19.09 318.5,-29.09 325.5,-29.09"/>
</a>
</g>
</g>
<!-- Node3&#45;&gt;Node6 -->
<g id="edge5_Node000003_Node000006" class="edge">
<title>Node3&#45;&gt;Node6</title>
<g id="a_edge5_Node000003_Node000006"><a xlink:title=" ">
<path fill="none" stroke="#63b8ff" d="M373.69,-58.32C482.11,-47.46 730.59,-22.56 819.03,-13.7"/>
<polygon fill="#63b8ff" stroke="#63b8ff" points="819.4,-17.18 829,-12.7 818.7,-10.22 819.4,-17.18"/>
</a>
</g>
</g>
<!-- Node3&#45;&gt;Node7 -->
<g id="edge6_Node000003_Node000007" class="edge">
<title>Node3&#45;&gt;Node7</title>
<g id="a_edge6_Node000003_Node000007"><a xlink:title=" ">
<path fill="none" stroke="#63b8ff" d="M303.04,-54.98C283.97,-46.42 254.34,-33.11 232.45,-23.28"/>
<polygon fill="#63b8ff" stroke="#63b8ff" points="233.86,-20.07 223.3,-19.17 230.99,-26.46 233.86,-20.07"/>
</a>
</g>
</g>
<!-- Node8&#45;&gt;Node2 -->
<g id="edge11_Node000008_Node000002" class="edge">
<title>Node8&#45;&gt;Node2</title>
<g id="a_edge11_Node000008_Node000002"><a xlink:title=" ">
<path fill="none" stroke="#63b8ff" d="M609.41,-164.98C558.46,-155.67 476.83,-140.75 422.33,-130.79"/>
<polygon fill="#63b8ff" stroke="#63b8ff" points="422.94,-127.35 412.48,-128.99 421.69,-134.24 422.94,-127.35"/>
</a>
</g>
</g>
<!-- Node8&#45;&gt;Node4 -->
<g id="edge19_Node000008_Node000004" class="edge">
<title>Node8&#45;&gt;Node4</title>
<g id="a_edge19_Node000008_Node000004"><a xlink:title=" ">
<path fill="none" stroke="#63b8ff" d="M645.69,-164.97C614.05,-138.79 518.09,-59.39 477.47,-25.79"/>
<polygon fill="#63b8ff" stroke="#63b8ff" points="479.63,-23.02 469.69,-19.34 475.16,-28.42 479.63,-23.02"/>
</a>
</g>
</g>
<!-- Node8&#45;&gt;Node6 -->
<g id="edge20_Node000008_Node000006" class="edge">
<title>Node8&#45;&gt;Node6</title>
<g id="a_edge20_Node000008_Node000006"><a xlink:title=" ">
<path fill="none" stroke="#63b8ff" d="M716.58,-167.91C746.4,-162.31 781,-151.16 805,-129 833.96,-102.27 844.9,-55.17 848.87,-29.13"/>
<polygon fill="#63b8ff" stroke="#63b8ff" points="852.36,-29.46 850.21,-19.08 845.42,-28.53 852.36,-29.46"/>
</a>
</g>
</g>
<!-- Node8&#45;&gt;Node7 -->
<g id="edge21_Node000008_Node000007" class="edge">
<title>Node8&#45;&gt;Node7</title>
<g id="a_edge21_Node000008_Node000007"><a xlink:title=" ">
<path fill="none" stroke="#63b8ff" d="M626.06,-164.97C581.5,-152.38 495.05,-128.33 421,-110 350.25,-92.49 323.88,-110.87 261,-74 241.5,-62.57 225,-42.21 214.84,-27.62"/>
<polygon fill="#63b8ff" stroke="#63b8ff" points="217.58,-25.41 209.12,-19.02 211.75,-29.29 217.58,-25.41"/>
</a>
</g>
</g>
<!-- Node9 -->
<g id="Node000009" class="node">
<title>Node9</title>
<g id="a_Node000009"><a xlink:href="Url_8hpp.html" target="_top" xlink:title=" ">
<polygon fill="white" stroke="#666666" points="796,-129 722,-129 722,-110 796,-110 796,-129"/>
<text text-anchor="middle" x="759" y="-117" font-family="Helvetica,sans-Serif" font-size="10.00">http/Url.hpp</text>
</a>
</g>
</g>
<!-- Node8&#45;&gt;Node9 -->
<g id="edge12_Node000008_Node000009" class="edge">
<title>Node8&#45;&gt;Node9</title>
<g id="a_edge12_Node000008_Node000009"><a xlink:title=" ">
<path fill="none" stroke="#63b8ff" d="M672.55,-164.98C688.89,-156.57 714.13,-143.59 733.13,-133.81"/>
<polygon fill="#63b8ff" stroke="#63b8ff" points="734.86,-136.86 742.15,-129.17 731.66,-130.63 734.86,-136.86"/>
</a>
</g>
</g>
<!-- Node10 -->
<g id="Node000010" class="node">
<title>Node10</title>
<g id="a_Node000010"><a xlink:href="stringUtils_8hpp.html" target="_top" xlink:title="Utility functions for parsing numeric string values.">
<polygon fill="white" stroke="#666666" points="709,-74 597,-74 597,-55 709,-55 709,-74"/>
<text text-anchor="middle" x="653" y="-62" font-family="Helvetica,sans-Serif" font-size="10.00">utils/stringUtils.hpp</text>
</a>
</g>
</g>
<!-- Node8&#45;&gt;Node10 -->
<g id="edge14_Node000008_Node000010" class="edge">
<title>Node8&#45;&gt;Node10</title>
<g id="a_edge14_Node000008_Node000010"><a xlink:title=" ">
<path fill="none" stroke="#63b8ff" d="M655.75,-164.66C655.27,-147.17 654.18,-107.8 653.52,-84.27"/>
<polygon fill="#63b8ff" stroke="#63b8ff" points="657.02,-84.06 653.24,-74.16 650.02,-84.25 657.02,-84.06"/>
</a>
</g>
</g>
<!-- Node9&#45;&gt;Node6 -->
<g id="edge13_Node000009_Node000006" class="edge">
<title>Node9&#45;&gt;Node6</title>
<g id="a_edge13_Node000009_Node000006"><a xlink:title=" ">
<path fill="none" stroke="#63b8ff" d="M766.53,-109.66C781.9,-91.61 817.12,-50.28 836.88,-27.08"/>
<polygon fill="#63b8ff" stroke="#63b8ff" points="839.8,-29.04 843.62,-19.16 834.48,-24.5 839.8,-29.04"/>
</a>
</g>
</g>
<!-- Node10&#45;&gt;Node6 -->
<g id="edge17_Node000010_Node000006" class="edge">
<title>Node10&#45;&gt;Node6</title>
<g id="a_edge17_Node000010_Node000006"><a xlink:title=" ">
<path fill="none" stroke="#63b8ff" d="M684.81,-54.98C721.68,-45.12 782.1,-28.94 819.03,-19.06"/>
<polygon fill="#63b8ff" stroke="#63b8ff" points="820.04,-22.41 828.79,-16.45 818.23,-15.65 820.04,-22.41"/>
</a>
</g>
</g>
<!-- Node10&#45;&gt;Node7 -->
<g id="edge18_Node000010_Node000007" class="edge">
<title>Node10&#45;&gt;Node7</title>
<g id="a_edge18_Node000010_Node000007"><a xlink:title=" ">
<path fill="none" stroke="#63b8ff" d="M596.59,-56.84C502.11,-45.69 314.7,-23.57 237.96,-14.51"/>
<polygon fill="#63b8ff" stroke="#63b8ff" points="238.23,-11.02 227.89,-13.32 237.41,-17.97 238.23,-11.02"/>
</a>
</g>
</g>
<!-- Node11 -->
<g id="Node000011" class="node">
<title>Node11</title>
<g id="a_Node000011"><a xlink:title=" ">
<polygon fill="#e0e0e0" stroke="#999999" points="640.5,-19 587.5,-19 587.5,0 640.5,0 640.5,-19"/>
<text text-anchor="middle" x="614" y="-7" font-family="Helvetica,sans-Serif" font-size="10.00">cstddef</text>
</a>
</g>
</g>
<!-- Node10&#45;&gt;Node11 -->
<g id="edge15_Node000010_Node000011" class="edge">
<title>Node10&#45;&gt;Node11</title>
<g id="a_edge15_Node000010_Node000011"><a xlink:title=" ">
<path fill="none" stroke="#63b8ff" d="M646.56,-54.75C641.11,-47.34 633.14,-36.5 626.44,-27.41"/>
<polygon fill="#63b8ff" stroke="#63b8ff" points="629.07,-25.07 620.32,-19.09 623.43,-29.22 629.07,-25.07"/>
</a>
</g>
</g>
<!-- Node12 -->
<g id="Node000012" class="node">
<title>Node12</title>
<g id="a_Node000012"><a xlink:title=" ">
<polygon fill="#e0e0e0" stroke="#999999" points="723.5,-19 658.5,-19 658.5,0 723.5,0 723.5,-19"/>
<text text-anchor="middle" x="691" y="-7" font-family="Helvetica,sans-Serif" font-size="10.00">functional</text>
</a>
</g>
</g>
<!-- Node10&#45;&gt;Node12 -->
<g id="edge16_Node000010_Node000012" class="edge">
<title>Node10&#45;&gt;Node12</title>
<g id="a_edge16_Node000010_Node000012"><a xlink:title=" ">
<path fill="none" stroke="#63b8ff" d="M659.27,-54.75C664.59,-47.34 672.36,-36.5 678.88,-27.41"/>
<polygon fill="#63b8ff" stroke="#63b8ff" points="681.86,-29.26 684.84,-19.09 676.17,-25.18 681.86,-29.26"/>
</a>
</g>
</g>
<!-- Node13&#45;&gt;Node2 -->
<g id="edge23_Node000013_Node000002" class="edge">
<title>Node13&#45;&gt;Node2</title>
<g id="a_edge23_Node000013_Node000002"><a xlink:title=" ">
<path fill="none" stroke="#63b8ff" d="M419.25,-219.66C409.69,-201.85 387.95,-161.37 375.4,-138.01"/>
<polygon fill="#63b8ff" stroke="#63b8ff" points="378.46,-136.31 370.65,-129.16 372.3,-139.62 378.46,-136.31"/>
</a>
</g>
</g>
<!-- Node13&#45;&gt;Node4 -->
<g id="edge26_Node000013_Node000004" class="edge">
<title>Node13&#45;&gt;Node4</title>
<g id="a_edge26_Node000013_Node000004"><a xlink:title=" ">
<path fill="none" stroke="#63b8ff" d="M427.4,-219.89C433.94,-202.86 448.16,-163.51 454,-129 459.87,-94.26 460.13,-53.03 459.65,-29.5"/>
<polygon fill="#63b8ff" stroke="#63b8ff" points="463.14,-29.1 459.37,-19.2 456.15,-29.29 463.14,-29.1"/>
</a>
</g>
</g>
<!-- Node13&#45;&gt;Node6 -->
<g id="edge27_Node000013_Node000006" class="edge">
<title>Node13&#45;&gt;Node6</title>
<g id="a_edge27_Node000013_Node000006"><a xlink:title=" ">
<path fill="none" stroke="#63b8ff" d="M444.42,-219.98C496.68,-197.96 639.09,-136.46 752,-74 779.92,-58.56 810.64,-38.31 830.34,-24.87"/>
<polygon fill="#63b8ff" stroke="#63b8ff" points="832.55,-27.6 838.81,-19.05 828.59,-21.83 832.55,-27.6"/>
</a>
</g>
</g>
<!-- Node13&#45;&gt;Node8 -->
<g id="edge24_Node000013_Node000008" class="edge">
<title>Node13&#45;&gt;Node8</title>
<g id="a_edge24_Node000013_Node000008"><a xlink:title=" ">
<path fill="none" stroke="#63b8ff" d="M461.27,-219.98C501.32,-210.84 565.07,-196.27 608.64,-186.32"/>
<polygon fill="#63b8ff" stroke="#63b8ff" points="609.46,-189.72 618.43,-184.08 607.9,-182.9 609.46,-189.72"/>
</a>
</g>
</g>
<!-- Node13&#45;&gt;Node13 -->
<g id="edge25_Node000013_Node000013" class="edge">
<title>Node13&#45;&gt;Node13</title>
<g id="a_edge25_Node000013_Node000013"><a xlink:title=" ">
<path fill="none" stroke="#63b8ff" d="M462.38,-239.03C484.91,-241.06 506,-237.88 506,-229.5 506,-222.39 490.85,-219.03 472.51,-219.4"/>
<polygon fill="#63b8ff" stroke="#63b8ff" points="472.17,-215.92 462.38,-219.97 472.56,-222.91 472.17,-215.92"/>
</a>
</g>
</g>
<!-- Node13&#45;&gt;Node14 -->
<g id="edge28_Node000013_Node000014" class="edge">
<title>Node13&#45;&gt;Node14</title>
<g id="a_edge28_Node000013_Node000014"><a xlink:title=" ">
<path fill="none" stroke="#63b8ff" d="M401.51,-219.98C378.48,-211.27 342.46,-197.63 316.37,-187.75"/>
<polygon fill="#63b8ff" stroke="#63b8ff" points="317.49,-184.44 306.9,-184.17 315.02,-190.98 317.49,-184.44"/>
</a>
</g>
</g>
<!-- Node15&#45;&gt;Node6 -->
<g id="edge31_Node000015_Node000006" class="edge">
<title>Node15&#45;&gt;Node6</title>
<g id="a_edge31_Node000015_Node000006"><a xlink:title=" ">
<path fill="none" stroke="#63b8ff" d="M327.67,-279.65C478.42,-268.31 889,-232.23 889,-175.5 889,-175.5 889,-175.5 889,-118.5 889,-85.02 872.55,-48.84 861.3,-28.01"/>
<polygon fill="#63b8ff" stroke="#63b8ff" points="864.24,-26.1 856.28,-19.1 858.13,-29.53 864.24,-26.1"/>
</a>
</g>
</g>
<!-- Node15&#45;&gt;Node7 -->
<g id="edge34_Node000015_Node000007" class="edge">
<title>Node15&#45;&gt;Node7</title>
<g id="a_edge34_Node000015_Node000007"><a xlink:title=" ">
<path fill="none" stroke="#63b8ff" d="M269.94,-274.84C260.02,-246.44 228.45,-153.38 212,-74 208.93,-59.17 206.86,-42.14 205.6,-29.44"/>
<polygon fill="#63b8ff" stroke="#63b8ff" points="209.06,-28.84 204.66,-19.2 202.08,-29.48 209.06,-28.84"/>
</a>
</g>
</g>
<!-- Node15&#45;&gt;Node13 -->
<g id="edge30_Node000015_Node000013" class="edge">
<title>Node15&#45;&gt;Node13</title>
<g id="a_edge30_Node000015_Node000013"><a xlink:title=" ">
<path fill="none" stroke="#63b8ff" d="M297.26,-274.98C322.32,-266.19 361.63,-252.39 389.83,-242.49"/>
<polygon fill="#63b8ff" stroke="#63b8ff" points="391.02,-245.78 399.3,-239.17 388.7,-239.18 391.02,-245.78"/>
</a>
</g>
</g>
<!-- Node15&#45;&gt;Node14 -->
<g id="edge33_Node000015_Node000014" class="edge">
<title>Node15&#45;&gt;Node14</title>
<g id="a_edge33_Node000015_Node000014"><a xlink:title=" ">
<path fill="none" stroke="#63b8ff" d="M273.9,-274.66C275.68,-257.17 279.69,-217.8 282.09,-194.27"/>
<polygon fill="#63b8ff" stroke="#63b8ff" points="285.59,-194.46 283.12,-184.16 278.62,-193.75 285.59,-194.46"/>
</a>
</g>
</g>
<!-- Node16 -->
<g id="Node000016" class="node">
<title>Node16</title>
<g id="a_Node000016"><a xlink:title=" ">
<polygon fill="#e0e0e0" stroke="#999999" points="342,-239 294,-239 294,-220 342,-220 342,-239"/>
<text text-anchor="middle" x="318" y="-227" font-family="Helvetica,sans-Serif" font-size="10.00">time.h</text>
</a>
</g>
</g>
<!-- Node15&#45;&gt;Node16 -->
<g id="edge32_Node000015_Node000016" class="edge">
<title>Node15&#45;&gt;Node16</title>
<g id="a_edge32_Node000015_Node000016"><a xlink:title=" ">
<path fill="none" stroke="#63b8ff" d="M280.43,-274.75C286.85,-267.18 296.31,-256.05 304.12,-246.84"/>
<polygon fill="#63b8ff" stroke="#63b8ff" points="306.9,-248.98 310.71,-239.09 301.57,-244.45 306.9,-248.98"/>
</a>
</g>
</g>
<!-- Node17&#45;&gt;Node2 -->
<g id="edge36_Node000017_Node000002" class="edge">
<title>Node17&#45;&gt;Node2</title>
<g id="a_edge36_Node000017_Node000002"><a xlink:title=" ">
<path fill="none" stroke="#63b8ff" d="M896.98,-274.93C865.75,-265.99 815.43,-251.57 772,-239 637.21,-199.98 477.42,-153.18 405.06,-131.96"/>
<polygon fill="#63b8ff" stroke="#63b8ff" points="405.61,-128.48 395.03,-129.02 403.64,-135.19 405.61,-128.48"/>
</a>
</g>
</g>
<!-- Node17&#45;&gt;Node6 -->
<g id="edge39_Node000017_Node000006" class="edge">
<title>Node17&#45;&gt;Node6</title>
<g id="a_edge39_Node000017_Node000006"><a xlink:title=" ">
<path fill="none" stroke="#63b8ff" d="M955.3,-275C994.89,-261.15 1062,-229.68 1062,-175.5 1062,-175.5 1062,-175.5 1062,-118.5 1062,-39.28 942.67,-18.13 883.49,-12.51"/>
<polygon fill="#63b8ff" stroke="#63b8ff" points="883.44,-9 873.18,-11.64 882.85,-15.97 883.44,-9"/>
</a>
</g>
</g>
<!-- Node17&#45;&gt;Node8 -->
<g id="edge37_Node000017_Node000008" class="edge">
<title>Node17&#45;&gt;Node8</title>
<g id="a_edge37_Node000017_Node000008"><a xlink:title=" ">
<path fill="none" stroke="#63b8ff" d="M905.28,-274.84C857.29,-255.72 742.12,-209.82 686.75,-187.75"/>
<polygon fill="#63b8ff" stroke="#63b8ff" points="688.03,-184.5 677.45,-184.05 685.44,-191 688.03,-184.5"/>
</a>
</g>
</g>
<!-- Node17&#45;&gt;Node13 -->
<g id="edge38_Node000017_Node000013" class="edge">
<title>Node17&#45;&gt;Node13</title>
<g id="a_edge38_Node000017_Node000013"><a xlink:title=" ">
<path fill="none" stroke="#63b8ff" d="M857.85,-276.21C763.44,-266.27 594.9,-248.51 498.02,-238.3"/>
<polygon fill="#63b8ff" stroke="#63b8ff" points="498.32,-234.81 488.01,-237.24 497.59,-241.77 498.32,-234.81"/>
</a>
</g>
</g>
<!-- Node18&#45;&gt;Node2 -->
<g id="edge41_Node000018_Node000002" class="edge">
<title>Node18&#45;&gt;Node2</title>
<g id="a_edge41_Node000018_Node000002"><a xlink:title=" ">
<path fill="none" stroke="#63b8ff" d="M408.21,-338.5C326.4,-336.64 205.47,-328 176,-294 136.85,-248.83 165.55,-200 214,-165 242.04,-144.75 279.22,-133.66 309.79,-127.61"/>
<polygon fill="#63b8ff" stroke="#63b8ff" points="310.68,-131 319.88,-125.75 309.41,-124.12 310.68,-131"/>
</a>
</g>
</g>
<!-- Node18&#45;&gt;Node4 -->
<g id="edge47_Node000018_Node000004" class="edge">
<title>Node18&#45;&gt;Node4</title>
<g id="a_edge47_Node000018_Node000004"><a xlink:title=" ">
<path fill="none" stroke="#63b8ff" d="M408.33,-336.9C335.52,-333.56 234.19,-323.56 209,-294 194.51,-277 184.97,-219.53 247,-165 306.31,-112.86 362.27,-181.8 421,-129 449.69,-103.21 456.85,-55.74 458.55,-29.38"/>
<polygon fill="#63b8ff" stroke="#63b8ff" points="462.05,-29.35 459,-19.21 455.06,-29.05 462.05,-29.35"/>
</a>
</g>
</g>
<!-- Node18&#45;&gt;Node6 -->
<g id="edge51_Node000018_Node000006" class="edge">
<title>Node18&#45;&gt;Node6</title>
<g id="a_edge51_Node000018_Node000006"><a xlink:title=" ">
<path fill="none" stroke="#63b8ff" d="M563.64,-336.57C687.94,-332.7 925.69,-321.82 1005,-294 1052.92,-277.19 1100,-281.29 1100,-230.5 1100,-230.5 1100,-230.5 1100,-118.5 1100,-25.02 950.46,-11.57 883.16,-10.24"/>
<polygon fill="#63b8ff" stroke="#63b8ff" points="883.14,-6.74 873.1,-10.13 883.06,-13.74 883.14,-6.74"/>
</a>
</g>
</g>
<!-- Node18&#45;&gt;Node7 -->
<g id="edge53_Node000018_Node000007" class="edge">
<title>Node18&#45;&gt;Node7</title>
<g id="a_edge53_Node000018_Node000007"><a xlink:title=" ">
<path fill="none" stroke="#63b8ff" d="M408.38,-338.85C340.46,-336.64 240.39,-327.18 160,-294 116.74,-276.14 76,-277.3 76,-230.5 76,-230.5 76,-230.5 76,-118.5 76,-68.99 132.63,-37.56 170.56,-22.06"/>
<polygon fill="#63b8ff" stroke="#63b8ff" points="172.18,-25.19 180.22,-18.29 169.64,-18.67 172.18,-25.19"/>
</a>
</g>
</g>
<!-- Node18&#45;&gt;Node8 -->
<g id="edge42_Node000018_Node000008" class="edge">
<title>Node18&#45;&gt;Node8</title>
<g id="a_edge42_Node000018_Node000008"><a xlink:title=" ">
<path fill="none" stroke="#63b8ff" d="M491.78,-329.79C500.42,-317.08 517.55,-293 535,-275 567.37,-241.61 610.49,-208.43 635.55,-190.08"/>
<polygon fill="#63b8ff" stroke="#63b8ff" points="637.87,-192.72 643.91,-184.02 633.76,-187.05 637.87,-192.72"/>
</a>
</g>
</g>
<!-- Node18&#45;&gt;Node13 -->
<g id="edge43_Node000018_Node000013" class="edge">
<title>Node18&#45;&gt;Node13</title>
<g id="a_edge43_Node000018_Node000013"><a xlink:title=" ">
<path fill="none" stroke="#63b8ff" d="M459.43,-329.94C442.87,-323.06 422.88,-311.6 413,-294 405.22,-280.14 409.46,-262.12 414.77,-248.81"/>
<polygon fill="#63b8ff" stroke="#63b8ff" points="418.13,-249.88 419.06,-239.32 411.75,-247 418.13,-249.88"/>
</a>
</g>
</g>
<!-- Node18&#45;&gt;Node15 -->
<g id="edge44_Node000018_Node000015" class="edge">
<title>Node18&#45;&gt;Node15</title>
<g id="a_edge44_Node000018_Node000015"><a xlink:title=" ">
<path fill="none" stroke="#63b8ff" d="M451.78,-329.98C415.24,-320.89 357.22,-306.46 317.24,-296.51"/>
<polygon fill="#63b8ff" stroke="#63b8ff" points="318.04,-293.1 307.49,-294.08 316.35,-299.89 318.04,-293.1"/>
</a>
</g>
</g>
<!-- Node18&#45;&gt;Node16 -->
<g id="edge52_Node000018_Node000016" class="edge">
<title>Node18&#45;&gt;Node16</title>
<g id="a_edge52_Node000018_Node000016"><a xlink:title=" ">
<path fill="none" stroke="#63b8ff" d="M468.88,-329.91C452.23,-321.37 426.39,-307.6 405,-294 380.81,-278.62 354.4,-258.89 337.1,-245.54"/>
<polygon fill="#63b8ff" stroke="#63b8ff" points="338.98,-242.57 328.94,-239.19 334.68,-248.09 338.98,-242.57"/>
</a>
</g>
</g>
<!-- Node19 -->
<g id="Node000019" class="node">
<title>Node19</title>
<g id="a_Node000019"><a xlink:title=" ">
<polygon fill="#e0e0e0" stroke="#999999" points="487.5,-294 422.5,-294 422.5,-275 487.5,-275 487.5,-294"/>
<text text-anchor="middle" x="455" y="-282" font-family="Helvetica,sans-Serif" font-size="10.00">exception</text>
</a>
</g>
</g>
<!-- Node18&#45;&gt;Node19 -->
<g id="edge45_Node000018_Node000019" class="edge">
<title>Node18&#45;&gt;Node19</title>
<g id="a_edge45_Node000018_Node000019"><a xlink:title=" ">
<path fill="none" stroke="#63b8ff" d="M480.88,-329.75C476.64,-322.49 470.47,-311.95 465.22,-302.98"/>
<polygon fill="#63b8ff" stroke="#63b8ff" points="468.09,-300.95 460.02,-294.09 462.05,-304.49 468.09,-300.95"/>
</a>
</g>
</g>
<!-- Node18&#45;&gt;Node20 -->
<g id="edge46_Node000018_Node000020" class="edge">
<title>Node18&#45;&gt;Node20</title>
<g id="a_edge46_Node000018_Node000020"><a xlink:title=" ">
<path fill="none" stroke="#63b8ff" d="M499.82,-329.98C513.15,-321.77 533.58,-309.18 549.31,-299.49"/>
<polygon fill="#63b8ff" stroke="#63b8ff" points="551.25,-302.4 557.93,-294.17 547.58,-296.44 551.25,-302.4"/>
</a>
</g>
</g>
<!-- Node18&#45;&gt;Node21 -->
<g id="edge48_Node000018_Node000021" class="edge">
<title>Node18&#45;&gt;Node21</title>
<g id="a_edge48_Node000018_Node000021"><a xlink:title=" ">
<path fill="none" stroke="#63b8ff" d="M511.71,-329.98C538.45,-321.13 580.53,-307.19 610.45,-297.28"/>
<polygon fill="#63b8ff" stroke="#63b8ff" points="611.7,-300.55 620.09,-294.08 609.5,-293.9 611.7,-300.55"/>
</a>
</g>
</g>
<!-- Node18&#45;&gt;Node22 -->
<g id="edge49_Node000018_Node000022" class="edge">
<title>Node18&#45;&gt;Node22</title>
<g id="a_edge49_Node000018_Node000022"><a xlink:title=" ">
<path fill="none" stroke="#63b8ff" d="M526.12,-330C563.91,-321.86 622.34,-308.97 681.75,-294.23"/>
<polygon fill="#63b8ff" stroke="#63b8ff" points="682.83,-297.57 691.68,-291.75 681.13,-290.78 682.83,-297.57"/>
</a>
</g>
</g>
<!-- Node18&#45;&gt;Node23 -->
<g id="edge50_Node000018_Node000023" class="edge">
<title>Node18&#45;&gt;Node23</title>
<g id="a_edge50_Node000018_Node000023"><a xlink:title=" ">
<path fill="none" stroke="#63b8ff" d="M543.61,-329.99C594.01,-322.23 669.37,-309.87 744.19,-294.02"/>
<polygon fill="#63b8ff" stroke="#63b8ff" points="745.22,-297.38 754.26,-291.86 743.75,-290.53 745.22,-297.38"/>
</a>
</g>
</g>
<!-- Node24&#45;&gt;Node6 -->
<g id="edge56_Node000024_Node000006" class="edge">
<title>Node24&#45;&gt;Node6</title>
<g id="a_edge56_Node000024_Node000006"><a xlink:title=" ">
<path fill="none" stroke="#63b8ff" d="M1138,-329.82C1138,-311.48 1138,-267.44 1138,-230.5 1138,-230.5 1138,-230.5 1138,-118.5 1138,-88.33 1137.3,-74.17 1114,-55 1079.27,-26.42 945.8,-15.59 883.45,-12.03"/>
<polygon fill="#63b8ff" stroke="#63b8ff" points="883.55,-8.53 873.38,-11.48 883.17,-15.52 883.55,-8.53"/>
</a>
</g>
</g>
<!-- Node25 -->
<g id="Node000025" class="node">
<title>Node25</title>
<g id="a_Node000025"><a xlink:title=" ">
<polygon fill="#e0e0e0" stroke="#999999" points="1226,-294 1166,-294 1166,-275 1226,-275 1226,-294"/>
<text text-anchor="middle" x="1196" y="-282" font-family="Helvetica,sans-Serif" font-size="10.00">iostream</text>
</a>
</g>
</g>
<!-- Node24&#45;&gt;Node25 -->
<g id="edge55_Node000024_Node000025" class="edge">
<title>Node24&#45;&gt;Node25</title>
<g id="a_edge55_Node000024_Node000025"><a xlink:title=" ">
<path fill="none" stroke="#63b8ff" d="M1147.32,-329.98C1155.81,-322.23 1168.56,-310.58 1178.88,-301.14"/>
<polygon fill="#63b8ff" stroke="#63b8ff" points="1181.49,-303.5 1186.51,-294.17 1176.77,-298.33 1181.49,-303.5"/>
</a>
</g>
</g>
</g>
</svg>

<g id="navigator" transform="translate(0 0)" fill="#404254">
  <rect fill="#f2f5e9" fill-opacity="0.5" stroke="#606060" stroke-width=".5" x="0" y="0" width="60" height="60"/>
  <use id="zoomplus" xlink:href="#zoomPlus" x="17" y="9" onmousedown="handleZoom(evt,'in')"/>
  <use id="zoomminus" xlink:href="#zoomMin" x="42" y="9" onmousedown="handleZoom(evt,'out')"/>
  <use id="reset" xlink:href="#resetDef" x="30" y="36" onmousedown="handleReset()"/>
   <use id="arrowup" xlink:href="#arrowUp" x="0" y="0" onmousedown="handlePan(0,-1)"/>
  <use id="arrowright" xlink:href="#arrowRight" x="0" y="0" onmousedown="handlePan(1,0)"/>
  <use id="arrowdown" xlink:href="#arrowDown" x="0" y="0" onmousedown="handlePan(0,1)"/>
  <use id="arrowleft" xlink:href="#arrowLeft" x="0" y="0" onmousedown="handlePan(-1,0)"/>
</g>
<svg viewBox="0 0 15 15" width="100%" height="30px" preserveAspectRatio="xMaxYMin meet">
 <g id="arrow_out" transform="scale(0.3 0.3)">
  <a xlink:href="SocketManagerUtils_8cpp__incl_org.svg" target="_base">
   <rect id="button" ry="5" rx="5" y="6" x="6" height="38" width="38"
        fill="#f2f5e9" fill-opacity="0.5" stroke="#606060" stroke-width="1.0"/>
   <path id="arrow"
     d="M 11.500037,31.436501 C 11.940474,20.09759 22.043105,11.32322 32.158766,21.979434 L 37.068811,17.246167 C 37.068811,17.246167 37.088388,32 37.088388,32 L 22.160133,31.978069 C 22.160133,31.978069 26.997745,27.140456 26.997745,27.140456 C 18.528582,18.264221 13.291696,25.230495 11.500037,31.436501 z"
     style="fill:#404040;"/>
  </a>
 </g>
</svg>

<style type='text/css'>
<![CDATA[
[data-mouse-over-selected='false'] { opacity: 0.7; }
[data-mouse-over-selected='true']  { opacity: 1.0; }
]]>
</style>
<script type="application/ecmascript"><![CDATA[
document.addEventListener('DOMContentLoaded', (event) => {
  highlightEdges();
  highlightAdjacentNodes();
});
]]></script>
</svg>
